<svg width="26" height="26" viewBox="0 0 26 26" fill="none" xmlns="http://www.w3.org/2000/svg">
<path d="M24.3761 13.2525C24.3761 12.3173 24.2987 11.6348 24.1311 10.927H13.2333V15.1483H19.63C19.5011 16.1974 18.8047 17.7773 17.2571 18.8389L17.2354 18.9802L20.681 21.5962L20.9198 21.6195C23.1122 19.6352 24.3761 16.7156 24.3761 13.2525Z" fill="#00AA11"/>
<path d="M13.2326 24.3749C16.3664 24.3749 18.9973 23.3637 20.919 21.6196L17.2563 18.8389C16.2762 19.5088 14.9607 19.9764 13.2326 19.9764C10.1631 19.9764 7.55802 17.9922 6.62936 15.2495L6.49324 15.2608L2.91038 17.9782L2.86353 18.1059C4.77223 21.8217 8.69286 24.3749 13.2326 24.3749Z" fill="#34A853"/>
<path d="M6.63007 15.2496C6.38504 14.5418 6.24323 13.7834 6.24323 12.9999C6.24323 12.2162 6.38504 11.4579 6.61718 10.7501L6.61069 10.5994L2.98292 7.83838L2.86422 7.89371C2.07755 9.43567 1.62616 11.1672 1.62616 12.9999C1.62616 14.8325 2.07755 16.564 2.86422 18.1059L6.63007 15.2496Z" fill="#FBBC05"/>
<path d="M13.2326 6.0233C15.4122 6.0233 16.8824 6.94594 17.7207 7.71696L20.9965 4.5825C18.9846 2.74987 16.3665 1.625 13.2326 1.625C8.69289 1.625 4.77224 4.17804 2.86353 7.89384L6.61649 10.7503C7.55805 8.00763 10.1632 6.0233 13.2326 6.0233Z" fill="#EB4335"/>
</svg>
