<svg width="82" height="88" viewBox="0 0 82 88" fill="none" xmlns="http://www.w3.org/2000/svg">
<rect width="82" height="88" rx="24" fill="#FB5D3A"/>
<g clip-path="url(#clip0_21_326)">
<path d="M29.3337 72H29.1422C21.8661 71.8983 15.9679 65.9625 16 58.7656C16.0069 56.6837 16.5143 54.6331 17.4803 52.7828C18.4462 50.9326 19.8432 49.3356 21.5562 48.1234V23.6825C21.5806 21.6607 22.4105 19.7299 23.8659 18.3087C25.3213 16.8876 27.2849 16.0906 29.3309 16.0906C31.377 16.0906 33.3406 16.8876 34.796 18.3087C36.2514 19.7299 37.0813 21.6607 37.1057 23.6825V48.1234C39.398 49.7495 41.109 52.0523 41.9926 54.7004C42.8762 57.3486 42.8867 60.2055 42.0226 62.8599C41.1586 65.5144 39.4646 67.8294 37.1844 69.4719C34.9041 71.1144 32.1554 71.9995 29.3337 72ZM29.3337 18.1875C27.8589 18.1884 26.4447 18.7675 25.4016 19.7977C24.3584 20.8279 23.7716 22.2251 23.7698 23.6825V48.7031C23.77 48.8851 23.7242 49.0642 23.6366 49.2242C23.5491 49.3842 23.4225 49.5202 23.2684 49.6197C21.7228 50.6113 20.4514 51.9676 19.5689 53.5663C18.6864 55.1649 18.2206 56.9555 18.2136 58.7766C18.1871 64.7812 23.1035 69.7272 29.171 69.8125H29.3315C31.7283 69.8123 34.0608 69.0468 35.9815 67.6299C37.9021 66.2131 39.308 64.2208 39.9896 61.9501C40.6711 59.6793 40.5919 57.2518 39.7636 55.0292C38.9354 52.8066 37.4025 50.908 35.3935 49.6164C35.2392 49.517 35.1124 49.3811 35.0246 49.2211C34.9369 49.061 34.8909 48.8819 34.891 48.6998V23.6825C34.8892 22.2259 34.303 20.8294 33.2608 19.7993C32.2186 18.7691 30.8055 18.1895 29.3315 18.1875H29.3337Z" fill="white"/>
<path d="M29.3337 67.6064C29.2618 67.6064 29.1888 67.6064 29.1124 67.6064C27.0686 67.5583 25.1041 66.8152 23.5501 65.5023C21.9962 64.1895 20.9479 62.3873 20.5821 60.3997C20.2162 58.412 20.5551 56.3605 21.5417 54.591C22.5282 52.8215 24.1021 51.4424 25.9978 50.6861V41.2547C25.9978 40.8226 26.0839 40.3948 26.2513 39.9957C26.4186 39.5965 26.6638 39.2338 26.973 38.9283C27.2821 38.6228 27.6491 38.3805 28.053 38.2151C28.457 38.0498 28.8899 37.9647 29.3271 37.9647C29.7643 37.9647 30.1972 38.0498 30.6012 38.2151C31.0051 38.3805 31.3721 38.6228 31.6813 38.9283C31.9904 39.2338 32.2356 39.5965 32.403 39.9957C32.5703 40.3948 32.6564 40.8226 32.6564 41.2547V50.685C34.1461 51.2823 35.4459 52.2645 36.4195 53.5287C37.4164 54.8315 38.0258 56.3832 38.1792 58.0094C38.3327 59.6357 38.0241 61.2719 37.2882 62.7344C36.5523 64.1968 35.4182 65.4274 34.0134 66.2879C32.6086 67.1484 30.9887 67.6046 29.336 67.6053L29.3337 67.6064ZM29.3337 40.1533C29.0378 40.1539 28.7542 40.2703 28.5451 40.4772C28.336 40.6841 28.2184 40.9645 28.2181 41.2569V51.4605C28.218 51.696 28.1409 51.9253 27.9983 52.1141C27.8557 52.3029 27.6552 52.4411 27.4267 52.5083C25.8911 52.9609 24.5716 53.9447 23.7095 55.2796C22.8474 56.6146 22.5004 58.2116 22.7319 59.7786C22.9633 61.3456 23.7578 62.7779 24.97 63.8137C26.1822 64.8495 27.7312 65.4195 29.3337 65.4195C30.9363 65.4195 32.4853 64.8495 33.6975 63.8137C34.9097 62.7779 35.7042 61.3456 35.9356 59.7786C36.1671 58.2116 35.82 56.6146 34.958 55.2796C34.0959 53.9447 32.7764 52.9609 31.2408 52.5083C31.0123 52.4411 30.8118 52.3029 30.6692 52.1141C30.5266 51.9253 30.4495 51.696 30.4494 51.4605V41.2547C30.4491 40.9619 30.3312 40.6812 30.1216 40.4743C29.912 40.2673 29.6278 40.1511 29.3315 40.1511L29.3337 40.1533ZM52.6686 43.4466C50.0318 43.4466 47.4543 42.6739 45.262 41.2263C43.0696 39.7787 41.3609 37.7212 40.3519 35.3139C39.3428 32.9066 39.0788 30.2577 39.5932 27.7022C40.1076 25.1466 41.3773 22.7992 43.2418 20.9568C45.1062 19.1143 47.4817 17.8596 50.0677 17.3513C52.6538 16.8429 55.3343 17.1038 57.7703 18.1009C60.2063 19.0981 62.2884 20.7866 63.7533 22.9531C65.2182 25.1196 66 27.6667 66 30.2723C65.9959 33.7651 64.5901 37.1137 62.0908 39.5834C59.5916 42.0532 56.203 43.4425 52.6686 43.4466ZM52.6686 19.2856C50.4696 19.2856 48.3201 19.93 46.4918 21.1372C44.6635 22.3445 43.2385 24.0603 42.397 26.0679C41.5555 28.0755 41.3353 30.2845 41.7643 32.4157C42.1933 34.547 43.2522 36.5046 44.807 38.0411C46.3619 39.5776 48.3429 40.624 50.4996 41.048C52.6562 41.4719 54.8917 41.2543 56.9232 40.4227C58.9547 39.5912 60.6911 38.183 61.9127 36.3762C63.1344 34.5695 63.7864 32.4453 63.7864 30.2723C63.7844 27.3587 62.6125 24.5649 60.5281 22.5042C58.4436 20.4436 55.617 19.2844 52.6686 19.2812V19.2856Z" fill="white"/>
<path d="M52.6689 33.5624C52.0104 33.5622 51.3669 33.3691 50.8195 33.0074C50.2722 32.6458 49.8456 32.1319 49.5938 31.5307C49.342 30.9295 49.2762 30.268 49.4048 29.6299C49.5334 28.9918 49.8506 28.4057 50.3162 27.9457C50.7819 27.4857 51.3751 27.1724 52.0209 27.0456C52.6667 26.9187 53.336 26.9839 53.9443 27.233C54.5526 27.482 55.0725 27.9037 55.4382 28.4447C55.804 28.9857 55.9993 29.6218 55.9993 30.2724C55.9981 31.1448 55.6468 31.9811 55.0224 32.5979C54.3981 33.2147 53.5517 33.5616 52.6689 33.5624ZM52.6689 29.1699C52.4483 29.1701 52.2327 29.235 52.0493 29.3563C51.866 29.4775 51.7232 29.6498 51.6389 29.8513C51.5546 30.0527 51.5327 30.2744 51.5759 30.4882C51.6191 30.702 51.7254 30.8983 51.8815 31.0524C52.0375 31.2065 52.2363 31.3114 52.4527 31.3538C52.6691 31.3963 52.8934 31.3744 53.0972 31.2909C53.301 31.2074 53.4751 31.0661 53.5977 30.8848C53.7202 30.7035 53.7856 30.4904 53.7856 30.2724C53.7851 29.98 53.6672 29.6998 53.4578 29.4931C53.2485 29.2864 52.9648 29.1702 52.6689 29.1699Z" fill="white"/>
<path d="M52.6682 29.1699C52.3747 29.1699 52.0931 29.0547 51.8856 28.8496C51.678 28.6445 51.5614 28.3663 51.5614 28.0762V22.5845C51.5614 22.2944 51.678 22.0162 51.8856 21.8111C52.0931 21.606 52.3747 21.4907 52.6682 21.4907C52.9618 21.4907 53.2433 21.606 53.4508 21.8111C53.6584 22.0162 53.775 22.2944 53.775 22.5845V28.0762C53.775 28.3663 53.6584 28.6445 53.4508 28.8496C53.2433 29.0547 52.9618 29.1699 52.6682 29.1699Z" fill="white"/>
<path d="M52.6682 26.9736C52.3747 26.9736 52.0933 26.8583 51.8857 26.6532L49.6633 24.4569C49.4556 24.2518 49.3388 23.9736 49.3387 23.6835C49.3386 23.3933 49.4552 23.115 49.6627 22.9098C49.8702 22.7046 50.1518 22.5892 50.4454 22.5891C50.739 22.589 51.0206 22.7042 51.2283 22.9093L52.6671 24.3311L54.106 22.9093C54.3137 22.7042 54.5953 22.589 54.8889 22.5891C55.1825 22.5892 55.464 22.7046 55.6716 22.9098C55.8791 23.115 55.9956 23.3933 55.9955 23.6835C55.9954 23.9736 55.8787 24.2518 55.671 24.4569L53.4519 26.6532C53.349 26.7549 53.2268 26.8355 53.0923 26.8905C52.9579 26.9455 52.8138 26.9737 52.6682 26.9736ZM60.448 31.3661H54.8918C54.5983 31.3661 54.3168 31.2509 54.1092 31.0458C53.9016 30.8407 53.785 30.5625 53.785 30.2724C53.785 29.9823 53.9016 29.7041 54.1092 29.499C54.3168 29.2939 54.5983 29.1786 54.8918 29.1786H60.448C60.7415 29.1786 61.0231 29.2939 61.2306 29.499C61.4382 29.7041 61.5548 29.9823 61.5548 30.2724C61.5548 30.5625 61.4382 30.8407 61.2306 31.0458C61.0231 31.2509 60.7415 31.3661 60.448 31.3661Z" fill="white"/>
<path d="M59.3367 33.5624C59.0432 33.5624 58.7617 33.4471 58.5542 33.242L56.3317 31.0457C56.1242 30.8406 56.0077 30.5625 56.0077 30.2724C56.0077 29.9824 56.1242 29.7043 56.3317 29.4992L58.5542 27.3029C58.6563 27.1984 58.7784 27.1151 58.9135 27.0578C59.0485 27.0005 59.1937 26.9703 59.3407 26.969C59.4877 26.9678 59.6334 26.9954 59.7694 27.0504C59.9055 27.1054 60.029 27.1867 60.133 27.2893C60.2369 27.392 60.3191 27.5142 60.3747 27.6486C60.4304 27.783 60.4584 27.927 60.4571 28.0722C60.4558 28.2175 60.4253 28.361 60.3673 28.4944C60.3093 28.6279 60.2249 28.7486 60.1192 28.8495L58.6804 30.2713L60.1192 31.6932C60.274 31.8462 60.3794 32.041 60.422 32.2532C60.4647 32.4653 60.4428 32.6852 60.3591 32.885C60.2753 33.0849 60.1335 33.2557 59.9515 33.3758C59.7695 33.496 59.5556 33.5602 59.3367 33.5602V33.5624ZM52.6682 39.0531C52.3747 39.0531 52.0931 38.9378 51.8856 38.7327C51.678 38.5276 51.5614 38.2494 51.5614 37.9593V32.4687C51.5614 32.1786 51.678 31.9004 51.8856 31.6953C52.0931 31.4902 52.3747 31.3749 52.6682 31.3749C52.9618 31.3749 53.2433 31.4902 53.4508 31.6953C53.6584 31.9004 53.775 32.1786 53.775 32.4687V37.9593C53.775 38.2494 53.6584 38.5276 53.4508 38.7327C53.2433 38.9378 52.9618 39.0531 52.6682 39.0531Z" fill="white"/>
<path d="M54.8924 37.955C54.747 37.9553 54.6029 37.9272 54.4686 37.8722C54.3343 37.8172 54.2123 37.7364 54.1098 37.6345L52.671 36.2126L51.2322 37.6345C51.0234 37.8337 50.7438 37.944 50.4536 37.9415C50.1634 37.939 49.8858 37.824 49.6806 37.6212C49.4754 37.4184 49.359 37.1441 49.3565 36.8573C49.354 36.5705 49.4655 36.2942 49.6671 36.0879L51.8896 33.8917C51.9924 33.79 52.1145 33.7093 52.2488 33.6543C52.3832 33.5992 52.5272 33.5709 52.6727 33.5709C52.8181 33.5709 52.9621 33.5992 53.0965 33.6543C53.2309 33.7093 53.3529 33.79 53.4557 33.8917L55.6782 36.0879C55.8329 36.2409 55.9383 36.4358 55.981 36.6479C56.0237 36.86 56.0018 37.0799 55.918 37.2797C55.8343 37.4796 55.6924 37.6504 55.5105 37.7706C55.3285 37.8907 55.1146 37.9549 54.8957 37.955H54.8924ZM50.4463 31.3662H44.8879C44.5944 31.3662 44.3129 31.251 44.1053 31.0459C43.8977 30.8407 43.7811 30.5625 43.7811 30.2725C43.7811 29.9824 43.8977 29.7042 44.1053 29.4991C44.3129 29.2939 44.5944 29.1787 44.8879 29.1787H50.4441C50.7376 29.1787 51.0192 29.2939 51.2267 29.4991C51.4343 29.7042 51.5509 29.9824 51.5509 30.2725C51.5509 30.5625 51.4343 30.8407 51.2267 31.0459C51.0192 31.251 50.7376 31.3662 50.4441 31.3662H50.4463Z" fill="white"/>
<path d="M46.0011 33.5624C45.7824 33.5621 45.5686 33.4978 45.3868 33.3775C45.205 33.2572 45.0633 33.0864 44.9797 32.8866C44.8961 32.6868 44.8743 32.4671 44.917 32.255C44.9597 32.043 45.0651 31.8482 45.2197 31.6953L46.6586 30.2734L45.2197 28.8516C45.114 28.7507 45.0297 28.63 44.9717 28.4965C44.9137 28.3631 44.8832 28.2196 44.8819 28.0744C44.8806 27.9291 44.9086 27.7851 44.9643 27.6507C45.0199 27.5163 45.1021 27.3941 45.206 27.2915C45.3099 27.1888 45.4335 27.1075 45.5695 27.0525C45.7056 26.9976 45.8513 26.9699 45.9983 26.9711C46.1452 26.9724 46.2905 27.0026 46.4255 27.0599C46.5605 27.1172 46.6827 27.2005 46.7848 27.305L49.0072 29.5013C49.2147 29.7064 49.3313 29.9845 49.3313 30.2745C49.3313 30.5646 49.2147 30.8427 49.0072 31.0478L46.7848 33.2441C46.6817 33.3454 46.5594 33.4256 46.425 33.4802C46.2905 33.5349 46.1465 33.5628 46.0011 33.5624Z" fill="white"/>
</g>
<defs>
<clipPath id="clip0_21_326">
<rect width="50" height="56" fill="white" transform="translate(16 16)"/>
</clipPath>
</defs>
</svg>
