<svg width="80" height="80" viewBox="0 0 80 80" fill="none" xmlns="http://www.w3.org/2000/svg">
<rect width="80" height="80" rx="24" fill="#FB5D3A"/>
<g clip-path="url(#clip0_21_350)">
<path fill-rule="evenodd" clip-rule="evenodd" d="M43.135 29.2725L41.3916 40.3515L39.6482 35.3182L34.418 36.3305L43.135 29.2725Z" stroke="white" stroke-width="1.5" stroke-linecap="round" stroke-linejoin="round"/>
<path d="M39.3957 59.079C38.1584 57.0825 36.7525 54.9173 35.3184 52.6958C32.6234 48.7397 30.1179 44.6578 27.8105 40.4639C26.4802 37.8926 26.0083 34.9629 26.4637 32.104C26.9191 29.2451 28.2779 26.6071 30.3412 24.5763C32.2416 22.6447 34.6754 21.3244 37.3308 20.7844C39.9861 20.2445 42.7423 20.5094 45.2461 21.5454C47.75 22.5814 49.8876 24.3412 51.3852 26.5995C52.8828 28.8578 53.6722 31.5117 53.6523 34.2213C53.6525 36.3601 53.1517 38.4691 52.1901 40.3795C50.278 44.1475 47.4098 48.5623 44.6541 52.7521C43.1918 55.0016 41.7577 57.1668 40.6048 59.079L39.9862 60.0632L39.3957 59.079ZM36.4994 51.9366C37.7085 53.8206 38.9177 55.6484 39.9862 57.3918C41.0829 55.6765 42.2358 53.8487 43.473 51.9929C46.2006 47.8312 49.0969 43.4164 50.9247 39.7327C52.1033 37.4377 52.5206 34.827 52.1162 32.279C51.7117 29.7309 50.5065 27.3778 48.6751 25.5605C46.9714 23.8214 44.7864 22.6316 42.401 22.1441C40.0157 21.6566 37.539 21.8938 35.2895 22.825C33.04 23.7562 31.1205 25.339 29.7777 27.3699C28.4349 29.4007 27.7302 31.7868 27.7542 34.2213C27.7503 36.1766 28.213 38.1047 29.104 39.8452C31.0161 43.5008 33.7999 47.8312 36.4994 51.9366Z" fill="white"/>
<path d="M39.9859 43.3041C45.0021 43.3041 49.0685 39.2376 49.0685 34.2215C49.0685 29.2053 45.0021 25.1389 39.9859 25.1389C34.9697 25.1389 30.9033 29.2053 30.9033 34.2215C30.9033 39.2376 34.9697 43.3041 39.9859 43.3041Z" stroke="white" stroke-width="2"/>
</g>
<defs>
<clipPath id="clip0_21_350">
<rect width="48" height="48" fill="white" transform="translate(16 16)"/>
</clipPath>
</defs>
</svg>
