<svg width="80" height="80" viewBox="0 0 80 80" fill="none" xmlns="http://www.w3.org/2000/svg">
<rect width="80" height="80" rx="24" fill="#FB5D3A"/>
<path d="M52.2521 44.5378C48.9158 44.5378 46.2017 47.2519 46.2017 50.5882C46.2017 53.9245 48.9158 56.6387 52.2521 56.6387C55.5889 56.6387 58.3025 53.9245 58.3025 50.5882C58.3025 47.2519 55.5884 44.5378 52.2521 44.5378ZM52.2521 53.6134C50.5837 53.6134 49.2269 52.2566 49.2269 50.5882C49.2269 48.9198 50.5837 47.563 52.2521 47.563C53.9205 47.563 55.2773 48.9198 55.2773 50.5882C55.2773 52.2567 53.9205 53.6134 52.2521 53.6134ZM31.5799 44.5378C28.2436 44.5378 25.5294 47.2519 25.5294 50.5882C25.5294 53.9245 28.2436 56.6387 31.5799 56.6387C34.9161 56.6387 37.6303 53.9245 37.6303 50.5882C37.6303 47.2519 34.9161 44.5378 31.5799 44.5378ZM31.5799 53.6134C29.9115 53.6134 28.5546 52.2566 28.5546 50.5882C28.5546 48.9198 29.9115 47.563 31.5799 47.563C33.2478 47.563 34.6051 48.9198 34.6051 50.5882C34.6051 52.2567 33.2482 53.6134 31.5799 53.6134ZM56.3266 27.2195C56.2005 26.9691 56.0074 26.7586 55.7687 26.6115C55.53 26.4645 55.2552 26.3866 54.9748 26.3866H47.0084V29.4118H54.042L58.1608 37.604L60.8644 36.2447L56.3266 27.2195Z" fill="white"/>
<path d="M36.2689 49.1261H47.7143V52.1513H36.2689V49.1261ZM27.042 49.1261H21.7983C20.9628 49.1261 20.2858 49.8033 20.2858 50.6387C20.2858 51.4742 20.9629 52.1512 21.7983 52.1512H27.0421C27.8776 52.1512 28.5546 51.4741 28.5546 50.6387C28.5546 49.8032 27.8775 49.1261 27.042 49.1261ZM63.6824 39.879L60.7071 36.047C60.5659 35.8649 60.3848 35.7174 60.1777 35.6161C59.9707 35.5147 59.7432 35.462 59.5127 35.4621H48.521V24.8739C48.521 24.0384 47.8439 23.3614 47.0085 23.3614H21.7983C20.9628 23.3614 20.2858 24.0385 20.2858 24.8739C20.2858 25.7093 20.9629 26.3865 21.7983 26.3865H45.4958V36.9747C45.4958 37.8102 46.173 38.4873 47.0084 38.4873H58.7719L60.9748 41.3249V49.1259H56.7899C55.9544 49.1259 55.2773 49.8031 55.2773 50.6385C55.2773 51.474 55.9545 52.151 56.7899 52.151H62.4873C63.3228 52.151 63.9999 51.4739 64 50.6385V40.8067C64 40.4709 63.8881 40.1442 63.6824 39.879ZM26.9412 41.4622H19.9832C19.1477 41.4622 18.4706 42.1394 18.4706 42.9748C18.4706 43.8103 19.1477 44.4874 19.9832 44.4874H26.9411C27.7766 44.4874 28.4537 43.8102 28.4537 42.9748C28.4538 42.1394 27.7766 41.4622 26.9412 41.4622ZM30.4202 35.5126H17.5126C16.6772 35.5126 16 36.1897 16 37.0252C16 37.8607 16.6772 38.5378 17.5126 38.5378H30.4202C31.2557 38.5378 31.9327 37.8606 31.9327 37.0252C31.9327 36.1898 31.2557 35.5126 30.4202 35.5126Z" fill="white"/>
<path d="M32.8907 29.563H19.9831C19.1476 29.563 18.4706 30.2401 18.4706 31.0756C18.4706 31.9111 19.1477 32.5881 19.9831 32.5881H32.8907C33.7262 32.5881 34.4033 31.911 34.4033 31.0756C34.4034 30.2401 33.7262 29.563 32.8907 29.563Z" fill="white"/>
</svg>
