<svg width="29" height="29" viewBox="0 0 29 29" fill="none" xmlns="http://www.w3.org/2000/svg">
<g clip-path="url(#clip0_0_457)">
<path fill-rule="evenodd" clip-rule="evenodd" d="M28.1321 14.1297C28.1321 6.55451 22.029 0.41394 14.5015 0.41394C6.97064 0.415644 0.867554 6.55451 0.867554 14.1314C0.867554 20.9757 5.85293 26.6494 12.3683 27.6785V18.0945H8.90959V14.1314H12.3717V11.1071C12.3717 7.67051 14.4078 5.77246 17.5207 5.77246C19.0132 5.77246 20.5722 6.03996 20.5722 6.03996V9.41352H18.8531C17.1612 9.41352 16.633 10.4716 16.633 11.5569V14.1297H20.4121L19.8089 18.0928H16.6313V27.6768C23.1467 26.6477 28.1321 20.9739 28.1321 14.1297Z" fill="#FB5D3A"/>
</g>
<defs>
<clipPath id="clip0_0_457">
<rect width="28.45" height="28.45" fill="white" transform="translate(0.274841 0.41394)"/>
</clipPath>
</defs>
</svg>
