<svg width="27" height="23" viewBox="0 0 27 23" fill="none" xmlns="http://www.w3.org/2000/svg">
<path d="M8.56155 22.3077C18.4032 22.3077 23.7869 14.0965 23.7869 6.9882C23.7869 6.75842 23.7869 6.52536 23.7771 6.29559C24.8252 5.53156 25.7299 4.58565 26.4486 3.50217C25.4695 3.93686 24.4319 4.22335 23.3696 4.35234C24.4886 3.67883 25.3267 2.61912 25.7281 1.37018C24.6768 1.99734 23.5261 2.43761 22.3264 2.67169C21.5199 1.80679 20.4527 1.23382 19.29 1.04153C18.1273 0.849239 16.9341 1.04836 15.8952 1.60806C14.8563 2.16775 14.0297 3.05678 13.5434 4.13743C13.0571 5.21809 12.9382 6.43006 13.2053 7.58561C11.0778 7.4782 8.99645 6.92167 7.0963 5.95214C5.19615 4.98261 3.51962 3.62172 2.17543 1.95775C1.49303 3.14451 1.28478 4.54831 1.59296 5.88407C1.90114 7.21983 2.70264 8.38742 3.83471 9.14973C2.98639 9.12071 2.15671 8.89133 1.41261 8.4801V8.55395C1.41407 9.79717 1.84179 11.0018 2.62345 11.9641C3.40512 12.9264 4.4928 13.5875 5.70263 13.8355C5.24341 13.9629 4.76904 14.0264 4.29272 14.0243C3.95693 14.0253 3.62181 13.994 3.29194 13.9307C3.63388 15.0009 4.29969 15.9366 5.19612 16.6067C6.09254 17.2769 7.17469 17.6479 8.29098 17.6678C6.39463 19.1676 4.05215 19.981 1.6408 19.9771C1.21591 19.9789 0.791313 19.9542 0.369446 19.9032C2.81683 21.4744 5.6591 22.3086 8.56155 22.3077Z" fill="#FB5D3A"/>
</svg>
