<svg width="93" height="94" viewBox="0 0 93 94" fill="none" xmlns="http://www.w3.org/2000/svg">
<g clip-path="url(#clip0_87_90)">
<rect x="-8.23975" y="-8.21509" width="110.526" height="110.526" rx="11.0526" fill="#FB5D3A"/>
<path d="M31.4014 8.32593V19.8757M62.2008 8.32593V19.8757M14.0768 35.6218H79.5254M81.4503 33.3504V66.0747C81.4503 77.6244 75.6755 85.3242 62.2008 85.3242H31.4014C17.9267 85.3242 12.1519 77.6244 12.1519 66.0747V33.3504C12.1519 21.8006 17.9267 14.1008 31.4014 14.1008H62.2008C75.6755 14.1008 81.4503 21.8006 81.4503 33.3504Z" stroke="white" stroke-width="5.77487" stroke-miterlimit="10" stroke-linecap="round" stroke-linejoin="round"/>
<path d="M61.0264 53.3708H61.0611M61.0264 64.9206H61.0611M46.7817 53.3708H46.8202M46.7817 64.9206H46.8202M32.5332 53.3708H32.5717M32.5332 64.9206H32.5717" stroke="white" stroke-width="7.69983" stroke-linecap="round" stroke-linejoin="round"/>
</g>
<defs>
<clipPath id="clip0_87_90">
<rect x="0.602051" y="0.627197" width="92.3979" height="92.3979" rx="8.85184" fill="white"/>
</clipPath>
</defs>
</svg>
