<svg width="91" height="91" viewBox="0 0 91 91" fill="none" xmlns="http://www.w3.org/2000/svg">
<rect x="0.826416" y="0.938354" width="89.7756" height="89.7756" rx="8.97756" fill="#FB5D3A"/>
<path d="M72.3959 76.9163C72.3959 64.8144 60.3565 55.0265 45.534 55.0265C30.7115 55.0265 18.6721 64.8144 18.6721 76.9163M45.534 45.6452C49.6808 45.6452 53.6578 43.9978 56.59 41.0656C59.5223 38.1334 61.1696 34.1564 61.1696 30.0096C61.1696 25.8628 59.5223 21.8858 56.59 18.9536C53.6578 16.0213 49.6808 14.374 45.534 14.374C41.3872 14.374 37.4102 16.0213 34.478 18.9536C31.5458 21.8858 29.8985 25.8628 29.8985 30.0096C29.8985 34.1564 31.5458 38.1334 34.478 41.0656C37.4102 43.9978 41.3872 45.6452 45.534 45.6452Z" stroke="white" stroke-width="4.69067" stroke-linecap="round" stroke-linejoin="round"/>
</svg>
