<svg width="90" height="91" viewBox="0 0 90 91" fill="none" xmlns="http://www.w3.org/2000/svg">
<rect y="0.826172" width="89.7756" height="89.7756" rx="8.97756" fill="#FB5D3A"/>
<path d="M35.3561 76.8347H54.1188C69.7543 76.8347 76.0086 70.5805 76.0086 54.945V36.1823C76.0086 20.5467 69.7543 14.2925 54.1188 14.2925H35.3561C19.7205 14.2925 13.4663 20.5467 13.4663 36.1823V54.945C13.4663 70.5805 19.7205 76.8347 35.3561 76.8347Z" stroke="white" stroke-width="4.69067" stroke-linecap="round" stroke-linejoin="round"/>
<path d="M13.4663 39.6664L32.229 39.6039C34.5743 39.6039 37.2011 41.3863 38.0767 43.5753L41.6416 52.5814C42.4546 54.614 43.7368 54.614 44.5498 52.5814L51.7109 34.4129C52.3989 32.6617 53.681 32.5992 54.5566 34.2565L57.8088 40.4169C58.7782 42.2619 61.2799 43.7629 63.3438 43.7629H76.0398" stroke="white" stroke-width="4.69067" stroke-linecap="round" stroke-linejoin="round"/>
</svg>
