<svg width="76" height="76" viewBox="0 0 76 76" fill="none" xmlns="http://www.w3.org/2000/svg">
<g clip-path="url(#clip0_87_74)">
<rect x="-6.40625" y="-6.88147" width="89.7756" height="89.7756" rx="8.97756" fill="#FB5D3A"/>
<path d="M38.301 42.2974C39.5823 42.2974 40.851 42.045 42.0347 41.5547C43.2184 41.0644 44.294 40.3457 45.2 39.4397C46.106 38.5337 46.8246 37.4582 47.3149 36.2745C47.8053 35.0907 48.0576 33.822 48.0576 32.5408C48.0576 31.2595 47.8053 29.9908 47.3149 28.8071C46.8246 27.6234 46.106 26.5478 45.2 25.6418C44.294 24.7358 43.2184 24.0172 42.0347 23.5269C40.851 23.0365 39.5823 22.7842 38.301 22.7842C35.7134 22.7842 33.2318 23.8121 31.4021 25.6418C29.5724 27.4715 28.5444 29.9532 28.5444 32.5408C28.5444 35.1284 29.5724 37.61 31.4021 39.4397C33.2318 41.2694 35.7134 42.2974 38.301 42.2974Z" stroke="white" stroke-width="4.69067"/>
<path d="M16.6245 28.6982C21.6931 6.41678 54.7036 6.44251 59.7466 28.724C62.7054 41.7944 55.6269 53.156 48.4999 60C46.0095 62.4019 41.9599 67 38.4999 67C35.04 67 30.4904 62.4019 28 60C20.8988 53.156 13.6657 41.7686 16.6245 28.6982Z" stroke="white" stroke-width="3.85937"/>
</g>
<defs>
<clipPath id="clip0_87_74">
<rect x="0.775635" y="0.300781" width="75.0507" height="75.0507" rx="7.18995" fill="white"/>
</clipPath>
</defs>
</svg>
