<svg width="120" height="120" viewBox="0 0 91 91" fill="none" xmlns="http://www.w3.org/2000/svg">
<mask id="mask0_894_60" style="mask-type:luminance" maskUnits="userSpaceOnUse" x="0" y="0" width="91" height="91">
<path d="M90.277 0H0V90.274H90.277V0Z" fill="white"/>
</mask>
<g mask="url(#mask0_894_60)">
<path d="M59.9439 6.13188L71.7129 17.9019C71.9509 18.3269 72.1759 18.7649 72.3949 19.2019C72.3958 19.2116 72.4005 19.2206 72.4079 19.2269C72.4139 19.2329 72.4139 19.2329 72.4139 19.2459C75.0153 24.4843 76.3486 30.2609 76.3062 36.1095C76.2638 41.9581 74.847 47.7147 72.1699 52.9149C71.7129 53.7969 71.2249 54.6599 70.6929 55.5049C70.6884 55.516 70.6823 55.5264 70.6749 55.5359C69.1769 57.9252 67.4137 60.1375 65.4189 62.1309L65.1499 62.3999C68.1216 58.9515 70.152 54.7939 71.0443 50.3301C71.9366 45.8663 71.6606 41.2476 70.2429 36.9219L70.2369 36.9159C69.0481 33.2746 67.0805 29.936 64.4709 27.132C61.8614 24.328 58.6725 22.1259 55.1259 20.6789C54.3439 20.1719 53.5429 19.6959 52.7259 19.2579C52.3879 19.0709 52.0259 18.8889 51.6809 18.7139C51.4679 18.6009 51.2489 18.4949 51.0359 18.3949C50.7799 18.2759 50.5229 18.1449 50.2539 18.0379C50.0729 17.9569 49.8849 17.8689 49.6909 17.7879C49.3409 17.6379 48.9779 17.4879 48.6149 17.3369C48.2079 17.1809 47.8079 17.0179 47.3949 16.8809C47.1689 16.8059 46.9569 16.7299 46.7249 16.6619C46.5189 16.5799 46.2869 16.5109 46.0679 16.4429C45.8489 16.3749 45.6109 16.2989 45.3739 16.2359C45.0359 16.1239 44.6919 16.0419 44.3539 15.9549C43.8909 15.8289 43.4219 15.7229 42.9589 15.6099C42.9339 15.6229 42.9269 15.6169 42.9019 15.6039C42.4199 15.4979 41.9319 15.3979 41.4509 15.3289C40.9689 15.2349 40.4749 15.1539 39.9799 15.0969C39.4849 15.0399 39.0039 14.9599 38.5039 14.9219C38.4701 14.9267 38.4356 14.9226 38.4039 14.9099C37.9479 14.8659 37.4969 14.8279 37.0339 14.8159C36.5399 14.7849 36.0579 14.7659 35.5579 14.7659C35.0629 14.7469 34.5749 14.7469 34.0679 14.7659C33.6119 14.7719 33.1419 14.7909 32.6679 14.8279H32.5939C32.3499 14.8469 32.0989 14.8599 31.8619 14.8849C31.6049 14.9029 31.3549 14.9289 31.1109 14.9599C30.6289 15.0039 30.1289 15.0659 29.6399 15.1409C29.3839 15.1729 29.1269 15.2039 28.8769 15.2539C28.6269 15.3039 28.3699 15.3479 28.1199 15.3849C28.0139 15.4039 27.9139 15.4289 27.8069 15.4479C27.3569 15.5349 26.8939 15.6359 26.4369 15.7419C25.9049 15.8609 25.3789 15.9979 24.8539 16.1489C24.6469 16.2049 24.4469 16.2549 24.2469 16.3299C24.0399 16.3859 23.8529 16.4489 23.6469 16.5179C23.4493 16.5712 23.255 16.636 23.0649 16.7119C22.6209 16.8559 22.1709 17.0179 21.7259 17.1869C21.5949 17.2309 21.4569 17.2809 21.3259 17.3369C21.0069 17.4559 20.6999 17.5999 20.3809 17.7369C20.3173 17.7559 20.2565 17.7831 20.1999 17.8179C19.9739 17.9049 19.7549 17.9989 19.5359 18.1059C19.3169 18.2129 19.1239 18.2929 18.9109 18.4059L18.8939 18.4049H18.8809C18.6749 18.4989 18.4689 18.6049 18.2559 18.7179C17.8989 18.8869 17.5559 19.0809 17.2109 19.2629L30.3319 6.14188C32.2743 4.19392 34.5818 2.64826 37.1224 1.59342C39.6629 0.538581 42.3866 -0.00472028 45.1375 -0.00537051C47.8883 -0.00602074 50.6123 0.535999 53.1534 1.58964C55.6944 2.64328 58.0027 4.18784 59.9459 6.13487L59.9439 6.13188Z" fill="url(#paint0_linear_894_60)"/>
<path d="M71.7127 17.9048L84.1397 30.3308C86.0886 32.2735 87.6349 34.5818 88.69 37.1233C89.7451 39.6648 90.2882 42.3895 90.2882 45.1413C90.2882 47.8931 89.7451 50.6178 88.69 53.1593C87.6349 55.7008 86.0886 58.0091 84.1397 59.9518L68.3467 75.7438C67.8337 75.9068 67.3147 76.0628 66.7887 76.2008L66.7827 76.2068C66.7697 76.2068 66.7697 76.2068 66.7637 76.2138C65.3188 76.6007 63.8522 76.9013 62.3717 77.1138C54.452 78.2656 46.372 76.8301 39.3337 73.0208C37.7461 72.1672 36.2255 71.1948 34.7847 70.1118L34.7717 70.0988C34.0897 69.5928 33.4137 69.0548 32.7637 68.4908C37.7591 71.137 43.4714 72.1116 49.0617 71.2716C54.6519 70.4316 59.8255 67.8212 63.8227 63.8238C64.2927 63.3538 64.7367 62.8848 65.1497 62.3968L65.4187 62.1278C67.4135 60.1344 69.1767 57.9221 70.6747 55.5328C70.682 55.5233 70.6881 55.5129 70.6927 55.5018C71.2247 54.6568 71.7127 53.7938 72.1697 52.9118C74.8467 47.7117 76.2636 41.955 76.306 36.1064C76.3484 30.2578 75.015 24.4812 72.4137 19.2428C72.4137 19.2298 72.4137 19.2298 72.4077 19.2238C72.4002 19.2175 72.3955 19.2085 72.3947 19.1988C72.1757 18.7648 71.9507 18.3268 71.7127 17.9048Z" fill="url(#paint1_linear_894_60)"/>
<path d="M68.3468 75.7408L59.9468 84.1408C56.0189 88.0685 50.6916 90.2751 45.1368 90.2751C39.582 90.2751 34.2547 88.0685 30.3268 84.1408L17.5748 71.3888C17.1808 70.4948 16.8178 69.5808 16.4988 68.6608V68.6358C16.3238 68.1358 16.1608 67.6358 16.0168 67.1278C15.9228 66.8218 15.8358 66.5088 15.7418 66.2018C15.5918 65.6018 15.4418 65.0128 15.3158 64.4128C15.1908 63.8368 15.0718 63.2678 14.9718 62.6798C14.8718 62.0918 14.7968 61.5028 14.7218 60.9148C14.6468 60.3268 14.5968 59.7388 14.5528 59.1568C14.5088 58.5748 14.4778 57.9808 14.4648 57.3798C14.4518 56.7788 14.4468 56.1968 14.4648 55.6028C14.4898 54.4268 14.5718 53.2438 14.7088 52.0678C14.8408 50.9098 15.0348 49.7678 15.2718 48.6258C15.2782 48.5961 15.2869 48.5671 15.2978 48.5388C15.4158 47.9698 15.5598 47.3998 15.6978 46.8388C15.7116 46.8116 15.7201 46.7821 15.7228 46.7518L15.9478 45.9628C16.1478 45.2868 16.3608 44.6238 16.5988 43.9628C16.7048 43.6438 16.8298 43.3308 16.9488 43.0118C17.0998 42.6238 17.2558 42.2298 17.4188 41.8538C17.5748 41.4978 17.7378 41.1348 17.8998 40.7718L17.9068 40.7528C18.0128 40.5338 18.1188 40.3028 18.2258 40.0838C18.3818 39.7768 18.5448 39.4518 18.7138 39.1448C18.8191 38.9179 18.9359 38.6966 19.0638 38.4818C19.3578 37.9498 19.6638 37.4178 19.9898 36.9048C19.9866 36.9571 19.9802 37.0092 19.9708 37.0608C19.0161 40.0592 18.601 43.2033 18.7448 46.3468C18.9551 50.9383 20.3582 55.3957 22.816 59.2797C25.2738 63.1637 28.7014 66.3401 32.7608 68.4958C33.4108 69.0598 34.0868 69.5958 34.7688 70.1038L34.7818 70.1168C36.2226 71.1998 37.7433 72.1722 39.3308 73.0258C46.3691 76.8351 54.4491 78.2706 62.3688 77.1188C63.8494 76.9063 65.316 76.6057 66.7608 76.2188C66.7668 76.2118 66.7668 76.2118 66.7798 76.2118L66.7858 76.2058C67.3148 76.0598 67.8338 75.9048 68.3468 75.7408Z" fill="url(#paint2_linear_894_60)"/>
<path d="M55.0376 20.6239C54.2876 20.1359 53.5116 19.6729 52.7296 19.2529C52.4726 19.1089 52.1916 18.9649 51.9226 18.8339C51.8096 18.7719 51.7286 18.7279 51.6846 18.7089C51.4716 18.5959 51.2526 18.4899 51.0396 18.3899C50.7836 18.2709 50.5266 18.1399 50.2576 18.0329C50.0766 17.9519 49.8886 17.8639 49.6946 17.7829C49.3446 17.6329 48.9816 17.4829 48.6186 17.3319C48.2116 17.1759 47.8046 17.0199 47.3986 16.8759C47.1726 16.8009 46.9606 16.7249 46.7286 16.6569C46.5166 16.5819 46.2906 16.5059 46.0716 16.4379C45.8526 16.3699 45.6146 16.2939 45.3776 16.2309C45.0396 16.1189 44.6956 16.0369 44.3576 15.9499C43.8946 15.8239 43.4256 15.7179 42.9626 15.6049C42.9376 15.6179 42.9306 15.6119 42.9056 15.5989C42.4176 15.4989 41.9356 15.4049 41.4546 15.3239C40.9736 15.2429 40.4786 15.1609 39.9836 15.0919C39.4886 15.0229 39.0076 14.9669 38.5076 14.9169C38.4738 14.9218 38.4393 14.9176 38.4076 14.9049C37.9446 14.8669 37.4946 14.8299 37.0376 14.8109C36.5376 14.7859 36.0556 14.7669 35.5616 14.7609C35.0676 14.7549 34.5786 14.7419 34.0716 14.7609C33.6156 14.7669 33.1456 14.7859 32.6716 14.8229H32.5936C32.3496 14.8419 32.0986 14.8549 31.8616 14.8799L31.1106 14.9549C30.6286 14.9989 30.1286 15.0609 29.6396 15.1359C29.3896 15.1739 29.1336 15.2179 28.8766 15.2489C28.6196 15.2799 28.3696 15.3429 28.1196 15.3799C28.0136 15.3989 27.9136 15.4239 27.8066 15.4429C27.3566 15.5299 26.8936 15.6309 26.4366 15.7369C25.9046 15.8559 25.3786 15.9929 24.8536 16.1439C24.6466 16.1999 24.4466 16.2499 24.2466 16.3249C24.0396 16.3809 23.8526 16.4439 23.6466 16.5129C23.4491 16.5663 23.2547 16.6311 23.0646 16.7069C22.6206 16.8509 22.1766 17.0069 21.7256 17.1819C21.5946 17.2259 21.4566 17.2759 21.3256 17.3319C21.0006 17.4579 20.6876 17.5829 20.3806 17.7319C20.3171 17.7509 20.2562 17.7782 20.1996 17.8129C19.9736 17.8999 19.7546 17.9939 19.5356 18.1009C19.3166 18.2079 19.1236 18.2879 18.9106 18.4009L18.8936 18.4049H18.8806C18.6746 18.4989 18.4686 18.6049 18.2556 18.7179C17.8986 18.8869 17.5556 19.0809 17.2106 19.2629L6.14165 30.3309L6.13564 30.3369C4.19107 32.2807 2.64852 34.5886 1.59608 37.1287C0.543651 39.6688 0.00195312 42.3914 0.00195312 45.1409C0.00195312 47.8904 0.543651 50.613 1.59608 53.1531C2.64852 55.6932 4.19107 58.0011 6.13564 59.9449L17.5796 71.3889C17.1796 70.4759 16.8166 69.5499 16.4976 68.6169C16.1156 67.5229 15.7976 66.4169 15.5216 65.3009C15.4456 65.0129 15.3836 64.7129 15.3216 64.4129C15.1966 63.8369 15.0776 63.2679 14.9776 62.6799C14.8776 62.0919 14.7896 61.5159 14.7276 60.9149C14.6526 60.3399 14.5896 59.7509 14.5586 59.1569C14.5276 58.5629 14.4776 57.9739 14.4706 57.3799C14.4456 56.7919 14.4456 56.1909 14.4706 55.6029C14.4956 54.4269 14.5706 53.2379 14.7146 52.0679C14.8457 50.9179 15.0359 49.7754 15.2846 48.6449C15.287 48.609 15.2934 48.5734 15.3036 48.5389C15.4156 47.9879 15.5406 47.4499 15.6846 46.9059C16.1479 45.1826 16.7292 43.4933 17.4246 41.8499C17.5806 41.4939 17.7436 41.1309 17.9056 40.7679L17.9126 40.7489C18.0186 40.5299 18.1246 40.2989 18.2316 40.0799C18.2542 40.0464 18.273 40.0105 18.2876 39.9729C18.4256 39.6849 18.5756 39.4099 18.7196 39.1409C18.8249 38.9141 18.9417 38.6928 19.0696 38.4779C19.3636 37.9459 19.6696 37.4139 19.9956 36.9009C19.9836 36.9509 19.9896 37.0069 19.9766 37.0569C20.0086 36.9509 20.0456 36.8639 20.0706 36.7629L20.0896 36.7449C21.3741 32.8624 23.5538 29.3364 26.4526 26.4519C31.1737 21.7199 37.5172 18.9598 44.1976 18.7309C44.229 18.7259 44.2611 18.728 44.2916 18.7369C46.3615 18.6678 48.4323 18.8444 50.4606 19.2629H50.4736C50.8236 19.3379 51.1736 19.4129 51.5246 19.4999C52.7513 19.8056 53.9544 20.1989 55.1246 20.6769C55.0946 20.661 55.0655 20.6433 55.0376 20.6239Z" fill="url(#paint3_linear_894_60)"/>
<g style="mix-blend-mode:multiply" opacity="0.08">
<path d="M60.5127 6.70483L71.7127 17.9048C75.6034 24.9611 77.0935 33.0915 75.9582 41.0689C74.8228 49.0464 71.1236 56.4382 65.4187 62.1288L65.1497 62.3978C68.1214 58.9495 70.1518 54.7919 71.0441 50.3281C71.9364 45.8642 71.6604 41.2456 70.2427 36.9198C70.2427 36.9068 70.2367 36.9138 70.2367 36.9138C69.6667 28.5818 67.0137 18.4838 60.5127 6.70483Z" fill="black"/>
</g>
<g style="mix-blend-mode:multiply" opacity="0.08">
<path d="M75.6357 68.4519L68.3467 75.7409C62.2903 77.6745 55.8393 78.0232 49.6098 76.7536C43.3803 75.4839 37.5803 72.6385 32.7637 68.4889C36.8338 70.6469 41.3986 71.6999 46.0027 71.5429C55.9785 73.1969 66.2159 72.1291 75.6357 68.4519Z" fill="black"/>
</g>
<g style="mix-blend-mode:multiply" opacity="0.08">
<path d="M19.9937 36.8979C19.9905 36.9503 19.9841 37.0025 19.9747 37.0541C19.02 40.0525 18.6049 43.1965 18.7487 46.34C18.2297 53.6539 18.8047 63.978 22.9217 76.7299L17.5787 71.3861C16.9652 70.0019 16.4447 68.5784 16.0207 67.125C15.9267 66.819 15.8397 66.506 15.7457 66.199C15.5957 65.599 15.4457 65.0101 15.3197 64.4101C15.1947 63.8341 15.0757 63.265 14.9757 62.677C14.8757 62.089 14.8007 61.5 14.7257 60.912C14.6507 60.324 14.6007 59.736 14.5567 59.1539C14.5127 58.5719 14.4817 57.978 14.4687 57.377C14.4557 56.776 14.4507 56.194 14.4687 55.6C14.4937 54.424 14.5757 53.241 14.7127 52.065C14.8447 50.907 15.0387 49.7651 15.2757 48.6231C15.2821 48.5934 15.2908 48.5642 15.3017 48.5359C15.4197 47.9669 15.5637 47.397 15.7017 46.836C15.7155 46.8088 15.724 46.7794 15.7267 46.749L15.9517 45.9599C16.1517 45.2839 16.3647 44.6209 16.6027 43.9599C16.7087 43.6409 16.8337 43.328 16.9527 43.009C17.1037 42.621 17.2597 42.2271 17.4227 41.8511C17.6787 41.2571 17.9477 40.6619 18.2297 40.0809C18.3857 39.7739 18.5487 39.449 18.7177 39.142C18.823 38.9151 18.9398 38.6938 19.0677 38.479C19.3607 37.943 19.6677 37.4109 19.9937 36.8979Z" fill="black"/>
</g>
<g style="mix-blend-mode:multiply" opacity="0.08">
<path d="M55.1255 20.6739C53.9553 20.196 52.7522 19.8026 51.5255 19.4969C51.1869 19.3728 50.8337 19.2931 50.4745 19.2599H50.4615C48.4332 18.8414 46.3624 18.6648 44.2925 18.7339C44.262 18.725 44.2299 18.723 44.1985 18.7279C35.7835 18.5089 22.7816 20.511 6.14355 30.328L17.2126 19.2599C17.5566 19.0779 17.9006 18.8839 18.2576 18.7149C18.4706 18.6029 18.6766 18.4959 18.8826 18.4019C18.8896 18.3959 18.9076 18.4019 18.9146 18.3959C19.1276 18.2829 19.3336 18.1899 19.5396 18.0959C19.7456 18.0019 19.9776 17.896 20.2036 17.808C20.2601 17.7732 20.321 17.746 20.3846 17.727C20.6916 17.583 21.0045 17.4579 21.3295 17.3269C21.4605 17.2709 21.5986 17.221 21.7296 17.177C22.1806 17.002 22.6245 16.8459 23.0685 16.7019C23.2586 16.6261 23.453 16.5613 23.6505 16.5079C23.8575 16.4389 24.0445 16.3759 24.2505 16.3199C24.4506 16.2449 24.6505 16.1949 24.8575 16.1389C25.3825 15.9879 25.9086 15.8509 26.4406 15.7319C26.8976 15.6259 27.3605 15.525 27.8105 15.438C27.9175 15.419 28.0175 15.394 28.1236 15.375C28.3736 15.338 28.6236 15.288 28.8806 15.244C29.1376 15.2 29.3936 15.1689 29.6436 15.1309C30.1326 15.0559 30.6325 14.9939 31.1145 14.9499L31.8656 14.875C32.1026 14.85 32.3535 14.8369 32.5975 14.8179H32.6725C33.1475 14.7809 33.6176 14.7619 34.0726 14.7559C34.5796 14.7369 35.0725 14.7369 35.5625 14.7559C36.0525 14.7749 36.5385 14.781 37.0385 14.806C37.4955 14.825 37.9456 14.8619 38.4086 14.8999C38.4403 14.9127 38.4747 14.9168 38.5085 14.912C39.0085 14.962 39.4965 15.025 39.9845 15.087C40.4725 15.149 40.9676 15.231 41.4556 15.319C41.9436 15.407 42.4186 15.4939 42.9066 15.5939C42.9316 15.6069 42.9385 15.613 42.9635 15.6C43.4265 15.713 43.8955 15.8189 44.3586 15.9449C44.6966 16.0319 45.0406 16.114 45.3786 16.226C45.6156 16.289 45.8416 16.364 46.0726 16.433C46.3036 16.502 46.5176 16.5769 46.7296 16.6519C46.9616 16.7199 47.1735 16.796 47.3996 16.871C47.8055 17.015 48.2126 17.1709 48.6196 17.3269C48.9826 17.4779 49.3455 17.627 49.6955 17.778C49.8895 17.859 50.0775 17.947 50.2585 18.028C50.5275 18.135 50.7845 18.2659 51.0405 18.3849C51.2535 18.4849 51.4725 18.5909 51.6855 18.7039C51.7295 18.7229 51.8106 18.7669 51.9236 18.8289L52.6555 19.248C53.5125 19.743 54.6635 20.406 55.0385 20.619C55.0664 20.6391 55.0954 20.6574 55.1255 20.6739Z" fill="black"/>
</g>
<g style="mix-blend-mode:multiply" opacity="0.25">
<path d="M66.7822 76.2049C66.7692 76.2049 66.7692 76.2049 66.7632 76.2119C65.3184 76.5988 63.8518 76.8993 62.3712 77.1119C54.4515 78.2637 46.3715 76.8282 39.3332 73.0189C37.7456 72.1653 36.225 71.1929 34.7842 70.1099C34.8782 70.1539 35.3222 70.4099 36.0482 70.7979C36.8552 71.2419 38.0252 71.8489 39.4392 72.4979C40.1652 72.8109 40.9282 73.1609 41.7542 73.4869C42.1672 73.6619 42.5992 73.8179 43.0432 73.9749C43.4872 74.1319 43.9192 74.2999 44.3822 74.4499C45.3022 74.7689 46.2652 75.0319 47.2412 75.2949C48.2172 75.5579 49.2312 75.7829 50.2412 75.9639C51.2492 76.1709 52.2692 76.3269 53.2762 76.4459C54.2832 76.5649 55.2762 76.6589 56.2482 76.7029C57.2202 76.7469 58.1482 76.7839 59.0392 76.7779C59.9302 76.7719 60.7532 76.7529 61.5542 76.7029C62.3552 76.6529 63.0432 76.6149 63.6942 76.5529C64.3452 76.4909 64.8832 76.4269 65.3462 76.3769C66.2002 76.2729 66.7192 76.2049 66.7822 76.2049Z" fill="black"/>
</g>
<g style="mix-blend-mode:multiply" opacity="0.25">
<path d="M72.4134 19.241C75.0148 24.4793 76.3481 30.256 76.3057 36.1046C76.2633 41.9531 74.8464 47.7098 72.1694 52.91C71.7124 53.792 71.2244 54.655 70.6924 55.5C70.7364 55.368 70.9614 54.843 71.3314 54.023C71.5254 53.554 71.8504 52.966 72.0754 52.328C72.3194 51.646 72.6754 50.882 72.9324 50.056C73.0704 49.643 73.2144 49.212 73.3704 48.767C73.5024 48.311 73.6334 47.841 73.7774 47.36C73.9325 46.8707 74.062 46.3737 74.1654 45.871C74.2784 45.357 74.4284 44.844 74.5284 44.306C74.6284 43.768 74.7344 43.224 74.8354 42.673C74.9364 42.122 74.9854 41.559 75.0724 40.996C75.1594 40.433 75.2104 39.858 75.2604 39.282C75.3104 38.706 75.3734 38.131 75.3664 37.549C75.3854 36.967 75.4354 36.391 75.4354 35.815C75.4354 35.239 75.4164 34.658 75.4104 34.089C75.3234 32.95 75.3104 31.824 75.1544 30.741C75.0604 29.659 74.8604 28.62 74.7164 27.625C74.6164 27.137 74.5094 26.655 74.4164 26.199C74.34 25.7477 74.2399 25.3007 74.1164 24.86C73.8914 24.009 73.7034 23.22 73.4844 22.538C73.2654 21.856 73.1094 21.238 72.9154 20.755C72.6324 19.948 72.4634 19.405 72.4134 19.241Z" fill="black"/>
</g>
<g style="mix-blend-mode:multiply" opacity="0.25">
<path d="M17.9028 40.7649L17.3528 42.7649C17.1528 43.4279 17.0018 44.1039 16.8328 44.7739C16.6638 45.4439 16.5268 46.1189 16.3768 46.7819L16.3198 47.0389L16.2828 47.2639L16.1888 47.7829L16.1008 48.2959L16.0578 48.5529L16.0388 48.6719C16.0403 48.6609 16.0382 48.6496 16.0328 48.6399L16.0258 48.7589L15.6948 51.2809L15.6068 51.9059L15.5758 52.0629L15.5698 52.1189L15.5628 52.1249L15.5698 52.1319V52.1439L15.5628 52.1759L15.5448 52.4569L15.4758 53.7269C15.4508 54.1529 15.4318 54.5719 15.3878 54.9909L15.3438 55.6229L15.3318 56.1989L15.3258 57.4309C15.3438 57.8509 15.3438 58.2759 15.3508 58.6949L15.3568 59.0139V59.0889L15.3508 59.0959L15.3568 59.1139L15.3508 59.1329L15.3688 59.2899L15.4068 59.9279L15.4438 60.5539L15.4568 60.8409L15.4818 61.1539L15.5878 62.4239L15.7378 63.6509L15.8068 64.2829L15.8948 64.8959C15.9198 65.2709 16.0328 65.7219 16.1008 66.1289C16.2518 66.9539 16.3888 67.7929 16.5008 68.6289C16.3258 68.1289 16.1628 67.6289 16.0188 67.1209C15.9248 66.8149 15.8378 66.5019 15.7438 66.1949C15.5938 65.5949 15.4438 65.0059 15.3178 64.4059C15.1928 63.8299 15.0738 63.2609 14.9738 62.6729C14.8738 62.0849 14.7988 61.4959 14.7238 60.9079C14.6488 60.3199 14.5988 59.7319 14.5548 59.1499C14.5108 58.5679 14.4798 57.9739 14.4668 57.3729C14.4538 56.7719 14.4488 56.1899 14.4668 55.5959C14.4918 54.4199 14.5738 53.2369 14.7108 52.0609C14.8428 50.9029 15.0368 49.7609 15.2738 48.6189C15.2802 48.5893 15.2889 48.5602 15.2998 48.5319C15.4178 47.9629 15.5618 47.3929 15.6998 46.8319C15.7136 46.8048 15.7221 46.7752 15.7248 46.7449L15.9498 45.9559C16.1498 45.2799 16.3628 44.6169 16.6008 43.9559C16.7068 43.6369 16.8318 43.3239 16.9508 43.0049C17.1018 42.6169 17.2578 42.2229 17.4208 41.8469C17.5778 41.4909 17.7408 41.1279 17.9028 40.7649Z" fill="black"/>
</g>
<g style="mix-blend-mode:multiply" opacity="0.25">
<path d="M49.6931 17.7828C49.1111 17.6258 48.5542 17.4698 47.9722 17.3258L47.5412 17.2198C47.3842 17.1758 47.2782 17.1448 47.1212 17.1128L46.2581 16.9128L45.4072 16.7248L44.5312 16.5498L42.9612 16.2558H42.9352C42.8869 16.2558 42.8389 16.2497 42.7921 16.2378C42.7868 16.2334 42.7801 16.2309 42.7731 16.2308L42.7672 16.2248L41.6902 16.0868C41.5032 16.0618 41.3341 16.0308 41.1461 16.0188L40.5952 15.9558L40.0392 15.8868L39.8011 15.8618L39.5191 15.8308L38.5061 15.7428H38.4812C38.4559 15.7397 38.4304 15.7397 38.4052 15.7428C38.3682 15.7428 38.3372 15.7368 38.2802 15.7308C37.8302 15.7178 37.3801 15.6808 36.9482 15.6618L35.5401 15.6308L34.1012 15.6428L32.7122 15.6928H32.6741L32.6682 15.6868L32.6622 15.6928C32.3172 15.7118 31.9732 15.7308 31.6172 15.7618L31.1102 15.8178L30.5842 15.8678L29.5332 15.9678L29.0072 16.0308L28.5011 16.0998C28.3191 16.1308 28.1752 16.1498 27.9882 16.1868L27.4931 16.2688L26.9682 16.3558L26.7052 16.3938C26.6706 16.404 26.6351 16.4103 26.5992 16.4128L26.4671 16.4438L25.4221 16.6498L24.4221 16.8628L24.3972 16.8758C24.0782 16.9438 23.7592 17.0128 23.4272 17.1068L22.4322 17.3638L21.4442 17.6258L20.4622 17.9258L20.4301 17.9318L20.2861 17.9758L20.2682 17.9818C19.8302 18.1198 19.3602 18.2508 18.9102 18.4008C19.1232 18.2878 19.3292 18.1948 19.5352 18.1008C19.7412 18.0068 19.9732 17.9008 20.1992 17.8128C20.2557 17.7781 20.3166 17.7509 20.3802 17.7318C20.6872 17.5878 21.0001 17.4628 21.3251 17.3318C21.4561 17.2758 21.5942 17.2258 21.7252 17.1818C22.1762 17.0068 22.6201 16.8508 23.0641 16.7068C23.2542 16.631 23.4486 16.5662 23.6461 16.5128C23.8531 16.4438 24.0402 16.3808 24.2462 16.3248C24.4462 16.2498 24.6461 16.1998 24.8531 16.1438C25.3781 15.9928 25.9042 15.8558 26.4362 15.7368C26.8932 15.6308 27.3562 15.5298 27.8062 15.4428C27.9132 15.4238 28.0132 15.3988 28.1192 15.3798C28.3692 15.3428 28.6191 15.2928 28.8761 15.2488C29.1331 15.2048 29.3891 15.1738 29.6391 15.1358C30.1281 15.0608 30.6282 14.9988 31.1102 14.9548L31.8611 14.8798C32.0981 14.8548 32.3492 14.8418 32.5932 14.8228H32.6682C33.1432 14.7858 33.6131 14.7668 34.0681 14.7608C34.5751 14.7418 35.0682 14.7418 35.5582 14.7608C36.0482 14.7798 36.5341 14.7858 37.0341 14.8108C37.4911 14.8298 37.9411 14.8668 38.4041 14.9048C38.4358 14.9176 38.4703 14.9217 38.5042 14.9168C39.0042 14.9668 39.4921 15.0298 39.9801 15.0918C40.4681 15.1538 40.9632 15.2358 41.4512 15.3238C41.9392 15.4118 42.4141 15.4988 42.9021 15.5988C42.9271 15.6118 42.9342 15.6178 42.9592 15.6048C43.4222 15.7178 43.8912 15.8238 44.3542 15.9498C44.6922 16.0368 45.0361 16.1188 45.3741 16.2308C45.6111 16.2938 45.8371 16.3688 46.0681 16.4378C46.2991 16.5068 46.5132 16.5818 46.7252 16.6568C46.9572 16.7248 47.1692 16.8008 47.3952 16.8758C47.8012 17.0198 48.2082 17.1758 48.6152 17.3318C48.9812 17.4828 49.3441 17.6328 49.6931 17.7828Z" fill="black"/>
</g>
<g style="mix-blend-mode:screen" opacity="0.4">
<path d="M15.5622 52.1779C15.5562 52.1589 15.5692 52.1459 15.5622 52.1399L15.5692 52.1459L15.5622 52.1779Z" fill="white"/>
</g>
<g style="mix-blend-mode:screen" opacity="0.4">
<path d="M37.9814 15.6179L38.3444 15.7309H38.2814C38.1756 15.7112 38.074 15.6729 37.9814 15.6179Z" fill="white"/>
</g>
<g style="mix-blend-mode:screen" opacity="0.4">
<path d="M42.6172 16.1748L42.7052 16.2118C42.6749 16.202 42.6454 16.1896 42.6172 16.1748Z" fill="white"/>
</g>
<g style="mix-blend-mode:screen" opacity="0.4">
<path d="M42.7998 16.2309L43.2498 16.1809C43.2069 16.2044 43.1607 16.2213 43.1128 16.2309C43.0646 16.2475 43.0139 16.256 42.9628 16.2559H42.9368L42.7998 16.2309Z" fill="white"/>
</g>
</g>
<g filter="url(#filter0_d_894_60)">
<path d="M24.676 55L35.908 29.8H41.668L52.936 55H46.816L37.6 32.752H39.904L30.652 55H24.676ZM30.292 49.6L31.84 45.172H44.8L46.384 49.6H30.292Z" fill="#FB5D3A"/>
<path d="M55.2545 55V35.632H60.8705V55H55.2545ZM58.0625 32.932C57.0305 32.932 56.1905 32.632 55.5425 32.032C54.8945 31.432 54.5705 30.688 54.5705 29.8C54.5705 28.912 54.8945 28.168 55.5425 27.568C56.1905 26.968 57.0305 26.668 58.0625 26.668C59.0945 26.668 59.9345 26.956 60.5825 27.532C61.2305 28.084 61.5545 28.804 61.5545 29.692C61.5545 30.628 61.2305 31.408 60.5825 32.032C59.9585 32.632 59.1185 32.932 58.0625 32.932Z" fill="#28A4A4"/>
</g>
<defs>
<filter id="filter0_d_894_60" x="20.676" y="26.668" width="44.8785" height="36.332" filterUnits="userSpaceOnUse" color-interpolation-filters="sRGB">
<feFlood flood-opacity="0" result="BackgroundImageFix"/>
<feColorMatrix in="SourceAlpha" type="matrix" values="0 0 0 0 0 0 0 0 0 0 0 0 0 0 0 0 0 0 127 0" result="hardAlpha"/>
<feOffset dy="4"/>
<feGaussianBlur stdDeviation="2"/>
<feComposite in2="hardAlpha" operator="out"/>
<feColorMatrix type="matrix" values="0 0 0 0 0 0 0 0 0 0 0 0 0 0 0 0 0 0 0.5 0"/>
<feBlend mode="normal" in2="BackgroundImageFix" result="effect1_dropShadow_894_60"/>
<feBlend mode="normal" in="SourceGraphic" in2="effect1_dropShadow_894_60" result="shape"/>
</filter>
<linearGradient id="paint0_linear_894_60" x1="310.919" y1="325.251" x2="310.919" y2="268.899" gradientUnits="userSpaceOnUse">
<stop stop-color="#00F3FF"/>
<stop offset="0.238" stop-color="#00EFFC"/>
<stop offset="0.44" stop-color="#00E5F4"/>
<stop offset="0.629" stop-color="#00D3E7"/>
<stop offset="0.81" stop-color="#00BAD4"/>
<stop offset="0.983" stop-color="#009BBC"/>
<stop offset="1" stop-color="#0098BA"/>
</linearGradient>
<linearGradient id="paint1_linear_894_60" x1="269.477" y1="318.328" x2="328.67" y2="318.328" gradientUnits="userSpaceOnUse">
<stop stop-color="#49A09D"/>
<stop offset="0.149" stop-color="#4A989B"/>
<stop offset="0.375" stop-color="#4E8396"/>
<stop offset="0.65" stop-color="#54618E"/>
<stop offset="0.96" stop-color="#5D3283"/>
<stop offset="1" stop-color="#5F2C82"/>
</linearGradient>
<linearGradient id="paint2_linear_894_60" x1="270.987" y1="280.06" x2="270.987" y2="336.739" gradientUnits="userSpaceOnUse">
<stop stop-color="#3E6896"/>
<stop offset="0.247" stop-color="#355881"/>
<stop offset="0.75" stop-color="#1F324E"/>
<stop offset="1" stop-color="#131D32"/>
</linearGradient>
<linearGradient id="paint3_linear_894_60" x1="315.524" y1="280.043" x2="257.645" y2="280.043" gradientUnits="userSpaceOnUse">
<stop stop-color="#233B55"/>
<stop offset="1" stop-color="#131D32"/>
</linearGradient>
</defs>
</svg>
