<svg width="72" height="72" viewBox="0 0 72 72" fill="none" xmlns="http://www.w3.org/2000/svg">
<path d="M0 36C0 16.1177 16.1177 0 36 0V0C55.8823 0 72 16.1177 72 36V36C72 55.8823 55.8823 72 36 72V72C16.1177 72 0 55.8823 0 36V36Z" fill="#FB5D3A"/>
<g clip-path="url(#clip0_211_85)">
<g clip-path="url(#clip1_211_85)">
<path d="M35.9909 24.2182C29.0159 18.1176 20.1473 23.4778 20.0018 30.7444C19.9648 32.5964 20.4994 34.4003 21.5635 36.0633H28.4607L29.6875 34.0186C30.0437 33.425 30.9058 33.4059 31.2822 33.9977L33.8705 38.0651L37.6436 30.1C37.9726 29.405 38.9532 29.3829 39.3161 30.0569L42.5504 36.0633H50.4184C56.2468 26.954 44.7279 16.5766 35.9909 24.2182V24.2182Z" fill="white"/>
<path d="M41.1651 37.4451L38.5443 32.5779L34.8383 40.4017C34.523 41.0673 33.5956 41.1251 33.2002 40.5037L30.5148 36.2838L29.7953 37.4829C29.6259 37.7653 29.3208 37.938 28.9915 37.938H23.0464C23.2328 38.1331 22.2395 37.1418 35.3297 50.1642C35.6953 50.528 36.2863 50.5281 36.652 50.1642C49.5408 37.3422 48.7493 38.1327 48.9353 37.938H41.9905C41.6456 37.9381 41.3286 37.7487 41.1651 37.4451V37.4451Z" fill="white"/>
</g>
</g>
<defs>
<clipPath id="clip0_211_85">
<rect width="32" height="32" fill="white" transform="translate(20 20)"/>
</clipPath>
<clipPath id="clip1_211_85">
<rect width="32" height="32" fill="white" transform="translate(20 20)"/>
</clipPath>
</defs>
</svg>
