<svg width="27" height="27" viewBox="0 0 27 27" fill="none" xmlns="http://www.w3.org/2000/svg">
<path d="M13.2508 0.599365C9.71219 0.599365 9.26722 0.615665 7.87687 0.677603C6.48653 0.7428 5.53953 0.961213 4.70989 1.28394C3.83965 1.61127 3.05141 2.12471 2.40026 2.78838C1.737 3.43986 1.22361 4.22801 0.89582 5.09801C0.57309 5.92603 0.353048 6.87465 0.28948 8.26011C0.227542 9.65371 0.211243 10.0971 0.211243 13.6406C0.211243 17.1808 0.227542 17.6241 0.28948 19.0145C0.354678 20.4032 0.57309 21.3502 0.89582 22.1798C1.22996 23.0372 1.67493 23.7641 2.40026 24.4895C3.12395 25.2148 3.85091 25.6614 4.70826 25.9939C5.53953 26.3166 6.4849 26.5367 7.87362 26.6003C9.26559 26.6622 9.70893 26.6785 13.2508 26.6785C16.7927 26.6785 17.2344 26.6622 18.6264 26.6003C20.0134 26.5351 20.9637 26.3166 21.7933 25.9939C22.663 25.6664 23.4507 25.153 24.1013 24.4895C24.8267 23.7641 25.2717 23.0372 25.6058 22.1798C25.9269 21.3502 26.1469 20.4032 26.2121 19.0145C26.2741 17.6241 26.2904 17.1808 26.2904 13.6389C26.2904 10.0971 26.2741 9.65371 26.2121 8.26174C26.1469 6.87465 25.9269 5.92603 25.6058 5.09801C25.278 4.22799 24.7647 3.43983 24.1013 2.78838C23.4504 2.12447 22.6621 1.61098 21.7917 1.28394C20.9604 0.961213 20.0118 0.74117 18.6247 0.677603C17.2328 0.615665 16.791 0.599365 13.2475 0.599365H13.2524H13.2508ZM12.0821 2.94975H13.2524C16.734 2.94975 17.1464 2.96116 18.5204 3.02472C19.7918 3.08177 20.4829 3.29529 20.9425 3.47296C21.5505 3.7093 21.9857 3.99291 22.4421 4.4493C22.8984 4.90568 23.1804 5.33925 23.4168 5.94885C23.5961 6.40686 23.808 7.09796 23.865 8.36931C23.9286 9.74336 23.9416 10.1557 23.9416 13.6357C23.9416 17.1156 23.9286 17.5296 23.865 18.9037C23.808 20.175 23.5944 20.8645 23.4168 21.3241C23.2077 21.8903 22.874 22.4022 22.4404 22.822C21.984 23.2784 21.5505 23.5604 20.9409 23.7967C20.4845 23.976 19.7934 24.1879 18.5204 24.2466C17.1464 24.3085 16.734 24.3232 13.2524 24.3232C9.77087 24.3232 9.35687 24.3085 7.98282 24.2466C6.71146 24.1879 6.022 23.976 5.56235 23.7967C4.99595 23.588 4.48353 23.2549 4.0628 22.822C3.62883 22.4016 3.29465 21.8892 3.08484 21.3225C2.90717 20.8645 2.69365 20.1734 2.6366 18.902C2.57466 17.528 2.56162 17.1156 2.56162 13.6324C2.56162 10.1508 2.57466 9.7401 2.6366 8.36605C2.69528 7.0947 2.90717 6.4036 3.08647 5.94396C3.32281 5.33599 3.60642 4.90079 4.0628 4.44441C4.51919 3.98802 4.95275 3.70604 5.56235 3.4697C6.022 3.2904 6.71146 3.07851 7.98282 3.01983C9.18572 2.96442 9.65188 2.94812 12.0821 2.94649V2.94975ZM20.2123 5.11431C20.0068 5.11431 19.8033 5.15479 19.6135 5.23342C19.4237 5.31206 19.2512 5.42732 19.1059 5.57262C18.9606 5.71792 18.8453 5.89041 18.7667 6.08026C18.688 6.2701 18.6476 6.47357 18.6476 6.67906C18.6476 6.88455 18.688 7.08802 18.7667 7.27786C18.8453 7.46771 18.9606 7.6402 19.1059 7.7855C19.2512 7.9308 19.4237 8.04606 19.6135 8.1247C19.8033 8.20333 20.0068 8.24381 20.2123 8.24381C20.6273 8.24381 21.0253 8.07895 21.3187 7.7855C21.6122 7.49206 21.777 7.09406 21.777 6.67906C21.777 6.26406 21.6122 5.86606 21.3187 5.57262C21.0253 5.27917 20.6273 5.11431 20.2123 5.11431ZM13.2524 6.94311C12.3642 6.92925 11.4821 7.09223 10.6575 7.42255C9.83291 7.75286 9.08224 8.24392 8.44923 8.86714C7.81622 9.49035 7.31351 10.2333 6.97037 11.0526C6.62723 11.872 6.45051 12.7514 6.45051 13.6397C6.45051 14.5281 6.62723 15.4075 6.97037 16.2269C7.31351 17.0462 7.81622 17.7891 8.44923 18.4123C9.08224 19.0356 9.83291 19.5266 10.6575 19.8569C11.4821 20.1873 12.3642 20.3502 13.2524 20.3364C15.0104 20.3089 16.6871 19.5913 17.9206 18.3385C19.154 17.0856 19.8454 15.3979 19.8454 13.6397C19.8454 11.8816 19.154 10.1939 17.9206 8.94102C16.6871 7.68814 15.0104 6.97054 13.2524 6.94311ZM13.2524 9.29186C14.4053 9.29186 15.511 9.74986 16.3263 10.5651C17.1415 11.3803 17.5995 12.486 17.5995 13.6389C17.5995 14.7918 17.1415 15.8975 16.3263 16.7128C15.511 17.528 14.4053 17.986 13.2524 17.986C12.0995 17.986 10.9938 17.528 10.1786 16.7128C9.36336 15.8975 8.90537 14.7918 8.90537 13.6389C8.90537 12.486 9.36336 11.3803 10.1786 10.5651C10.9938 9.74986 12.0995 9.29186 13.2524 9.29186Z" fill="#FB5D3A"/>
</svg>
