<svg width="72" height="72" viewBox="0 0 72 72" fill="none" xmlns="http://www.w3.org/2000/svg">
<path d="M0 36C0 16.1177 16.1177 0 36 0V0C55.8823 0 72 16.1177 72 36V36C72 55.8823 55.8823 72 36 72V72C16.1177 72 0 55.8823 0 36V36Z" fill="#FB5D3A"/>
<g clip-path="url(#clip0_211_106)">
<g clip-path="url(#clip1_211_106)">
<path d="M26.3484 52H45.6517C46.8003 52 47.7565 51.1215 47.7565 50.0419V26.6286C47.7565 25.5487 46.8003 24.6609 45.6517 24.6609H42.4696V26.4487C42.4742 26.759 42.2294 27.0158 41.9193 27.0261H30.043C29.7267 27.0185 29.4712 26.765 29.4609 26.4487V24.6609H26.3484C25.1997 24.6609 24.2435 25.5487 24.2435 26.6286V50.0419C24.2435 51.1215 25.1997 52 26.3484 52ZM30.6435 34.0522C30.6435 33.7449 30.8927 33.4957 31.2 33.4957H34.0522V30.6435C34.0522 30.3362 34.3014 30.087 34.6087 30.087H37.3913C37.6987 30.087 37.9478 30.3362 37.9478 30.6435V33.4957H40.8C41.1074 33.4957 41.3565 33.7449 41.3565 34.0522V36.8348C41.3565 37.1421 41.1074 37.3913 40.8 37.3913H37.9478V40.2435C37.9478 40.5508 37.6987 40.8 37.3913 40.8H34.6087C34.3014 40.8 34.0522 40.5508 34.0522 40.2435V37.3913H31.2C30.8927 37.3913 30.6435 37.1421 30.6435 36.8348V34.0522ZM30.8701 43.6522H41.1299C41.4375 43.6522 41.6864 43.9014 41.6864 44.2087C41.6864 44.5161 41.4375 44.7652 41.1299 44.7652H30.8701C30.5625 44.7652 30.3136 44.5161 30.3136 44.2087C30.3136 43.9014 30.5625 43.6522 30.8701 43.6522ZM28.7832 46.4348H43.2169C43.5245 46.4348 43.7734 46.684 43.7734 46.9913C43.7734 47.2987 43.5245 47.5478 43.2169 47.5478H28.7832C28.4756 47.5478 28.2267 47.2987 28.2267 46.9913C28.2267 46.684 28.4756 46.4348 28.7832 46.4348Z" fill="white"/>
<path d="M41.3565 22.1565H38.7522C38.4902 22.1563 38.2636 21.9734 38.2084 21.7171C37.9932 20.7226 37.0486 20 35.9622 20H35.9554C34.8981 19.9989 33.9745 20.7144 33.7114 21.7383C33.6481 21.9842 33.4264 22.1563 33.1723 22.1565H30.5739V25.913H41.3565V22.1565Z" fill="white"/>
<path d="M35.1652 36.8347V39.6869H36.8348V36.8347C36.8348 36.5274 37.084 36.2782 37.3913 36.2782H40.2435V34.6086H37.3913C37.084 34.6086 36.8348 34.3595 36.8348 34.0521V31.2H35.1652V34.0521C35.1652 34.3595 34.916 34.6086 34.6087 34.6086H31.7565V36.2782H34.6087C34.916 36.2782 35.1652 36.5274 35.1652 36.8347Z" fill="white"/>
</g>
</g>
<defs>
<clipPath id="clip0_211_106">
<rect width="32" height="32" fill="white" transform="translate(20 20)"/>
</clipPath>
<clipPath id="clip1_211_106">
<rect width="32" height="32" fill="white" transform="translate(20 20)"/>
</clipPath>
</defs>
</svg>
