<svg width="1024" height="768" viewBox="0 0 1024 768" fill="none" xmlns="http://www.w3.org/2000/svg">
<rect width="1024" height="768" fill="white"/>
<path d="M737 341.572C734.939 377.113 727.931 399.173 715.975 424.909C704.4 449.829 685.881 472.706 665.269 493.131C645.363 512.857 619.956 527.154 593.948 537.83C567.939 548.505 540.064 554 511.912 554C483.761 554 462.87 550.72 429.877 537.83C402.254 527.038 375.87 510.697 356.907 492.314C337.943 473.931 317.368 450.736 306.612 424.501C301.253 411.428 288.061 380.381 286 341.981H394.421L506.886 228.971C509.658 226.186 514.167 226.186 516.939 228.971L628.991 341.572H737Z" fill="#28A4A5"/>
<path d="M735.763 300.312C732.053 272.125 726.336 257.455 715.563 231.682C702.371 205.946 689.591 185.111 666.505 164.686C643.42 144.26 621.57 128.328 594.362 118.932C568.353 108.257 539.533 103 511.5 103C483.055 103 455.846 107.902 429.05 118.524C403.079 128.818 377.107 143.851 357.319 163.869C336.707 182.252 322.69 201.861 309.086 227.597C298.313 253.37 290.535 274.168 287.649 300.312H372.984L506.519 170.077C509.285 167.379 513.702 167.392 516.452 170.106L648.367 300.312H735.763Z" fill="#FB5D3A"/>
<path d="M610.772 365.67C607.548 358.397 602.9 351.805 597.087 346.265C591.27 340.708 584.412 336.293 576.885 333.258C569.08 330.098 560.709 328.481 552.257 328.5C540.4 328.5 537.073 329.857 527.578 336.67C515.623 345.249 514.901 350.483 512.737 352.194C510.572 350.483 507.902 343.646 495.835 336.67C485.941 330.951 484.292 329.317 471.591 328.5C463.053 328.5 454.78 330.094 446.964 333.258C439.412 336.304 432.605 340.687 426.761 346.265C420.941 351.799 416.291 358.392 413.076 365.67C409.733 373.24 408.026 381.279 408.026 389.552C408.026 397.356 409.661 405.489 412.908 413.762C415.626 420.676 419.522 427.847 424.5 435.089C432.389 446.549 443.236 458.502 456.704 470.619C479.023 490.704 501.125 504.578 502.063 505.14L507.763 508.703C510.289 510.273 513.536 510.273 516.061 508.703L521.761 505.14C522.699 504.555 544.777 490.704 567.12 470.619C580.589 458.502 591.435 446.549 599.324 435.089C604.302 427.847 608.223 420.676 610.916 413.762C614.163 405.489 615.799 397.356 615.799 389.552C615.823 381.279 614.115 373.24 610.772 365.67Z" fill="white"/>
<path d="M610.385 422.081H577.043C574.832 422.081 572.835 420.761 571.968 418.727L567.658 408.612C567.068 407.227 565.059 407.379 564.683 408.836L561.267 422.081L557.625 439.507C557.044 442.29 553.156 442.513 552.26 439.815L546.369 422.081L536.457 387.822C535.751 385.383 532.229 385.589 531.813 388.094L526.161 422.081L522.705 449.408C522.365 452.095 518.521 452.226 517.998 449.569L512.591 422.081L507.574 396.707C507.055 394.084 503.275 394.17 502.875 396.813L496.795 437.017C496.4 439.627 492.686 439.757 492.109 437.181L477.89 373.644C477.334 371.159 473.793 371.158 473.235 373.641L461.997 423.61L456.995 452.215C456.23 456.589 449.959 456.608 449.167 452.238L443.707 422.081L440.752 402.899C440.342 400.236 436.522 400.19 436.047 402.843L433.418 417.537C432.948 420.166 430.66 422.081 427.989 422.081H414.708" stroke="#28A4A5" stroke-width="2.2"/>
<path d="M463.523 605.668C461.102 609.301 459.129 613.109 457.605 617.094L453.152 629.926L437.391 672.523C435.555 677.523 433.406 682.406 430.945 687.172C429.695 689.516 427.938 690.688 425.672 690.688C422.664 690.688 420.555 689.164 419.344 686.117C414.617 674.242 409.363 657.152 403.582 634.848L398.953 618.734C396.648 610.609 395.496 605.297 395.496 602.797C395.496 601.039 396.121 599.594 397.371 598.461C398.504 597.406 399.871 596.879 401.473 596.879C404.441 596.879 406.355 598.48 407.215 601.684L409.383 611.879L415.008 631.801C418.758 646.332 422.41 658.852 425.965 669.359L426.316 668.422L442.02 625.883L447 611.527C449.227 605.746 451.59 601.371 454.09 598.402C455.379 596.84 456.902 596.059 458.66 596.059C460.223 596.059 461.609 596.664 462.82 597.875C464.07 599.047 464.695 600.473 464.695 602.152C464.695 603.324 464.305 604.496 463.523 605.668ZM521.353 689.867C520.611 689.867 519.263 689.008 517.31 687.289C515.552 685.688 514.244 684.262 513.384 683.012C509.634 685.043 506.334 686.566 503.482 687.582C500.63 688.637 498.248 689.164 496.334 689.164C487.193 689.164 480.533 686.586 476.353 681.43C472.408 676.586 470.435 669.164 470.435 659.164C470.435 649.711 473.677 641.625 480.162 634.906C486.685 628.188 494.459 624.828 503.482 624.828C506.88 624.828 510.689 625.707 514.908 627.465C520.22 629.652 522.877 632.289 522.877 635.375C522.877 636.43 522.486 637.367 521.705 638.188C521.314 639.672 521.002 642.113 520.767 645.512C520.572 648.91 520.455 653.266 520.416 658.578C520.377 663.422 520.709 667.25 521.412 670.062C521.802 671.781 523.033 675.219 525.103 680.375C525.377 681.078 525.826 682.113 526.451 683.48L526.802 684.477C526.802 686.039 526.255 687.328 525.162 688.344C524.068 689.359 522.798 689.867 521.353 689.867ZM509.166 649.145C509.166 647.465 509.263 645.648 509.459 643.695C509.693 641.703 510.025 639.594 510.455 637.367C509.009 636.625 507.759 636.078 506.705 635.727C505.689 635.375 504.869 635.199 504.244 635.199C498.189 635.199 492.955 637.68 488.541 642.641C484.166 647.562 481.978 653.246 481.978 659.691C481.978 666.098 483.111 670.902 485.377 674.105C487.642 677.309 491.041 678.91 495.572 678.91C499.322 678.91 502.505 678.227 505.123 676.859C506.529 676.117 508.502 674.633 511.041 672.406C509.791 662.055 509.166 654.301 509.166 649.145ZM550.589 611.82C548.714 611.82 547.093 611.156 545.726 609.828C544.359 608.5 543.675 606.898 543.675 605.023C543.675 603.148 544.359 601.547 545.726 600.219C547.093 598.891 548.714 598.227 550.589 598.227C552.464 598.227 554.066 598.891 555.394 600.219C556.761 601.547 557.445 603.148 557.445 605.023C557.445 606.898 556.761 608.5 555.394 609.828C554.066 611.156 552.464 611.82 550.589 611.82ZM553.226 659.398C553.226 661.742 553.284 665.258 553.402 669.945C553.558 674.594 553.636 678.09 553.636 680.434C553.636 682.152 553.109 683.559 552.054 684.652C550.999 685.746 549.613 686.293 547.894 686.293C546.214 686.293 544.827 685.746 543.734 684.652C542.679 683.559 542.152 682.152 542.152 680.434C542.152 678.09 542.073 674.594 541.917 669.945C541.8 665.258 541.741 661.742 541.741 659.398C541.741 655.727 541.937 651.156 542.327 645.688C542.718 640.18 542.913 635.59 542.913 631.918C542.913 630.16 543.441 628.734 544.495 627.641C545.589 626.547 546.976 626 548.655 626C550.335 626 551.702 626.547 552.757 627.641C553.851 628.734 554.398 630.16 554.398 631.918C554.398 635.59 554.202 640.18 553.812 645.688C553.421 651.156 553.226 655.727 553.226 659.398ZM629.395 634.262C628.927 640.004 628.692 645.746 628.692 651.488C628.692 664.496 629.298 674.32 630.509 680.961C630.587 681.508 630.626 681.957 630.626 682.309C630.626 683.871 630.079 685.16 628.985 686.176C627.891 687.191 626.622 687.699 625.177 687.699C622.755 687.699 620.977 685.941 619.845 682.426C617.032 684.496 614.102 686.059 611.055 687.113C608.048 688.168 604.903 688.695 601.622 688.695C593.536 688.695 586.837 686 581.524 680.609C576.055 675.102 573.321 668.031 573.321 659.398C573.321 648.969 576.075 640.609 581.583 634.32C587.13 628.031 594.317 624.887 603.145 624.887C607.677 624.887 611.173 625.59 613.634 626.996L619.141 631.039C619.688 614.594 620.333 603.52 621.075 597.816C621.583 594.34 623.36 592.602 626.407 592.602C629.962 592.602 631.739 594.496 631.739 598.285C631.739 603.715 630.958 615.707 629.395 634.262ZM603.38 635.785C596.817 635.785 591.895 637.738 588.614 641.645C585.333 645.512 583.692 651.352 583.692 659.164C583.692 664.203 585.47 668.539 589.024 672.172C592.618 675.805 596.817 677.621 601.622 677.621C604.903 677.621 607.677 677.016 609.942 675.805C611.27 675.102 613.438 673.48 616.446 670.941C617.032 670.434 617.598 669.828 618.145 669.125L617.97 658.988L618.028 652.191L618.145 645.277C616.661 642.113 614.688 639.75 612.227 638.188C609.766 636.586 606.817 635.785 603.38 635.785Z" fill="#FB5D3A"/>
</svg>
