<svg width="248" height="51" viewBox="0 0 248 51" fill="none" xmlns="http://www.w3.org/2000/svg">
<path d="M25.5 0C11.424 0 0 11.424 0 25.5C0 39.576 11.424 51 25.5 51C39.576 51 51 39.576 51 25.5C51 11.424 39.576 0 25.5 0ZM17.2125 29.784C16.881 30.8805 15.6315 31.3905 14.6115 30.9315C13.7445 30.5235 13.311 29.5545 13.5915 28.6365C13.8975 27.591 14.0505 26.52 14.025 25.4745C13.9995 24.429 13.872 23.4345 13.5915 22.4655C13.3365 21.5475 13.7445 20.553 14.6115 20.1705C15.6825 19.686 16.932 20.2725 17.2635 21.42C17.646 22.7205 17.8245 24.0465 17.85 25.4235C17.85 26.8515 17.646 28.3305 17.2125 29.784ZM25.2195 33.8385C24.786 34.884 23.511 35.292 22.5165 34.731C21.675 34.2465 21.3435 33.2265 21.7005 32.334C22.542 30.3705 22.95 28.1775 22.95 25.806C22.95 23.358 22.491 20.9865 21.5985 18.717C21.2415 17.799 21.6495 16.779 22.5165 16.32C23.511 15.81 24.735 16.269 25.143 17.3145C26.214 20.0175 26.7495 22.8735 26.7495 25.806C26.8005 28.6875 26.265 31.3905 25.2195 33.8385ZM33.15 37.23C32.7165 38.25 31.518 38.709 30.549 38.2245C29.6565 37.791 29.223 36.72 29.6055 35.802C31.11 32.2575 31.875 28.7895 31.875 25.449C31.875 22.1085 31.11 18.6915 29.631 15.2235C29.223 14.3055 29.6565 13.2345 30.549 12.801C31.5435 12.291 32.7165 12.75 33.15 13.77C34.833 17.697 35.7 21.624 35.7 25.449C35.7 29.274 34.833 33.252 33.15 37.23Z" fill="#EAF0FF"/>
<path d="M70 24.2635V6.38653H76.3887C78.4044 6.38653 79.9325 6.80527 80.9729 7.64275C82.0296 8.48023 82.5579 9.68008 82.5579 11.2423V11.5805C82.5579 12.4341 82.3953 13.1427 82.0702 13.7064C81.7613 14.2701 81.3306 14.7291 80.7778 15.0834C81.5581 15.4055 82.1677 15.8806 82.6067 16.5088C83.0618 17.1369 83.2894 17.9582 83.2894 18.9729V19.3111C83.2894 20.8894 82.7611 22.1134 81.7045 22.9831C80.6641 23.8367 79.136 24.2635 77.1202 24.2635H70ZM76.7057 9.14055H73.3894V13.9238H76.7057C77.5347 13.9238 78.1443 13.7064 78.5345 13.2716C78.9246 12.8367 79.1197 12.2569 79.1197 11.5322C79.1197 10.8075 78.9246 10.2277 78.5345 9.79281C78.1443 9.35797 77.5347 9.14055 76.7057 9.14055ZM77.3641 16.5812H73.3894V21.5095H77.3641C78.1769 21.5095 78.7946 21.292 79.2173 20.8572C79.6399 20.4224 79.8512 19.8104 79.8512 19.0212C79.8512 18.2481 79.6399 17.6522 79.2173 17.2335C78.7946 16.7987 78.1769 16.5812 77.3641 16.5812Z" fill="#EAF0FF"/>
<path d="M84.7466 24.1427L90.8183 6.50732H96.4754L102.718 24.1427H99.1577L97.5239 19.456H89.7697L88.2091 24.1427H84.7466ZM90.7451 16.5571H96.5242L94.0614 9.38213H93.1591L90.7451 16.5571Z" fill="#EAF0FF"/>
<path d="M108.058 24.1427V17.4026H107.18L101.816 6.50732H105.376L109.35 14.7935H110.277L113.91 6.50732H117.275L112.325 17.4026H111.448V24.1427H108.058Z" fill="#EAF0FF"/>
<path d="M119.745 24.1427V6.50732H130.523V9.40629H123.134V13.7306H130.084V16.6295H123.134V21.2437H130.718V24.1427H119.745Z" fill="#EAF0FF"/>
<path d="M134.271 24.1427V6.38653H140.879C143.008 6.38653 144.707 6.86164 145.975 7.81185C147.243 8.76207 147.877 10.2035 147.877 12.1361V12.5468C147.877 13.8675 147.568 14.9546 146.95 15.8082C146.349 16.6618 145.512 17.2899 144.439 17.6925L149.194 24.1427H145.146L140.952 18.2481H137.733V24.1427H134.271ZM141.245 9.30965H137.733V15.47H141.245C142.187 15.47 142.943 15.1881 143.512 14.6244C144.081 14.0607 144.366 13.3199 144.366 12.4019C144.366 11.4839 144.081 10.743 143.512 10.1793C142.943 9.59955 142.187 9.30965 141.245 9.30965Z" fill="#EAF0FF"/>
<path d="M165.374 24.6017C163.846 24.6017 162.497 24.3521 161.326 23.8528C160.172 23.3374 159.197 22.653 158.4 21.7994C157.62 20.9458 157.026 19.9714 156.62 18.8762C156.23 17.7811 156.035 16.6456 156.035 15.47V14.9385C156.035 13.8272 156.23 12.7401 156.62 11.6771C157.01 10.6142 157.579 9.65592 158.327 8.80233C159.091 7.94875 160.026 7.27232 161.131 6.77306C162.236 6.25769 163.521 6 164.984 6C166.528 6 167.902 6.2899 169.105 6.86969C170.324 7.44948 171.299 8.25475 172.031 9.2855C172.762 10.3001 173.193 11.4758 173.323 12.8126H169.836C169.722 12.0556 169.438 11.4114 168.983 10.8799C168.528 10.3323 167.951 9.91361 167.252 9.62371C166.569 9.33381 165.813 9.18886 164.984 9.18886C163.862 9.18886 162.895 9.44655 162.082 9.96192C161.269 10.4612 160.643 11.1698 160.204 12.0878C159.766 12.9897 159.546 14.0366 159.546 15.2284C159.546 17.1932 160.066 18.7313 161.107 19.8426C162.163 20.9377 163.586 21.4853 165.374 21.4853C166.317 21.4853 167.17 21.3243 167.934 21.0022C168.715 20.68 169.349 20.2533 169.836 19.7218V17.7408H164.813V15.1801H174.518V17.7408H173.031V20.978C172.267 22.1376 171.226 23.0314 169.909 23.6595C168.593 24.2876 167.081 24.6017 165.374 24.6017Z" fill="#EAF0FF"/>
<path d="M177.372 24.1427V6.38653H183.98C186.109 6.38653 187.808 6.86164 189.076 7.81185C190.344 8.76207 190.978 10.2035 190.978 12.1361V12.5468C190.978 13.8675 190.669 14.9546 190.052 15.8082C189.45 16.6618 188.613 17.2899 187.54 17.6925L192.295 24.1427H188.247L184.053 18.2481H180.834V24.1427H177.372ZM184.346 9.30965H180.834V15.47H184.346C185.288 15.47 186.044 15.1881 186.613 14.6244C187.182 14.0607 187.467 13.3199 187.467 12.4019C187.467 11.4839 187.182 10.743 186.613 10.1793C186.044 9.59955 185.288 9.30965 184.346 9.30965Z" fill="#EAF0FF"/>
<path d="M203.047 24.6017C201.438 24.6017 200.04 24.3199 198.853 23.7562C197.667 23.1925 196.683 22.4597 195.903 21.5578C195.139 20.6398 194.57 19.6574 194.196 18.6105C193.822 17.5475 193.635 16.5249 193.635 15.5424V15.011C193.635 13.9319 193.83 12.8609 194.22 11.7979C194.61 10.735 195.196 9.76866 195.976 8.89897C196.773 8.01317 197.756 7.31259 198.926 6.79722C200.097 6.26574 201.471 6 203.047 6C204.592 6 205.949 6.26574 207.12 6.79722C208.306 7.31259 209.29 8.01317 210.07 8.89897C210.85 9.76866 211.436 10.735 211.826 11.7979C212.232 12.8609 212.435 13.9319 212.435 15.011V15.5424C212.435 16.5249 212.24 17.5475 211.85 18.6105C211.476 19.6574 210.899 20.6398 210.119 21.5578C209.355 22.4597 208.379 23.1925 207.193 23.7562C206.022 24.3199 204.641 24.6017 203.047 24.6017ZM203.047 21.4128C204.25 21.4128 205.291 21.139 206.169 20.5915C207.046 20.0278 207.721 19.2789 208.192 18.3448C208.68 17.4107 208.924 16.396 208.924 15.3009C208.924 14.1413 208.68 13.1025 208.192 12.1845C207.721 11.2503 207.046 10.5176 206.169 9.98608C205.291 9.4546 204.25 9.18886 203.047 9.18886C201.828 9.18886 200.78 9.4546 199.902 9.98608C199.024 10.5176 198.341 11.2503 197.854 12.1845C197.382 13.1025 197.146 14.1413 197.146 15.3009C197.146 16.396 197.382 17.4107 197.854 18.3448C198.325 19.2789 199 20.0278 199.877 20.5915C200.772 21.139 201.828 21.4128 203.047 21.4128Z" fill="#EAF0FF"/>
<path d="M223.121 24.6017C221.447 24.6017 220.041 24.2876 218.903 23.6595C217.765 23.0314 216.903 22.1537 216.318 21.0263C215.733 19.8828 215.44 18.5461 215.44 17.0161V6.50732H218.903V17.2093C218.903 18.4817 219.261 19.5044 219.976 20.2774C220.707 21.0344 221.756 21.4128 223.121 21.4128C224.454 21.4128 225.479 21.0344 226.194 20.2774C226.925 19.5205 227.291 18.4978 227.291 17.2093V6.50732H230.754V17.0161C230.754 18.5461 230.461 19.8828 229.876 21.0263C229.291 22.1537 228.429 23.0314 227.291 23.6595C226.169 24.2876 224.78 24.6017 223.121 24.6017Z" fill="#EAF0FF"/>
<path d="M234.808 24.1427V6.38653H240.953C243.196 6.38653 244.928 6.92606 246.147 8.00512C247.382 9.06807 248 10.5176 248 12.3536V12.7401C248 14.5761 247.382 16.0336 246.147 17.1127C244.928 18.1918 243.196 18.7313 240.953 18.7313H238.271V24.1427H234.808ZM241.246 9.35797H238.271V15.7599H241.246C242.286 15.7599 243.083 15.4619 243.635 14.866C244.204 14.2701 244.489 13.497 244.489 12.5468C244.489 11.5966 244.204 10.8316 243.635 10.2518C243.083 9.65592 242.286 9.35797 241.246 9.35797Z" fill="#EAF0FF"/>
<path d="M75.4575 45C74.5771 45 73.8225 44.8487 73.1936 44.5461C72.5737 44.2346 72.0661 43.8296 71.6709 43.3312C71.2846 42.8328 71.0016 42.2943 70.8219 41.7158C70.6422 41.1284 70.5524 40.5587 70.5524 40.0069V39.7533C70.5524 39.1569 70.6422 38.5651 70.8219 37.9776C71.0106 37.3902 71.298 36.8562 71.6843 36.3756C72.0796 35.8861 72.5827 35.4989 73.1936 35.2141C73.8045 34.9204 74.5277 34.7735 75.3632 34.7735C76.2076 34.7735 76.9353 34.9204 77.5462 35.2141C78.1661 35.5078 78.6602 35.9217 79.0285 36.4557C79.3968 36.9897 79.6214 37.6127 79.7023 38.3247H78.6647C78.5838 37.7462 78.3906 37.2656 78.0852 36.8829C77.7887 36.4913 77.4025 36.1976 76.9263 36.0018C76.4592 35.806 75.9381 35.7081 75.3632 35.7081C74.5367 35.7081 73.8404 35.8994 73.2744 36.2821C72.7175 36.6559 72.2952 37.1588 72.0078 37.7907C71.7293 38.4227 71.59 39.1213 71.59 39.8868C71.59 40.4297 71.6709 40.9504 71.8326 41.4488C71.9943 41.9472 72.2323 42.3967 72.5468 42.7972C72.8702 43.1888 73.2745 43.5003 73.7596 43.7317C74.2447 43.9542 74.8107 44.0655 75.4575 44.0655C76.3559 44.0655 77.1105 43.843 77.7214 43.3979C78.3323 42.944 78.7096 42.2943 78.8533 41.4488H79.8909C79.7921 42.1163 79.5585 42.7215 79.1902 43.2644C78.8219 43.7985 78.3233 44.2212 77.6944 44.5327C77.0745 44.8442 76.3289 45 75.4575 45Z" fill="#EAF0FF"/>
<path d="M81.7363 44.773V35.0272H82.747V39.019C82.9357 38.5473 83.2231 38.1779 83.6094 37.9109C84.0047 37.635 84.4988 37.497 85.0917 37.497H85.1456C86.0081 37.497 86.6594 37.7774 87.0996 38.3381C87.5488 38.8988 87.7734 39.6776 87.7734 40.6744V44.773H86.7762V40.4608C86.7762 39.8289 86.601 39.3305 86.2506 38.9656C85.9003 38.6007 85.4286 38.4182 84.8357 38.4182C84.1979 38.4182 83.6903 38.6229 83.313 39.0323C82.9357 39.4328 82.747 39.9624 82.747 40.621V44.773H81.7363Z" fill="#EAF0FF"/>
<path d="M90.883 36.4023C90.6405 36.4023 90.4563 36.34 90.3306 36.2154C90.2138 36.0819 90.1554 35.9172 90.1554 35.7214C90.1554 35.5167 90.2138 35.352 90.3306 35.2274C90.4563 35.1028 90.6405 35.0405 90.883 35.0405C91.1256 35.0405 91.3053 35.1028 91.4221 35.2274C91.5389 35.352 91.5973 35.5167 91.5973 35.7214C91.5973 35.9172 91.5389 36.0819 91.4221 36.2154C91.3053 36.34 91.1256 36.4023 90.883 36.4023ZM90.6674 44.773V38.5117H89.522V37.7106H91.6646V44.773H90.6674Z" fill="#EAF0FF"/>
<path d="M94.3844 44.773V35.8416H93.3468V35.0272H95.395V44.773H94.3844Z" fill="#EAF0FF"/>
<path d="M100.939 45C100.247 45 99.6364 44.8353 99.1064 44.506C98.5853 44.1678 98.1766 43.7228 97.8801 43.171C97.5926 42.6103 97.4489 41.9961 97.4489 41.3286V41.1417C97.4489 40.5009 97.5881 39.9046 97.8666 39.3527C98.1541 38.792 98.5584 38.3381 99.0794 37.991C99.6005 37.6439 100.211 37.4703 100.912 37.4703C101.505 37.4703 102.035 37.6038 102.502 37.8708C102.969 38.1289 103.338 38.5028 103.607 38.9923V35.0272H104.618V44.773H103.809V43.1843C103.558 43.7896 103.176 44.2435 102.664 44.5461C102.152 44.8487 101.577 45 100.939 45ZM101.074 44.1189C101.559 44.1189 101.995 44.0121 102.381 43.7985C102.776 43.5759 103.086 43.2733 103.311 42.8906C103.535 42.499 103.648 42.0406 103.648 41.5155V40.8747C103.648 40.3763 103.531 39.9402 103.297 39.5663C103.073 39.1836 102.763 38.8855 102.367 38.6719C101.981 38.4583 101.545 38.3515 101.06 38.3515C100.521 38.3515 100.059 38.4805 99.6723 38.7386C99.286 38.9878 98.9851 39.3305 98.7695 39.7666C98.5629 40.2027 98.4596 40.6922 98.4596 41.2352C98.4596 41.7959 98.5674 42.2943 98.783 42.7304C98.9986 43.1665 99.2995 43.5092 99.6858 43.7584C100.081 43.9987 100.544 44.1189 101.074 44.1189Z" fill="#EAF0FF"/>
<path d="M107.227 44.773V37.7106H108.035V39.6865C108.287 38.3158 109.208 37.6305 110.798 37.6305H111.027V38.5384H110.609C109.836 38.5384 109.248 38.7386 108.844 39.1391C108.439 39.5396 108.237 40.1182 108.237 40.8747V44.773H107.227Z" fill="#EAF0FF"/>
<path d="M115.548 45C114.928 45 114.393 44.8976 113.944 44.6929C113.504 44.4793 113.14 44.199 112.852 43.8519C112.565 43.4958 112.349 43.0998 112.206 42.6637C112.071 42.2186 112.004 41.7692 112.004 41.3153V41.1284C112.004 40.6744 112.075 40.2294 112.219 39.7933C112.363 39.3572 112.574 38.9656 112.852 38.6185C113.14 38.2713 113.499 37.9954 113.93 37.7907C114.371 37.5771 114.883 37.4703 115.467 37.4703C116.212 37.4703 116.832 37.635 117.326 37.9643C117.829 38.2847 118.207 38.7075 118.458 39.2326C118.71 39.7488 118.836 40.2962 118.836 40.8747V41.3954H112.974C112.992 41.9027 113.095 42.3655 113.284 42.7838C113.472 43.1932 113.755 43.5181 114.133 43.7584C114.51 43.9987 114.982 44.1189 115.548 44.1189C116.167 44.1189 116.671 43.9809 117.057 43.705C117.443 43.4291 117.681 43.0953 117.771 42.7037H118.714C118.571 43.4068 118.216 43.9676 117.65 44.3859C117.093 44.7953 116.392 45 115.548 45ZM115.467 38.3515C114.739 38.3515 114.169 38.5651 113.755 38.9923C113.351 39.4195 113.104 39.9624 113.014 40.621H117.852C117.789 39.9446 117.555 39.3972 117.151 38.9789C116.747 38.5606 116.185 38.3515 115.467 38.3515Z" fill="#EAF0FF"/>
<path d="M120.781 44.773V37.7106H121.59V39.3527C121.751 38.7653 122.039 38.3114 122.452 37.991C122.874 37.6617 123.427 37.497 124.11 37.497H124.15C125.048 37.497 125.718 37.7774 126.158 38.3381C126.598 38.8899 126.818 39.6687 126.818 40.6744V44.773H125.821V40.4608C125.821 39.8467 125.65 39.3527 125.309 38.9789C124.968 38.6051 124.491 38.4182 123.88 38.4182C123.252 38.4182 122.744 38.614 122.358 39.0056C121.98 39.3883 121.792 39.8957 121.792 40.5276V44.773H120.781Z" fill="#EAF0FF"/>
<path d="M137.021 45C136.168 45 135.427 44.8487 134.798 44.5461C134.169 44.2435 133.643 43.843 133.221 43.3445C132.808 42.8461 132.498 42.3032 132.291 41.7158C132.094 41.1284 131.995 40.5543 131.995 39.9936V39.7533C131.995 39.1569 132.098 38.5651 132.305 37.9776C132.52 37.3813 132.839 36.8428 133.262 36.3622C133.684 35.8816 134.209 35.4989 134.838 35.2141C135.467 34.9204 136.195 34.7735 137.021 34.7735C137.857 34.7735 138.584 34.9204 139.204 35.2141C139.833 35.4989 140.359 35.8816 140.781 36.3622C141.203 36.8428 141.518 37.3813 141.724 37.9776C141.94 38.5651 142.048 39.1569 142.048 39.7533V40.0069C142.048 40.5676 141.944 41.1417 141.738 41.7291C141.54 42.3077 141.235 42.8461 140.821 43.3445C140.408 43.843 139.883 44.2435 139.245 44.5461C138.616 44.8487 137.875 45 137.021 45ZM137.021 44.0655C137.65 44.0655 138.212 43.9542 138.706 43.7317C139.2 43.5003 139.618 43.1888 139.959 42.7972C140.3 42.3967 140.561 41.9472 140.741 41.4488C140.92 40.9504 141.01 40.4297 141.01 39.8868C141.01 39.1302 140.848 38.436 140.525 37.8041C140.211 37.1722 139.752 36.6648 139.15 36.2821C138.558 35.8994 137.848 35.7081 137.021 35.7081C136.204 35.7081 135.494 35.8994 134.892 36.2821C134.299 36.6648 133.841 37.1722 133.518 37.8041C133.194 38.436 133.033 39.1302 133.033 39.8868C133.033 40.4297 133.122 40.9504 133.302 41.4488C133.482 41.9472 133.742 42.3967 134.084 42.7972C134.434 43.1888 134.856 43.5003 135.35 43.7317C135.844 43.9542 136.401 44.0655 137.021 44.0655Z" fill="#EAF0FF"/>
<path d="M144.368 44.773V38.5384H143.33V37.764H144.368V37.1633C144.368 36.4156 144.561 35.8683 144.947 35.5211C145.343 35.1651 145.922 34.9871 146.686 34.9871H147.589V35.8416H146.497C146.12 35.8416 145.832 35.9395 145.635 36.1353C145.437 36.3311 145.338 36.607 145.338 36.963V37.764H147.737V38.5384H145.338V44.773H144.368Z" fill="#EAF0FF"/>
<path d="M154.507 44.773V35.9484H151.435V35.0272H158.604V35.9484H155.531V44.773H154.507Z" fill="#EAF0FF"/>
<path d="M160.286 44.773V35.0272H161.297V39.019C161.486 38.5473 161.773 38.1779 162.16 37.9109C162.555 37.635 163.049 37.497 163.642 37.497H163.696C164.558 37.497 165.21 37.7774 165.65 38.3381C166.099 38.8988 166.324 39.6776 166.324 40.6744V44.773H165.326V40.4608C165.326 39.8289 165.151 39.3305 164.801 38.9656C164.45 38.6007 163.979 38.4182 163.386 38.4182C162.748 38.4182 162.24 38.6229 161.863 39.0323C161.486 39.4328 161.297 39.9624 161.297 40.621V44.773H160.286Z" fill="#EAF0FF"/>
<path d="M171.818 45C171.198 45 170.664 44.8976 170.215 44.6929C169.775 44.4793 169.411 44.199 169.123 43.8519C168.836 43.4958 168.62 43.0998 168.476 42.6637C168.342 42.2186 168.274 41.7692 168.274 41.3153V41.1284C168.274 40.6744 168.346 40.2294 168.49 39.7933C168.634 39.3572 168.845 38.9656 169.123 38.6185C169.411 38.2713 169.77 37.9954 170.201 37.7907C170.642 37.5771 171.154 37.4703 171.738 37.4703C172.483 37.4703 173.103 37.635 173.597 37.9643C174.1 38.2847 174.478 38.7075 174.729 39.2326C174.981 39.7488 175.106 40.2962 175.106 40.8747V41.3954H169.245C169.263 41.9027 169.366 42.3655 169.554 42.7838C169.743 43.1932 170.026 43.5181 170.403 43.7584C170.781 43.9987 171.252 44.1189 171.818 44.1189C172.438 44.1189 172.941 43.9809 173.328 43.705C173.714 43.4291 173.952 43.0953 174.042 42.7037H174.985C174.841 43.4068 174.487 43.9676 173.921 44.3859C173.364 44.7953 172.663 45 171.818 45ZM171.738 38.3515C171.01 38.3515 170.439 38.5651 170.026 38.9923C169.622 39.4195 169.375 39.9624 169.285 40.621H174.123C174.06 39.9446 173.826 39.3972 173.422 38.9789C173.018 38.5606 172.456 38.3515 171.738 38.3515Z" fill="#EAF0FF"/>
<path d="M180.426 44.773V35.0272H182.138L187.528 43.8519H187.689V35.0272H188.673V44.773H186.948L181.558 35.9484H181.396V44.773H180.426Z" fill="#EAF0FF"/>
<path d="M193.441 44.96C192.678 44.96 192.062 44.7641 191.595 44.3725C191.128 43.9809 190.895 43.4202 190.895 42.6904C190.895 41.9783 191.137 41.431 191.622 41.0483C192.116 40.6655 192.808 40.4742 193.697 40.4742H195.692V40.1404C195.692 39.6153 195.553 39.2148 195.274 38.9389C194.996 38.6541 194.564 38.5117 193.98 38.5117C193.576 38.5117 193.172 38.5206 192.768 38.5384C192.363 38.5562 192.017 38.5784 191.73 38.6051V37.724C192.017 37.6973 192.327 37.675 192.66 37.6572C192.992 37.6394 193.311 37.6305 193.617 37.6305C194.704 37.6305 195.481 37.8352 195.948 38.2446C196.424 38.6452 196.662 39.3082 196.662 40.2339V44.773H195.854V43.3312C195.692 43.8741 195.4 44.2835 194.978 44.5594C194.564 44.8264 194.052 44.96 193.441 44.96ZM193.63 44.1589C193.962 44.1589 194.281 44.1011 194.587 43.9854C194.892 43.8608 195.148 43.6561 195.355 43.3712C195.562 43.0775 195.674 42.677 195.692 42.1697V41.2352H193.63C193.064 41.2352 192.628 41.3731 192.323 41.649C192.026 41.916 191.878 42.2676 191.878 42.7037C191.878 43.1487 192.035 43.5047 192.35 43.7718C192.664 44.0299 193.091 44.1589 193.63 44.1589Z" fill="#EAF0FF"/>
<path d="M201.774 44.8531C201.289 44.8531 200.862 44.7819 200.494 44.6395C200.134 44.4971 199.856 44.2568 199.658 43.9186C199.46 43.5804 199.362 43.1176 199.362 42.5302V38.4716H198.082V37.7106H199.362V35.4811H200.332V37.7106H202.906V38.4716H200.332V42.677C200.332 43.0775 200.444 43.389 200.669 43.6115C200.893 43.8341 201.212 43.9453 201.626 43.9453H202.906V44.8531H201.774Z" fill="#EAF0FF"/>
<path d="M205.451 36.4023C205.209 36.4023 205.025 36.34 204.899 36.2154C204.782 36.0819 204.724 35.9172 204.724 35.7214C204.724 35.5167 204.782 35.352 204.899 35.2274C205.025 35.1028 205.209 35.0405 205.451 35.0405C205.694 35.0405 205.873 35.1028 205.99 35.2274C206.107 35.352 206.165 35.5167 206.165 35.7214C206.165 35.9172 206.107 36.0819 205.99 36.2154C205.873 36.34 205.694 36.4023 205.451 36.4023ZM205.236 44.773V38.5117H204.09V37.7106H206.233V44.773H205.236Z" fill="#EAF0FF"/>
<path d="M212.079 45C211.468 45 210.929 44.8976 210.462 44.6929C209.995 44.4793 209.604 44.199 209.289 43.8519C208.975 43.4958 208.732 43.0998 208.562 42.6637C208.4 42.2275 208.319 41.7825 208.319 41.3286V41.1417C208.319 40.6878 208.405 40.2428 208.575 39.8067C208.746 39.3705 208.993 38.9789 209.316 38.6318C209.64 38.2758 210.031 37.9954 210.489 37.7907C210.956 37.5771 211.486 37.4703 212.079 37.4703C212.672 37.4703 213.202 37.5771 213.669 37.7907C214.136 37.9954 214.531 38.2758 214.855 38.6318C215.178 38.9789 215.421 39.3705 215.583 39.8067C215.753 40.2428 215.839 40.6878 215.839 41.1417V41.3286C215.839 41.7825 215.758 42.2275 215.596 42.6637C215.434 43.0998 215.192 43.4958 214.868 43.8519C214.554 44.199 214.163 44.4793 213.696 44.6929C213.229 44.8976 212.69 45 212.079 45ZM212.079 44.1055C212.672 44.1055 213.17 43.9765 213.575 43.7184C213.988 43.4602 214.302 43.1131 214.518 42.677C214.734 42.2409 214.841 41.7603 214.841 41.2352C214.841 40.7011 214.729 40.2205 214.504 39.7933C214.28 39.3572 213.961 39.0145 213.548 38.7653C213.143 38.5072 212.654 38.3782 212.079 38.3782C211.513 38.3782 211.023 38.5072 210.61 38.7653C210.197 39.0145 209.878 39.3572 209.653 39.7933C209.438 40.2205 209.33 40.7011 209.33 41.2352C209.33 41.7603 209.438 42.2409 209.653 42.677C209.869 43.1131 210.179 43.4602 210.583 43.7184C210.996 43.9765 211.495 44.1055 212.079 44.1055Z" fill="#EAF0FF"/>
<path d="M217.9 44.773V37.7106H218.708V39.3527C218.87 38.7653 219.157 38.3114 219.571 37.991C219.993 37.6617 220.545 37.497 221.228 37.497H221.268C222.167 37.497 222.836 37.7774 223.276 38.3381C223.717 38.8899 223.937 39.6687 223.937 40.6744V44.773H222.939V40.4608C222.939 39.8467 222.769 39.3527 222.427 38.9789C222.086 38.6051 221.61 38.4182 220.999 38.4182C220.37 38.4182 219.863 38.614 219.476 39.0056C219.099 39.3883 218.91 39.8957 218.91 40.5276V44.773H217.9Z" fill="#EAF0FF"/>
</svg>
