<svg width="233" height="51" viewBox="0 0 233 51" fill="none" xmlns="http://www.w3.org/2000/svg">
<path fill-rule="evenodd" clip-rule="evenodd" d="M25.8889 0C11.5982 0 0 11.424 0 25.5C0 39.576 11.5982 51 25.8889 51C40.1796 51 51.7778 39.576 51.7778 25.5C51.7778 11.424 40.1796 0 25.8889 0ZM37.6424 35.3175L35.8561 37.077C34.8464 38.0715 33.2154 38.0715 32.2058 37.077L24.3097 29.2995C21.1512 30.396 17.475 29.733 14.9379 27.234C12.0642 24.4035 11.5723 20.1195 13.4104 16.779L19.4943 22.7715L23.1447 19.176L17.0349 13.1835C20.4522 11.373 24.7757 11.8575 27.6493 14.688C30.1864 17.187 30.8596 20.808 29.7463 23.919L37.6424 31.6965C38.6521 32.691 38.6521 34.323 37.6424 35.3175Z" fill="#EAF0FF"/>
<path d="M66.2234 24.016V4.73499H69.8793V20.7145H77.4743V24.016H66.2234Z" fill="#EAF0FF"/>
<path d="M78.8014 24.016L85.2121 4.73499H91.1851L97.776 24.016H94.0172L92.2922 18.892H84.105L82.4573 24.016H78.8014ZM85.1349 15.7225H91.2366L88.6363 7.87806H87.6837L85.1349 15.7225Z" fill="#EAF0FF"/>
<path d="M100.568 24.1481V4.60293H107.313C109.442 4.60293 111.055 5.06074 112.153 5.97637C113.269 6.892 113.827 8.20382 113.827 9.91182V10.2816C113.827 11.2148 113.655 11.9896 113.312 12.6059C112.986 13.2222 112.531 13.724 111.947 14.1114C112.771 14.4636 113.415 14.983 113.878 15.6697C114.359 16.3564 114.599 17.2545 114.599 18.3638V18.7336C114.599 20.4592 114.041 21.7974 112.926 22.7482C111.827 23.6815 110.214 24.1481 108.086 24.1481H100.568ZM107.648 7.61394H104.147V12.8436H107.648C108.523 12.8436 109.167 12.6059 109.579 12.1305C109.991 11.655 110.197 11.0211 110.197 10.2288C110.197 9.4364 109.991 8.8025 109.579 8.32708C109.167 7.85165 108.523 7.61394 107.648 7.61394ZM108.343 15.749H104.147V21.1371H108.343C109.201 21.1371 109.853 20.8994 110.3 20.424C110.746 19.9485 110.969 19.2794 110.969 18.4166C110.969 17.5714 110.746 16.9199 110.3 16.4621C109.853 15.9867 109.201 15.749 108.343 15.749Z" fill="#EAF0FF"/>
<path d="M116.138 24.016L122.548 4.73499H128.521L135.112 24.016H131.354L129.629 18.892H121.441L119.794 24.016H116.138ZM122.471 15.7225H128.573L125.973 7.87806H125.02L122.471 15.7225Z" fill="#EAF0FF"/>
<path d="M137.904 24.1217V4.60293H144.701C146.4 4.60293 147.876 4.86705 149.129 5.3953C150.4 5.90594 151.455 6.61027 152.296 7.50829C153.154 8.3887 153.789 9.39237 154.201 10.5193C154.63 11.6462 154.845 12.8172 154.845 14.0322V14.6132C154.845 15.7754 154.63 16.9199 154.201 18.0468C153.789 19.1738 153.154 20.195 152.296 21.1107C151.455 22.0263 150.4 22.757 149.129 23.3029C147.876 23.8488 146.4 24.1217 144.701 24.1217H137.904ZM144.933 8.08936H141.56V20.6353H144.933C146.22 20.6353 147.327 20.3711 148.254 19.8429C149.181 19.297 149.893 18.5487 150.391 17.5978C150.889 16.647 151.138 15.5553 151.138 14.3227C151.138 12.4034 150.588 10.8891 149.49 9.77976C148.391 8.65283 146.872 8.08936 144.933 8.08936Z" fill="#EAF0FF"/>
<path d="M158.17 24.016V4.73499H161.826V24.016H158.17Z" fill="#EAF0FF"/>
<path d="M166.516 24.016V4.73499H177.896V7.90448H170.095V12.6323H177.432V15.8018H170.095V20.8465H178.102V24.016H166.516Z" fill="#EAF0FF"/>
<path d="M187.41 24.016V4.73499H191.065V20.7145H198.66V24.016H187.41Z" fill="#EAF0FF"/>
<path d="M201.64 24.016V4.73499H205.296V20.7145H212.891V24.016H201.64Z" fill="#EAF0FF"/>
<path d="M223.989 24.5179C222.273 24.5179 220.805 24.2097 219.586 23.5934C218.385 22.9772 217.398 22.176 216.626 21.1899C215.87 20.2039 215.313 19.1386 214.952 17.994C214.592 16.8319 214.412 15.7049 214.412 14.6132V14.0322C214.412 12.8524 214.592 11.6814 214.952 10.5193C215.33 9.33955 215.905 8.27425 216.677 7.3234C217.45 6.37256 218.428 5.6154 219.612 5.05194C220.797 4.47086 222.213 4.18033 223.86 4.18033C225.542 4.18033 227.018 4.49728 228.289 5.13117C229.559 5.76507 230.571 6.64549 231.327 7.77241C232.082 8.89934 232.537 10.22 232.691 11.7343H229.009C228.803 10.4137 228.228 9.40998 227.284 8.72326C226.358 8.01893 225.216 7.66677 223.86 7.66677C222.607 7.66677 221.552 7.9573 220.694 8.53837C219.852 9.10184 219.209 9.88541 218.763 10.8891C218.334 11.8927 218.119 13.0461 218.119 14.3491C218.119 15.6169 218.342 16.7526 218.788 17.7563C219.235 18.76 219.895 19.5611 220.771 20.1598C221.646 20.7409 222.719 21.0314 223.989 21.0314C225.396 21.0314 226.581 20.6793 227.542 19.9749C228.52 19.253 229.112 18.2493 229.318 16.9639H233C232.828 18.355 232.365 19.6228 231.61 20.7673C230.872 21.9119 229.859 22.8275 228.572 23.5142C227.302 24.1833 225.774 24.5179 223.989 24.5179Z" fill="#EAF0FF"/>
<path d="M67.5486 46.5715V36.9234H64.3047V35.9162H71.8739V36.9234H68.6299V46.5715H67.5486Z" fill="#EAF0FF"/>
<path d="M73.86 37.4196C73.6039 37.4196 73.4095 37.3515 73.2767 37.2153C73.1534 37.0693 73.0917 36.8893 73.0917 36.6752C73.0917 36.4514 73.1534 36.2714 73.2767 36.1352C73.4095 35.9989 73.6039 35.9308 73.86 35.9308C74.1161 35.9308 74.3058 35.9989 74.4292 36.1352C74.5525 36.2714 74.6141 36.4514 74.6141 36.6752C74.6141 36.8893 74.5525 37.0693 74.4292 37.2153C74.3058 37.3515 74.1161 37.4196 73.86 37.4196ZM73.6324 46.5715V39.7259H72.423V38.8501H74.6853V46.5715H73.6324Z" fill="#EAF0FF"/>
<path d="M77.4857 46.5715V38.8355H78.3394V40.6162C78.5006 39.9935 78.7852 39.5069 79.1931 39.1566C79.6009 38.7966 80.1416 38.6165 80.815 38.6165H80.8577C81.5217 38.6165 82.0576 38.7917 82.4655 39.142C82.8734 39.4923 83.1579 39.9837 83.3192 40.6162C83.4899 39.9935 83.7792 39.5069 84.1871 39.1566C84.6044 38.7966 85.1451 38.6165 85.809 38.6165H85.8517C86.7433 38.6165 87.4073 38.9279 87.8436 39.5507C88.2894 40.1735 88.5124 41.0201 88.5124 42.0905V46.5715H87.4453V41.8423C87.4453 41.1612 87.284 40.6211 86.9615 40.2221C86.639 39.8232 86.1742 39.6237 85.5672 39.6237C84.9411 39.6237 84.4432 39.8329 84.0732 40.2513C83.7128 40.6698 83.5326 41.2244 83.5326 41.9153V46.5715H82.4655V41.8423C82.4655 41.1612 82.3042 40.6211 81.9817 40.2221C81.6592 39.8232 81.1945 39.6237 80.5874 39.6237C79.9614 39.6237 79.4634 39.8329 79.0935 40.2513C78.733 40.6698 78.5528 41.2244 78.5528 41.9153V46.5715H77.4857Z" fill="#EAF0FF"/>
<path d="M94.3161 46.8197C93.6616 46.8197 93.0973 46.7078 92.623 46.484C92.1582 46.2504 91.7741 45.9439 91.4705 45.5644C91.167 45.1752 90.9394 44.7421 90.7876 44.2653C90.6453 43.7788 90.5742 43.2874 90.5742 42.7911V42.5867C90.5742 42.0905 90.6501 41.6039 90.8018 41.1271C90.9536 40.6503 91.1765 40.2221 91.4705 39.8426C91.7741 39.4631 92.1535 39.1615 92.6088 38.9377C93.0735 38.7041 93.6142 38.5873 94.2308 38.5873C95.018 38.5873 95.6725 38.7674 96.1942 39.1274C96.7254 39.4777 97.1238 39.9399 97.3894 40.5141C97.6549 41.0785 97.7877 41.6769 97.7877 42.3094V42.8787H91.5986C91.6176 43.4333 91.7266 43.9393 91.9258 44.3967C92.125 44.8443 92.4238 45.1995 92.8222 45.4622C93.2206 45.7249 93.7185 45.8563 94.3161 45.8563C94.9706 45.8563 95.5018 45.7055 95.9096 45.4038C96.3175 45.1022 96.5689 44.7373 96.6637 44.3091H97.6597C97.5079 45.0778 97.1332 45.6909 96.5357 46.1482C95.9476 46.5959 95.2077 46.8197 94.3161 46.8197ZM94.2308 39.5507C93.4624 39.5507 92.8601 39.7842 92.4238 40.2513C91.997 40.7184 91.7361 41.312 91.6413 42.0321H96.7491C96.6827 41.2925 96.4361 40.6941 96.0092 40.2367C95.5824 39.7794 94.9896 39.5507 94.2308 39.5507Z" fill="#EAF0FF"/>
<path d="M103.433 46.5715V35.9162H104.514V46.5715H103.433Z" fill="#EAF0FF"/>
<path d="M109.915 46.7905C108.948 46.7905 108.203 46.5764 107.682 46.1482C107.16 45.7104 106.894 45.1265 106.885 44.3967H107.881C107.89 44.7762 108.047 45.1168 108.35 45.4184C108.663 45.7104 109.185 45.8563 109.915 45.8563C110.589 45.8563 111.092 45.7152 111.424 45.433C111.765 45.1411 111.936 44.7908 111.936 44.3821C111.936 43.6523 111.39 43.2241 110.3 43.0976L109.446 43.01C108.754 42.9322 108.199 42.7181 107.781 42.3678C107.364 42.0175 107.155 41.5261 107.155 40.8936C107.155 40.2124 107.407 39.6626 107.909 39.2442C108.412 38.8258 109.081 38.6165 109.915 38.6165C110.722 38.6165 111.376 38.8112 111.879 39.2004C112.391 39.5896 112.652 40.1443 112.661 40.8644H111.666C111.656 40.4946 111.504 40.1832 111.21 39.9302C110.916 39.6772 110.485 39.5507 109.915 39.5507C109.327 39.5507 108.886 39.6869 108.592 39.9594C108.308 40.2221 108.165 40.5384 108.165 40.9082C108.165 41.2293 108.275 41.4969 108.493 41.711C108.711 41.9153 109.052 42.0418 109.517 42.0905L110.371 42.178C111.13 42.2656 111.746 42.4894 112.22 42.8495C112.704 43.2095 112.946 43.7253 112.946 44.3967C112.946 44.854 112.818 45.2676 112.562 45.6374C112.315 45.9974 111.964 46.2796 111.509 46.484C111.054 46.6883 110.523 46.7905 109.915 46.7905Z" fill="#EAF0FF"/>
<path d="M123.172 46.8197C122.318 46.8197 121.559 46.6737 120.895 46.3818C120.241 46.0899 119.686 45.6909 119.23 45.1849C118.785 44.6692 118.448 44.0804 118.22 43.4187C117.993 42.757 117.879 42.0515 117.879 41.3023V41.0395C117.879 40.3584 117.988 39.6967 118.206 39.0544C118.434 38.4122 118.761 37.8332 119.188 37.3175C119.624 36.8017 120.155 36.393 120.781 36.0914C121.407 35.7897 122.128 35.6389 122.944 35.6389C123.788 35.6389 124.537 35.8043 125.192 36.1352C125.846 36.4563 126.373 36.9088 126.771 37.4926C127.17 38.0765 127.407 38.7528 127.483 39.5215H126.387C126.311 38.8987 126.107 38.3733 125.775 37.9451C125.453 37.517 125.045 37.1958 124.552 36.9818C124.058 36.7677 123.523 36.6606 122.944 36.6606C122.128 36.6606 121.422 36.8552 120.824 37.2445C120.236 37.6337 119.781 38.1689 119.458 38.8501C119.136 39.5312 118.974 40.3097 118.974 41.1855C118.974 42.1099 119.14 42.9225 119.472 43.6231C119.804 44.314 120.283 44.854 120.909 45.2433C121.535 45.6325 122.289 45.8271 123.172 45.8271C123.836 45.8271 124.438 45.7152 124.979 45.4914C125.529 45.2676 125.984 44.9659 126.344 44.5864V42.4992H122.787V41.565H128.294V42.4992H127.369V44.9221C126.923 45.5157 126.344 45.9828 125.633 46.3234C124.922 46.6542 124.101 46.8197 123.172 46.8197Z" fill="#EAF0FF"/>
<path d="M133.587 46.8197C132.942 46.8197 132.373 46.7078 131.88 46.484C131.387 46.2504 130.974 45.9439 130.642 45.5644C130.31 45.1752 130.054 44.7421 129.874 44.2653C129.703 43.7885 129.618 43.302 129.618 42.8057V42.6013C129.618 42.1051 129.708 41.6185 129.888 41.1417C130.068 40.6649 130.329 40.2367 130.67 39.8572C131.012 39.468 131.425 39.1615 131.908 38.9377C132.402 38.7041 132.961 38.5873 133.587 38.5873C134.213 38.5873 134.773 38.7041 135.266 38.9377C135.759 39.1615 136.177 39.468 136.518 39.8572C136.86 40.2367 137.116 40.6649 137.286 41.1417C137.467 41.6185 137.557 42.1051 137.557 42.6013V42.8057C137.557 43.302 137.471 43.7885 137.301 44.2653C137.13 44.7421 136.874 45.1752 136.532 45.5644C136.2 45.9439 135.788 46.2504 135.295 46.484C134.801 46.7078 134.232 46.8197 133.587 46.8197ZM133.587 45.8417C134.213 45.8417 134.74 45.7006 135.166 45.4184C135.603 45.1362 135.935 44.7567 136.162 44.2799C136.39 43.8031 136.504 43.2776 136.504 42.7035C136.504 42.1197 136.385 41.5942 136.148 41.1271C135.911 40.6503 135.574 40.2757 135.138 40.0032C134.711 39.721 134.194 39.5799 133.587 39.5799C132.99 39.5799 132.473 39.721 132.036 40.0032C131.6 40.2757 131.263 40.6503 131.026 41.1271C130.798 41.5942 130.685 42.1197 130.685 42.7035C130.685 43.2776 130.798 43.8031 131.026 44.2799C131.254 44.7567 131.581 45.1362 132.008 45.4184C132.444 45.7006 132.971 45.8417 133.587 45.8417Z" fill="#EAF0FF"/>
<path d="M139.804 46.5715V36.8066H138.708V35.9162H140.871V46.5715H139.804Z" fill="#EAF0FF"/>
<path d="M146.725 46.8197C145.994 46.8197 145.349 46.6396 144.79 46.2796C144.24 45.9098 143.808 45.4233 143.495 44.82C143.191 44.2069 143.04 43.5355 143.04 42.8057V42.6013C143.04 41.9007 143.187 41.2487 143.481 40.6454C143.784 40.0324 144.211 39.5361 144.761 39.1566C145.311 38.7771 145.956 38.5873 146.696 38.5873C147.322 38.5873 147.882 38.7333 148.375 39.0252C148.868 39.3074 149.257 39.7161 149.542 40.2513V35.9162H150.609V46.5715H149.755V44.8346C149.49 45.4963 149.086 45.9925 148.546 46.3234C148.005 46.6542 147.398 46.8197 146.725 46.8197ZM146.867 45.8563C147.379 45.8563 147.839 45.7395 148.247 45.506C148.664 45.2627 148.992 44.9319 149.229 44.5135C149.466 44.0853 149.584 43.5842 149.584 43.01V42.3094C149.584 41.7645 149.461 41.2877 149.215 40.879C148.977 40.4605 148.65 40.1346 148.233 39.901C147.825 39.6675 147.365 39.5507 146.853 39.5507C146.284 39.5507 145.795 39.6918 145.387 39.974C144.979 40.2465 144.662 40.6211 144.434 41.0979C144.216 41.5747 144.107 42.1099 144.107 42.7035C144.107 43.3166 144.221 43.8615 144.448 44.3383C144.676 44.8151 144.994 45.1898 145.401 45.4622C145.819 45.7249 146.307 45.8563 146.867 45.8563Z" fill="#EAF0FF"/>
<path d="M156.508 46.8197C155.853 46.8197 155.289 46.7078 154.815 46.484C154.35 46.2504 153.966 45.9439 153.662 45.5644C153.359 45.1752 153.131 44.7421 152.979 44.2653C152.837 43.7788 152.766 43.2874 152.766 42.7911V42.5867C152.766 42.0905 152.842 41.6039 152.993 41.1271C153.145 40.6503 153.368 40.2221 153.662 39.8426C153.966 39.4631 154.345 39.1615 154.8 38.9377C155.265 38.7041 155.806 38.5873 156.422 38.5873C157.21 38.5873 157.864 38.7674 158.386 39.1274C158.917 39.4777 159.315 39.9399 159.581 40.5141C159.847 41.0785 159.979 41.6769 159.979 42.3094V42.8787H153.79C153.809 43.4333 153.918 43.9393 154.117 44.3967C154.317 44.8443 154.615 45.1995 155.014 45.4622C155.412 45.7249 155.91 45.8563 156.508 45.8563C157.162 45.8563 157.693 45.7055 158.101 45.4038C158.509 45.1022 158.76 44.7373 158.855 44.3091H159.851C159.699 45.0778 159.325 45.6909 158.727 46.1482C158.139 46.5959 157.399 46.8197 156.508 46.8197ZM156.422 39.5507C155.654 39.5507 155.052 39.7842 154.615 40.2513C154.189 40.7184 153.928 41.312 153.833 42.0321H158.941C158.874 41.2925 158.628 40.6941 158.201 40.2367C157.774 39.7794 157.181 39.5507 156.422 39.5507Z" fill="#EAF0FF"/>
<path d="M162.033 46.5715V38.8501H162.887V40.6454C163.058 40.0032 163.361 39.5069 163.798 39.1566C164.244 38.7966 164.827 38.6165 165.548 38.6165H165.59C166.539 38.6165 167.246 38.9231 167.71 39.5361C168.175 40.1394 168.408 40.9909 168.408 42.0905V46.5715H167.355V41.8569C167.355 41.1855 167.174 40.6454 166.814 40.2367C166.454 39.828 165.951 39.6237 165.306 39.6237C164.642 39.6237 164.106 39.8378 163.698 40.2659C163.3 40.6844 163.101 41.239 163.101 41.9299V46.5715H162.033Z" fill="#EAF0FF"/>
</svg>
