<svg width="279" height="51" viewBox="0 0 279 51" fill="none" xmlns="http://www.w3.org/2000/svg">
<path d="M2.62531 28.3333H18.3771C19.8211 28.3333 21.0025 27.0583 21.0025 25.5V2.83333C21.0025 1.275 19.8211 0 18.3771 0H2.62531C1.18139 0 0 1.275 0 2.83333V25.5C0 27.0583 1.18139 28.3333 2.62531 28.3333ZM2.62531 51H18.3771C19.8211 51 21.0025 49.725 21.0025 48.1667V36.8333C21.0025 35.275 19.8211 34 18.3771 34H2.62531C1.18139 34 0 35.275 0 36.8333V48.1667C0 49.725 1.18139 51 2.62531 51ZM28.8784 51H44.6302C46.0741 51 47.2555 49.725 47.2555 48.1667V25.5C47.2555 23.9417 46.0741 22.6667 44.6302 22.6667H28.8784C27.4345 22.6667 26.2531 23.9417 26.2531 25.5V48.1667C26.2531 49.725 27.4345 51 28.8784 51ZM26.2531 2.83333V14.1667C26.2531 15.725 27.4345 17 28.8784 17H44.6302C46.0741 17 47.2555 15.725 47.2555 14.1667V2.83333C47.2555 1.275 46.0741 0 44.6302 0H28.8784C27.4345 0 26.2531 1.275 26.2531 2.83333Z" fill="#EAF0FF"/>
<path d="M63.9066 24.5992C62.4551 24.5992 61.228 24.3488 60.2254 23.8482C59.2228 23.3475 58.4596 22.6612 57.9359 21.7891C57.4271 20.917 57.1727 19.9157 57.1727 18.7852H60.2928C60.2928 19.2697 60.4125 19.7299 60.6519 20.166C60.8913 20.602 61.2729 20.9573 61.7967 21.2319C62.3354 21.5064 63.0387 21.6437 63.9066 21.6437C65.0738 21.6437 65.9492 21.3853 66.5328 20.8685C67.1164 20.3517 67.4083 19.7219 67.4083 18.979C67.4083 18.3653 67.1613 17.8646 66.6675 17.477C66.1737 17.0894 65.4105 16.8472 64.378 16.7503L62.9414 16.6291C61.3702 16.4838 60.1132 15.9589 59.1704 15.0545C58.2427 14.134 57.7788 12.9227 57.7788 11.4208C57.7788 10.3064 58.0182 9.3374 58.497 8.51375C58.9909 7.6901 59.6867 7.06025 60.5846 6.6242C61.4824 6.172 62.5299 5.9459 63.727 5.9459C64.9541 5.9459 66.0166 6.18008 66.9144 6.64843C67.8273 7.11678 68.5306 7.77893 69.0244 8.63488C69.5182 9.47468 69.7651 10.4679 69.7651 11.6146H66.6451C66.6451 10.904 66.3982 10.2741 65.9043 9.725C65.4255 9.1759 64.6997 8.90135 63.727 8.90135C62.7693 8.90135 62.0585 9.15168 61.5946 9.65233C61.1308 10.153 60.8988 10.7425 60.8988 11.4208C60.8988 11.9699 61.0784 12.4544 61.4375 12.8743C61.8116 13.278 62.4102 13.5122 63.2332 13.5768L64.6698 13.7221C65.837 13.8352 66.8546 14.1097 67.7225 14.5458C68.6054 14.9657 69.2937 15.5471 69.7876 16.29C70.2814 17.0329 70.5283 17.9292 70.5283 18.979C70.5283 20.0933 70.2515 21.0785 69.6978 21.9344C69.1591 22.7742 68.3959 23.4283 67.4083 23.8966C66.4206 24.365 65.2534 24.5992 63.9066 24.5992Z" fill="#EAF0FF"/>
<path d="M80.8273 24.5992C79.3309 24.5992 78.0515 24.3165 76.989 23.7513C75.9415 23.186 75.081 22.4512 74.4077 21.5468C73.7492 20.6424 73.2629 19.6653 72.9486 18.6156C72.6344 17.5497 72.4773 16.5161 72.4773 15.5148V14.9818C72.4773 13.8998 72.6344 12.8258 72.9486 11.7599C73.2779 10.6779 73.7792 9.70078 74.4526 8.82868C75.1259 7.95658 75.9789 7.26213 77.0114 6.74533C78.044 6.21238 79.2785 5.9459 80.7151 5.9459C82.1816 5.9459 83.4685 6.2366 84.5759 6.818C85.6832 7.3994 86.5661 8.2069 87.2245 9.2405C87.883 10.2741 88.2795 11.4854 88.4142 12.8743H85.2044C85.0248 11.663 84.5235 10.7425 83.7005 10.1126C82.8924 9.4666 81.8973 9.1436 80.7151 9.1436C79.6227 9.1436 78.7024 9.41008 77.9542 9.94303C77.2209 10.4598 76.6598 11.1785 76.2707 12.0991C75.8966 13.0196 75.7095 14.0774 75.7095 15.2725C75.7095 16.4353 75.9041 17.477 76.2932 18.3976C76.6822 19.3181 77.2584 20.0529 78.0215 20.602C78.7847 21.135 79.72 21.4015 80.8273 21.4015C82.0544 21.4015 83.0869 21.0785 83.9249 20.4325C84.7779 19.7703 85.2942 18.8498 85.4737 17.6708H88.6836C88.5339 18.9467 88.1299 20.1095 87.4715 21.1592C86.828 22.209 85.9451 23.0488 84.8228 23.6786C83.7154 24.2923 82.3836 24.5992 80.8273 24.5992Z" fill="#EAF0FF"/>
<path d="M91.3733 24.1389V6.45463H94.5606V13.7706H102.125V6.45463H105.312V24.1389H102.125V16.7987H94.5606V24.1389H91.3733Z" fill="#EAF0FF"/>
<path d="M116.104 24.5992C114.563 24.5992 113.269 24.2842 112.221 23.6544C111.174 23.0245 110.38 22.1444 109.842 21.0139C109.303 19.8672 109.034 18.5268 109.034 16.9925V6.45463H112.221V17.1863C112.221 18.4622 112.55 19.4877 113.209 20.2629C113.882 21.0219 114.847 21.4015 116.104 21.4015C117.331 21.4015 118.274 21.0219 118.932 20.2629C119.606 19.5038 119.943 18.4783 119.943 17.1863V6.45463H123.13V16.9925C123.13 18.5268 122.861 19.8672 122.322 21.0139C121.783 22.1444 120.99 23.0245 119.943 23.6544C118.91 24.2842 117.631 24.5992 116.104 24.5992Z" fill="#EAF0FF"/>
<path d="M126.862 24.1389V6.45463H131.217L135.324 17.0167H135.729L139.814 6.45463H144.236V24.1389H141.071V10.1368L137.053 20.5294H133.798L129.78 10.2095V24.1389H126.862Z" fill="#EAF0FF"/>
<path d="M148.278 24.1389V6.45463H152.633L156.741 17.0167H157.145L161.23 6.45463H165.652V24.1389H162.487V10.1368L158.469 20.5294H155.214L151.196 10.2095V24.1389H148.278Z" fill="#EAF0FF"/>
<path d="M180.128 24.5992C178.676 24.5992 177.449 24.3488 176.447 23.8482C175.444 23.3475 174.681 22.6612 174.157 21.7891C173.648 20.917 173.394 19.9157 173.394 18.7852H176.514C176.514 19.2697 176.634 19.7299 176.873 20.166C177.113 20.602 177.494 20.9573 178.018 21.2319C178.557 21.5064 179.26 21.6437 180.128 21.6437C181.295 21.6437 182.171 21.3853 182.754 20.8685C183.338 20.3517 183.63 19.7219 183.63 18.979C183.63 18.3653 183.383 17.8646 182.889 17.477C182.395 17.0894 181.632 16.8472 180.599 16.7503L179.163 16.6291C177.592 16.4838 176.335 15.9589 175.392 15.0545C174.464 14.134 174 12.9227 174 11.4208C174 10.3064 174.24 9.3374 174.718 8.51375C175.212 7.6901 175.908 7.06025 176.806 6.6242C177.704 6.172 178.751 5.9459 179.948 5.9459C181.175 5.9459 182.238 6.18008 183.136 6.64843C184.049 7.11678 184.752 7.77893 185.246 8.63488C185.74 9.47468 185.986 10.4679 185.986 11.6146H182.866C182.866 10.904 182.619 10.2741 182.126 9.725C181.647 9.1759 180.921 8.90135 179.948 8.90135C178.991 8.90135 178.28 9.15168 177.816 9.65233C177.352 10.153 177.12 10.7425 177.12 11.4208C177.12 11.9699 177.3 12.4544 177.659 12.8743C178.033 13.278 178.632 13.5122 179.455 13.5768L180.891 13.7221C182.058 13.8352 183.076 14.1097 183.944 14.5458C184.827 14.9657 185.515 15.5471 186.009 16.29C186.503 17.0329 186.75 17.9292 186.75 18.979C186.75 20.0933 186.473 21.0785 185.919 21.9344C185.38 22.7742 184.617 23.4283 183.63 23.8966C182.642 24.365 181.475 24.5992 180.128 24.5992Z" fill="#EAF0FF"/>
<path d="M197.049 24.5992C195.552 24.5992 194.273 24.3165 193.21 23.7513C192.163 23.186 191.302 22.4512 190.629 21.5468C189.971 20.6424 189.484 19.6653 189.17 18.6156C188.856 17.5497 188.699 16.5161 188.699 15.5148V14.9818C188.699 13.8998 188.856 12.8258 189.17 11.7599C189.499 10.6779 190.001 9.70078 190.674 8.82868C191.347 7.95658 192.2 7.26213 193.233 6.74533C194.265 6.21238 195.5 5.9459 196.936 5.9459C198.403 5.9459 199.69 6.2366 200.797 6.818C201.905 7.3994 202.787 8.2069 203.446 9.2405C204.104 10.2741 204.501 11.4854 204.636 12.8743H201.426C201.246 11.663 200.745 10.7425 199.922 10.1126C199.114 9.4666 198.119 9.1436 196.936 9.1436C195.844 9.1436 194.924 9.41008 194.176 9.94303C193.442 10.4598 192.881 11.1785 192.492 12.0991C192.118 13.0196 191.931 14.0774 191.931 15.2725C191.931 16.4353 192.125 17.477 192.514 18.3976C192.904 19.3181 193.48 20.0529 194.243 20.602C195.006 21.135 195.941 21.4015 197.049 21.4015C198.276 21.4015 199.308 21.0785 200.146 20.4325C200.999 19.7703 201.515 18.8498 201.695 17.6708H204.905C204.755 18.9467 204.351 20.1095 203.693 21.1592C203.049 22.209 202.166 23.0488 201.044 23.6786C199.937 24.2923 198.605 24.5992 197.049 24.5992Z" fill="#EAF0FF"/>
<path d="M207.595 24.1389V6.45463H210.782V13.7706H218.346V6.45463H221.534V24.1389H218.346V16.7987H210.782V24.1389H207.595Z" fill="#EAF0FF"/>
<path d="M232.326 24.5992C230.784 24.5992 229.49 24.2842 228.442 23.6544C227.395 23.0245 226.602 22.1444 226.063 21.0139C225.524 19.8672 225.255 18.5268 225.255 16.9925V6.45463H228.442V17.1863C228.442 18.4622 228.772 19.4877 229.43 20.2629C230.103 21.0219 231.069 21.4015 232.326 21.4015C233.553 21.4015 234.495 21.0219 235.154 20.2629C235.827 19.5038 236.164 18.4783 236.164 17.1863V6.45463H239.351V16.9925C239.351 18.5268 239.082 19.8672 238.543 21.0139C238.005 22.1444 237.211 23.0245 236.164 23.6544C235.131 24.2842 233.852 24.5992 232.326 24.5992Z" fill="#EAF0FF"/>
<path d="M243.084 24.1389V6.45463H246.271V21.1108H252.893V24.1389H243.084Z" fill="#EAF0FF"/>
<path d="M256.991 24.1389V9.48275H252.255V6.45463H264.915V9.48275H260.178V24.1389H256.991Z" fill="#EAF0FF"/>
<path d="M266.318 24.1389V21.1834L275.207 9.57965L275.005 9.28895H266.587V6.45463H278.888V9.41008L269.999 20.9896L270.201 21.3046H279V24.1389H266.318Z" fill="#EAF0FF"/>
<path d="M59.2123 44.8264L56.7066 35.0535H57.6742L59.8698 43.9027H60.3039L62.0902 35.4819H63.3431L65.3402 43.9027H65.7495L67.7467 35.0535H68.6894L66.3946 44.8264H64.6579L62.7228 36.7002L60.949 44.8264H59.2123Z" fill="#EAF0FF"/>
<path d="M72.9782 45.054C72.4159 45.054 71.9197 44.9513 71.4897 44.7461C71.0596 44.5319 70.6999 44.2507 70.4105 43.9027C70.121 43.5457 69.8977 43.1485 69.7406 42.7112C69.5918 42.2738 69.5173 41.8276 69.5173 41.3724V41.185C69.5173 40.7298 69.5959 40.2836 69.753 39.8462C69.9101 39.4089 70.1376 39.0162 70.4353 38.6681C70.733 38.3111 71.0927 38.03 71.5145 37.8247C71.9445 37.6105 72.4324 37.5034 72.9782 37.5034C73.524 37.5034 74.0119 37.6105 74.4419 37.8247C74.872 38.03 75.2358 38.3111 75.5336 38.6681C75.8313 39.0162 76.0546 39.4089 76.2034 39.8462C76.3605 40.2836 76.4391 40.7298 76.4391 41.185V41.3724C76.4391 41.8276 76.3647 42.2738 76.2158 42.7112C76.067 43.1485 75.8437 43.5457 75.546 43.9027C75.2565 44.2507 74.8968 44.5319 74.4668 44.7461C74.0367 44.9513 73.5406 45.054 72.9782 45.054ZM72.9782 44.157C73.524 44.157 73.983 44.0276 74.3551 43.7688C74.7355 43.51 75.025 43.1619 75.2234 42.7246C75.4219 42.2872 75.5211 41.8053 75.5211 41.2787C75.5211 40.7432 75.4178 40.2613 75.211 39.8329C75.0043 39.3955 74.7107 39.0519 74.3303 38.802C73.9582 38.5432 73.5075 38.4138 72.9782 38.4138C72.4572 38.4138 72.0065 38.5432 71.6261 38.802C71.2457 39.0519 70.9521 39.3955 70.7454 39.8329C70.5469 40.2613 70.4477 40.7432 70.4477 41.2787C70.4477 41.8053 70.5469 42.2872 70.7454 42.7246C70.9439 43.1619 71.2292 43.51 71.6013 43.7688C71.9817 44.0276 72.4407 44.157 72.9782 44.157Z" fill="#EAF0FF"/>
<path d="M78.3363 44.8264V37.7444H79.0806V39.7258C79.3121 38.3513 80.1598 37.6641 81.6235 37.6641H81.8344V38.5744H81.4499C80.7387 38.5744 80.197 38.7752 79.8249 39.1769C79.4527 39.5785 79.2667 40.1586 79.2667 40.9172V44.8264H78.3363Z" fill="#EAF0FF"/>
<path d="M83.3393 44.8264V35.0535H84.2697V41.3055L87.2095 37.7444H88.2019L85.6714 40.7968L88.8966 44.8264H87.805L85.1628 41.5063H84.2697V44.8264H83.3393Z" fill="#EAF0FF"/>
<path d="M97.2228 45.054C96.4372 45.054 95.755 44.9023 95.1761 44.5988C94.5972 44.2954 94.1134 43.8937 93.7248 43.3939C93.3444 42.8941 93.0591 42.3497 92.8689 41.7607C92.6869 41.1716 92.5959 40.5959 92.5959 40.0337V39.7927C92.5959 39.1947 92.691 38.6012 92.8812 38.0122C93.0797 37.4142 93.3733 36.8742 93.762 36.3923C94.1507 35.9103 94.6344 35.5265 95.2133 35.2409C95.7922 34.9464 96.462 34.7992 97.2228 34.7992C97.9919 34.7992 98.6618 34.9464 99.2324 35.2409C99.8113 35.5265 100.295 35.9103 100.684 36.3923C101.072 36.8742 101.362 37.4142 101.552 38.0122C101.751 38.6012 101.85 39.1947 101.85 39.7927V40.0471C101.85 40.6093 101.755 41.185 101.564 41.774C101.383 42.3542 101.101 42.8941 100.721 43.3939C100.341 43.8937 99.8568 44.2954 99.2696 44.5988C98.6907 44.9023 98.0085 45.054 97.2228 45.054ZM97.2228 44.1169C97.8017 44.1169 98.3186 44.0053 98.7734 43.7822C99.2282 43.5501 99.6128 43.2377 99.927 42.845C100.241 42.4434 100.481 41.9927 100.647 41.4929C100.812 40.9931 100.895 40.471 100.895 39.9266C100.895 39.1679 100.746 38.4718 100.448 37.8381C100.159 37.2044 99.7368 36.6957 99.1828 36.3119C98.637 35.9282 97.9837 35.7363 97.2228 35.7363C96.4703 35.7363 95.817 35.9282 95.2629 36.3119C94.7171 36.6957 94.2954 37.2044 93.9977 37.8381C93.7 38.4718 93.5511 39.1679 93.5511 39.9266C93.5511 40.471 93.6338 40.9931 93.7992 41.4929C93.9646 41.9927 94.2044 42.4434 94.5187 42.845C94.8412 43.2377 95.2299 43.5501 95.6847 43.7822C96.1395 44.0053 96.6522 44.1169 97.2228 44.1169Z" fill="#EAF0FF"/>
<path d="M103.986 44.8264V38.5744H103.031V37.798H103.986V37.1955C103.986 36.4458 104.163 35.8969 104.519 35.5489C104.883 35.1919 105.416 35.0134 106.119 35.0134H106.95V35.8702H105.946C105.598 35.8702 105.334 35.9683 105.152 36.1647C104.97 36.361 104.879 36.6377 104.879 36.9947V37.798H107.087V38.5744H104.879V44.8264H103.986Z" fill="#EAF0FF"/>
<path d="M113.319 44.8264V35.9773H110.491V35.0535H117.09V35.9773H114.262V44.8264H113.319Z" fill="#EAF0FF"/>
<path d="M118.639 44.8264V35.0535H119.569V39.0564C119.743 38.5834 120.008 38.213 120.363 37.9452C120.727 37.6685 121.182 37.5302 121.728 37.5302H121.777C122.571 37.5302 123.171 37.8113 123.576 38.3736C123.99 38.9359 124.196 39.7168 124.196 40.7164V44.8264H123.278V40.5022C123.278 39.8686 123.117 39.3688 122.795 39.0028C122.472 38.6369 122.038 38.4539 121.492 38.4539C120.905 38.4539 120.438 38.6592 120.09 39.0698C119.743 39.4714 119.569 40.0024 119.569 40.6629V44.8264H118.639Z" fill="#EAF0FF"/>
<path d="M129.254 45.054C128.684 45.054 128.192 44.9513 127.778 44.7461C127.373 44.5319 127.038 44.2507 126.774 43.9027C126.509 43.5457 126.31 43.1485 126.178 42.7112C126.054 42.2649 125.992 41.8142 125.992 41.359V41.1716C125.992 40.7164 126.058 40.2702 126.191 39.8329C126.323 39.3955 126.517 39.0028 126.774 38.6548C127.038 38.3067 127.369 38.03 127.766 37.8247C128.171 37.6105 128.643 37.5034 129.18 37.5034C129.866 37.5034 130.437 37.6685 130.892 37.9988C131.355 38.3201 131.702 38.744 131.934 39.2706C132.165 39.7882 132.281 40.3371 132.281 40.9172V41.4394H126.885C126.902 41.9481 126.997 42.4122 127.17 42.8317C127.344 43.2422 127.605 43.568 127.952 43.8089C128.299 44.0499 128.733 44.1704 129.254 44.1704C129.825 44.1704 130.288 44.0321 130.644 43.7554C130.999 43.4787 131.219 43.144 131.301 42.7513H132.17C132.037 43.4564 131.711 44.0187 131.19 44.4382C130.677 44.8487 130.032 45.054 129.254 45.054ZM129.18 38.387C128.51 38.387 127.985 38.6012 127.605 39.0296C127.233 39.458 127.005 40.0024 126.922 40.6629H131.376C131.318 39.9846 131.103 39.4357 130.731 39.0162C130.358 38.5967 129.842 38.387 129.18 38.387Z" fill="#EAF0FF"/>
<path d="M137.178 44.8264V35.0535H138.754L143.715 43.9027H143.864V35.0535H144.77V44.8264H143.182L138.22 35.9773H138.071V44.8264H137.178Z" fill="#EAF0FF"/>
<path d="M149.159 45.0138C148.456 45.0138 147.89 44.8175 147.46 44.4248C147.03 44.0321 146.815 43.4698 146.815 42.7379C146.815 42.0239 147.038 41.4751 147.484 41.0913C147.939 40.7075 148.576 40.5156 149.395 40.5156H151.231V40.1809C151.231 39.6544 151.102 39.2527 150.846 38.9761C150.59 38.6905 150.193 38.5477 149.655 38.5477C149.283 38.5477 148.911 38.5566 148.539 38.5744C148.167 38.5923 147.848 38.6146 147.584 38.6414V37.7578C147.848 37.731 148.134 37.7087 148.44 37.6909C148.746 37.673 149.039 37.6641 149.32 37.6641C150.321 37.6641 151.036 37.8694 151.466 38.2799C151.905 38.6815 152.124 39.3464 152.124 40.2746V44.8264H151.379V43.3805C151.231 43.925 150.962 44.3355 150.573 44.6122C150.193 44.8799 149.721 45.0138 149.159 45.0138ZM149.333 44.2106C149.639 44.2106 149.932 44.1526 150.213 44.0365C150.495 43.9116 150.73 43.7063 150.921 43.4207C151.111 43.1262 151.214 42.7246 151.231 42.2158V41.2787H149.333C148.812 41.2787 148.411 41.417 148.129 41.6937C147.857 41.9615 147.72 42.314 147.72 42.7513C147.72 43.1976 147.865 43.5546 148.154 43.8223C148.444 44.0812 148.837 44.2106 149.333 44.2106Z" fill="#EAF0FF"/>
<path d="M156.829 44.9067C156.383 44.9067 155.99 44.8353 155.651 44.6925C155.32 44.5497 155.064 44.3087 154.882 43.9696C154.7 43.6304 154.609 43.1663 154.609 42.5773V38.5075H153.43V37.7444H154.609V35.5087H155.502V37.7444H157.871V38.5075H155.502V42.7246C155.502 43.1262 155.605 43.4386 155.812 43.6617C156.019 43.8848 156.312 43.9964 156.693 43.9964H157.871V44.9067H156.829Z" fill="#EAF0FF"/>
<path d="M160.214 36.4324C159.991 36.4324 159.822 36.37 159.706 36.245C159.598 36.1111 159.545 35.946 159.545 35.7497C159.545 35.5444 159.598 35.3793 159.706 35.2543C159.822 35.1294 159.991 35.0669 160.214 35.0669C160.438 35.0669 160.603 35.1294 160.711 35.2543C160.818 35.3793 160.872 35.5444 160.872 35.7497C160.872 35.946 160.818 36.1111 160.711 36.245C160.603 36.37 160.438 36.4324 160.214 36.4324ZM160.016 44.8264V38.5477H158.962V37.7444H160.934V44.8264H160.016Z" fill="#EAF0FF"/>
<path d="M166.315 45.054C165.753 45.054 165.257 44.9513 164.827 44.7461C164.397 44.5319 164.037 44.2507 163.748 43.9027C163.458 43.5457 163.235 43.1485 163.078 42.7112C162.929 42.2738 162.854 41.8276 162.854 41.3724V41.185C162.854 40.7298 162.933 40.2836 163.09 39.8462C163.247 39.4089 163.475 39.0162 163.772 38.6681C164.07 38.3111 164.43 38.03 164.852 37.8247C165.282 37.6105 165.77 37.5034 166.315 37.5034C166.861 37.5034 167.349 37.6105 167.779 37.8247C168.209 38.03 168.573 38.3111 168.871 38.6681C169.168 39.0162 169.392 39.4089 169.541 39.8462C169.698 40.2836 169.776 40.7298 169.776 41.185V41.3724C169.776 41.8276 169.702 42.2738 169.553 42.7112C169.404 43.1485 169.181 43.5457 168.883 43.9027C168.594 44.2507 168.234 44.5319 167.804 44.7461C167.374 44.9513 166.878 45.054 166.315 45.054ZM166.315 44.157C166.861 44.157 167.32 44.0276 167.692 43.7688C168.073 43.51 168.362 43.1619 168.561 42.7246C168.759 42.2872 168.858 41.8053 168.858 41.2787C168.858 40.7432 168.755 40.2613 168.548 39.8329C168.341 39.3955 168.048 39.0519 167.667 38.802C167.295 38.5432 166.845 38.4138 166.315 38.4138C165.794 38.4138 165.344 38.5432 164.963 38.802C164.583 39.0519 164.289 39.3955 164.083 39.8329C163.884 40.2613 163.785 40.7432 163.785 41.2787C163.785 41.8053 163.884 42.2872 164.083 42.7246C164.281 43.1619 164.566 43.51 164.938 43.7688C165.319 44.0276 165.778 44.157 166.315 44.157Z" fill="#EAF0FF"/>
<path d="M171.673 44.8264V37.7444H172.418V39.3911C172.567 38.802 172.831 38.3468 173.212 38.0255C173.6 37.6953 174.109 37.5302 174.737 37.5302H174.775C175.602 37.5302 176.218 37.8113 176.623 38.3736C177.028 38.927 177.231 39.7079 177.231 40.7164V44.8264H176.313V40.5022C176.313 39.8864 176.156 39.3911 175.841 39.0162C175.527 38.6414 175.089 38.4539 174.527 38.4539C173.948 38.4539 173.48 38.6503 173.125 39.043C172.777 39.4268 172.604 39.9355 172.604 40.5692V44.8264H171.673Z" fill="#EAF0FF"/>
<path d="M179.136 38.561V35.0535H179.942V38.561H179.136Z" fill="#EAF0FF"/>
<path d="M183.981 45.0272C183.138 45.0272 182.489 44.8309 182.034 44.4382C181.579 44.0365 181.347 43.501 181.339 42.8317H182.207C182.216 43.1797 182.352 43.4921 182.617 43.7688C182.89 44.0365 183.344 44.1704 183.981 44.1704C184.568 44.1704 185.007 44.041 185.296 43.7822C185.594 43.5144 185.743 43.1931 185.743 42.8183C185.743 42.1489 185.267 41.7562 184.316 41.6402L183.572 41.5598C182.968 41.4884 182.484 41.2921 182.121 40.9708C181.757 40.6495 181.575 40.1988 181.575 39.6187C181.575 38.9939 181.794 38.4896 182.232 38.1059C182.67 37.7221 183.253 37.5302 183.981 37.5302C184.684 37.5302 185.255 37.7087 185.693 38.0657C186.14 38.4227 186.367 38.9314 186.375 39.5919H185.507C185.499 39.2527 185.366 38.9671 185.11 38.7351C184.854 38.503 184.477 38.387 183.981 38.387C183.468 38.387 183.084 38.512 182.828 38.7619C182.579 39.0028 182.455 39.2929 182.455 39.632C182.455 39.9266 182.551 40.172 182.741 40.3684C182.931 40.5558 183.229 40.6718 183.634 40.7164L184.378 40.7968C185.04 40.8771 185.577 41.0824 185.991 41.4126C186.412 41.7428 186.623 42.2158 186.623 42.8317C186.623 43.2511 186.512 43.6304 186.288 43.9696C186.073 44.2998 185.767 44.5586 185.371 44.7461C184.974 44.9335 184.51 45.0272 183.981 45.0272Z" fill="#EAF0FF"/>
<path d="M195.439 45.054C194.629 45.054 193.934 44.9023 193.355 44.5988C192.785 44.2864 192.317 43.8803 191.954 43.3805C191.598 42.8807 191.337 42.3408 191.172 41.7607C191.007 41.1716 190.924 40.6004 190.924 40.0471V39.7927C190.924 39.1947 191.007 38.6012 191.172 38.0122C191.346 37.4231 191.61 36.8876 191.966 36.4057C192.33 35.9148 192.793 35.5265 193.355 35.2409C193.918 34.9464 194.583 34.7992 195.352 34.7992C196.13 34.7992 196.8 34.9464 197.362 35.2409C197.933 35.5355 198.387 35.9505 198.726 36.486C199.066 37.0215 199.272 37.6462 199.347 38.3602H198.392C198.317 37.7801 198.139 37.2982 197.858 36.9144C197.585 36.5217 197.23 36.2272 196.791 36.0308C196.361 35.8345 195.882 35.7363 195.352 35.7363C194.592 35.7363 193.951 35.9282 193.43 36.3119C192.917 36.6868 192.528 37.1911 192.264 37.8247C192.007 38.4584 191.879 39.159 191.879 39.9266C191.879 40.471 191.954 40.9931 192.102 41.4929C192.251 41.9927 192.47 42.4434 192.76 42.845C193.058 43.2377 193.43 43.5501 193.876 43.7822C194.323 44.0053 194.844 44.1169 195.439 44.1169C196.266 44.1169 196.961 43.8937 197.523 43.4475C198.086 42.9923 198.433 42.3408 198.565 41.4929H199.52C199.429 42.1623 199.214 42.7692 198.875 43.3136C198.536 43.8491 198.077 44.273 197.498 44.5854C196.928 44.8978 196.241 45.054 195.439 45.054Z" fill="#EAF0FF"/>
<path d="M201.219 44.8264V35.0535H202.149V39.0564C202.323 38.5834 202.588 38.213 202.943 37.9452C203.307 37.6685 203.762 37.5302 204.308 37.5302H204.357C205.151 37.5302 205.751 37.8113 206.156 38.3736C206.57 38.9359 206.776 39.7168 206.776 40.7164V44.8264H205.858V40.5022C205.858 39.8686 205.697 39.3688 205.375 39.0028C205.052 38.6369 204.618 38.4539 204.072 38.4539C203.485 38.4539 203.018 38.6592 202.67 39.0698C202.323 39.4714 202.149 40.0024 202.149 40.6629V44.8264H201.219Z" fill="#EAF0FF"/>
<path d="M209.639 36.4324C209.416 36.4324 209.246 36.37 209.13 36.245C209.023 36.1111 208.969 35.946 208.969 35.7497C208.969 35.5444 209.023 35.3793 209.13 35.2543C209.246 35.1294 209.416 35.0669 209.639 35.0669C209.862 35.0669 210.028 35.1294 210.135 35.2543C210.243 35.3793 210.296 35.5444 210.296 35.7497C210.296 35.946 210.243 36.1111 210.135 36.245C210.028 36.37 209.862 36.4324 209.639 36.4324ZM209.44 44.8264V38.5477H208.386V37.7444H210.358V44.8264H209.44Z" fill="#EAF0FF"/>
<path d="M212.862 44.8264V35.8702H211.907V35.0535H213.792V44.8264H212.862Z" fill="#EAF0FF"/>
<path d="M218.896 45.054C218.259 45.054 217.697 44.8889 217.209 44.5586C216.729 44.2195 216.353 43.7732 216.08 43.2199C215.815 42.6576 215.683 42.0418 215.683 41.3724V41.185C215.683 40.5424 215.811 39.9444 216.067 39.3911C216.332 38.8288 216.704 38.3736 217.184 38.0255C217.664 37.6775 218.226 37.5034 218.871 37.5034C219.417 37.5034 219.905 37.6373 220.335 37.9051C220.765 38.1639 221.104 38.5387 221.352 39.0296V35.0535H222.282V44.8264H221.538V43.2333C221.306 43.8402 220.955 44.2954 220.483 44.5988C220.012 44.9023 219.483 45.054 218.896 45.054ZM219.02 44.1704C219.466 44.1704 219.867 44.0633 220.223 43.8491C220.587 43.626 220.872 43.3225 221.079 42.9388C221.286 42.5461 221.389 42.0864 221.389 41.5598V40.9172C221.389 40.4174 221.282 39.9801 221.066 39.6053C220.86 39.2215 220.574 38.9225 220.211 38.7083C219.855 38.4941 219.454 38.387 219.007 38.387C218.511 38.387 218.085 38.5164 217.73 38.7752C217.374 39.0251 217.097 39.3688 216.899 39.8061C216.708 40.2434 216.613 40.7343 216.613 41.2787C216.613 41.841 216.712 42.3408 216.911 42.7781C217.109 43.2154 217.386 43.559 217.742 43.8089C218.106 44.0499 218.532 44.1704 219.02 44.1704Z" fill="#EAF0FF"/>
<path d="M224.684 44.8264V37.7444H225.428V39.7258C225.659 38.3513 226.507 37.6641 227.971 37.6641H228.182V38.5744H227.797C227.086 38.5744 226.544 38.7752 226.172 39.1769C225.8 39.5785 225.614 40.1586 225.614 40.9172V44.8264H224.684Z" fill="#EAF0FF"/>
<path d="M232.343 45.054C231.773 45.054 231.281 44.9513 230.867 44.7461C230.462 44.5319 230.127 44.2507 229.862 43.9027C229.598 43.5457 229.399 43.1485 229.267 42.7112C229.143 42.2649 229.081 41.8142 229.081 41.359V41.1716C229.081 40.7164 229.147 40.2702 229.279 39.8329C229.412 39.3955 229.606 39.0028 229.862 38.6548C230.127 38.3067 230.458 38.03 230.855 37.8247C231.26 37.6105 231.731 37.5034 232.269 37.5034C232.955 37.5034 233.526 37.6685 233.981 37.9988C234.444 38.3201 234.791 38.744 235.023 39.2706C235.254 39.7882 235.37 40.3371 235.37 40.9172V41.4394H229.974C229.99 41.9481 230.086 42.4122 230.259 42.8317C230.433 43.2422 230.693 43.568 231.041 43.8089C231.388 44.0499 231.822 44.1704 232.343 44.1704C232.914 44.1704 233.377 44.0321 233.733 43.7554C234.088 43.4787 234.307 43.144 234.39 42.7513H235.258C235.126 43.4564 234.799 44.0187 234.278 44.4382C233.766 44.8487 233.121 45.054 232.343 45.054ZM232.269 38.387C231.599 38.387 231.074 38.6012 230.693 39.0296C230.321 39.458 230.094 40.0024 230.011 40.6629H234.464C234.407 39.9846 234.192 39.4357 233.819 39.0162C233.447 38.5967 232.93 38.387 232.269 38.387Z" fill="#EAF0FF"/>
<path d="M237.161 44.8264V37.7444H237.905V39.3911C238.054 38.802 238.319 38.3468 238.699 38.0255C239.088 37.6953 239.596 37.5302 240.225 37.5302H240.262C241.089 37.5302 241.705 37.8113 242.11 38.3736C242.516 38.927 242.718 39.7079 242.718 40.7164V44.8264H241.8V40.5022C241.8 39.8864 241.643 39.3911 241.329 39.0162C241.015 38.6414 240.576 38.4539 240.014 38.4539C239.435 38.4539 238.968 38.6503 238.612 39.043C238.265 39.4268 238.091 39.9355 238.091 40.5692V44.8264H237.161Z" fill="#EAF0FF"/>
</svg>
