<svg width="247" height="51" viewBox="0 0 247 51" fill="none" xmlns="http://www.w3.org/2000/svg">
<path d="M44.5823 24.2895H41.2799V9.72014H26.7105V6.41775C26.7105 3.23677 24.428 0.347182 21.2713 0.0315126C17.6289 -0.332721 14.5694 2.5083 14.5694 6.0778V9.72014H0.0242822V23.8039H3.39952C6.5805 23.8039 9.47009 25.9407 10.0771 29.0488C10.8785 33.2254 7.69748 36.9163 3.64234 36.9163H0V51H14.0837V47.6005C14.0837 44.4195 16.2206 41.5299 19.3287 40.9229C23.5052 40.1215 27.1961 43.3025 27.1961 47.3577V51H41.2799V36.4306H44.9222C48.4917 36.4306 51.3327 33.3711 50.9685 29.7287C50.6528 26.572 47.7389 24.2895 44.5823 24.2895Z" fill="#EAF0FF"/>
<path d="M71.5063 22.5172L67 4.51779H70.5614L74.0744 19.6077H74.7528L77.5147 5.20818H81.2458L84.4196 19.6077H85.0737L88.1991 4.51779H91.5667L87.5449 22.5172H82.0695L79.356 10.5094L76.8848 22.5172H71.5063Z" fill="#EAF0FF"/>
<path d="M101.61 22.9857C99.946 22.9857 98.5488 22.6651 97.4182 22.0241C96.2876 21.383 95.4315 20.4871 94.8501 19.3365C94.2686 18.1694 93.9779 16.805 93.9779 15.2435V4.51779H97.4182V15.4407C97.4182 16.7393 97.7736 17.7831 98.4842 18.5721C99.211 19.3447 100.253 19.731 101.61 19.731C102.934 19.731 103.952 19.3447 104.662 18.5721C105.389 17.7995 105.752 16.7557 105.752 15.4407V4.51779H109.193V15.2435C109.193 16.805 108.902 18.1694 108.321 19.3365C107.739 20.4871 106.883 21.383 105.752 22.0241C104.638 22.6651 103.257 22.9857 101.61 22.9857Z" fill="#EAF0FF"/>
<path d="M121.192 22.9857C119.577 22.9857 118.196 22.698 117.049 22.1227C115.919 21.5474 114.99 20.7994 114.263 19.8789C113.552 18.9584 113.027 17.9639 112.688 16.8955C112.349 15.8106 112.179 14.7585 112.179 13.7394V13.197C112.179 12.0956 112.349 11.0025 112.688 9.91761C113.044 8.81628 113.585 7.82179 114.311 6.93415C115.038 6.04651 115.959 5.33968 117.073 4.81367C118.188 4.27122 119.52 4 121.071 4C122.654 4 124.043 4.29588 125.238 4.88764C126.433 5.4794 127.386 6.30129 128.097 7.35331C128.808 8.40533 129.236 9.63817 129.381 11.0518H125.916C125.723 9.81898 125.181 8.88203 124.293 8.24095C123.421 7.58344 122.347 7.25469 121.071 7.25469C119.892 7.25469 118.898 7.52591 118.091 8.06836C117.299 8.59437 116.694 9.32585 116.274 10.2628C115.87 11.1998 115.668 12.2764 115.668 13.4928C115.668 14.6764 115.878 15.7366 116.298 16.6735C116.718 17.6105 117.34 18.3584 118.164 18.9173C118.987 19.4598 119.997 19.731 121.192 19.731C122.516 19.731 123.631 19.4022 124.535 18.7447C125.456 18.0708 126.013 17.1338 126.207 15.9338H129.672C129.51 17.2324 129.074 18.416 128.363 19.4844C127.669 20.5529 126.716 21.4076 125.505 22.0487C124.309 22.6733 122.872 22.9857 121.192 22.9857Z" fill="#EAF0FF"/>
<path d="M132.575 22.5172V4.51779H136.015V12.9257L142.75 4.51779H146.699L140.4 12.3586L148.226 22.5172H144.034L137.566 14.1092H136.015V22.5172H132.575Z" fill="#EAF0FF"/>
<path d="M150.201 22.5172V4.51779H160.91V7.4766H153.569V11.8901H160.474V14.849H153.569V19.5584H161.104V22.5172H150.201Z" fill="#EAF0FF"/>
<path d="M164.634 22.5172V4.39451H171.199C173.315 4.39451 175.003 4.87942 176.263 5.84925C177.523 6.81908 178.153 8.29027 178.153 10.2628V10.682C178.153 12.0299 177.846 13.1394 177.232 14.0106C176.634 14.8818 175.803 15.5229 174.737 15.9338L179.461 22.5172H175.439L171.272 16.5009H168.074V22.5172H164.634ZM171.563 7.37797H168.074V13.6654H171.563C172.5 13.6654 173.251 13.3778 173.816 12.8024C174.381 12.2271 174.664 11.471 174.664 10.534C174.664 9.59707 174.381 8.84093 173.816 8.26561C173.251 7.67385 172.5 7.37797 171.563 7.37797Z" fill="#EAF0FF"/>
<path d="M185.11 22.5172V7.59988H179.998V4.51779H193.662V7.59988H188.55V22.5172H185.11Z" fill="#EAF0FF"/>
<path d="M201.686 22.5172V4.51779H205.126V22.5172H201.686Z" fill="#EAF0FF"/>
<path d="M209.54 22.5172V4.51779H215.185L222.623 19.6077H222.938V4.51779H226.184V22.5172H220.515L213.077 7.42728H212.738V22.5172H209.54Z" fill="#EAF0FF"/>
<path d="M238.52 22.9857C236.905 22.9857 235.524 22.698 234.377 22.1227C233.247 21.5474 232.318 20.7994 231.591 19.8789C230.881 18.9584 230.356 17.9639 230.017 16.8955C229.677 15.8106 229.508 14.7585 229.508 13.7394V13.197C229.508 12.0956 229.677 11.0025 230.017 9.91761C230.372 8.81628 230.913 7.82179 231.64 6.93415C232.367 6.04651 233.287 5.33968 234.402 4.81367C235.516 4.27122 236.849 4 238.399 4C239.982 4 241.371 4.29588 242.566 4.88764C243.762 5.4794 244.715 6.30129 245.425 7.35331C246.136 8.40533 246.564 9.63817 246.709 11.0518H243.245C243.051 9.81898 242.51 8.88203 241.621 8.24095C240.749 7.58344 239.675 7.25469 238.399 7.25469C237.22 7.25469 236.227 7.52591 235.419 8.06836C234.628 8.59437 234.022 9.32585 233.602 10.2628C233.198 11.1998 232.997 12.2764 232.997 13.4928C232.997 14.6764 233.206 15.7366 233.626 16.6735C234.046 17.6105 234.668 18.3584 235.492 18.9173C236.316 19.4598 237.325 19.731 238.52 19.731C239.845 19.731 240.959 19.4022 241.864 18.7447C242.784 18.0708 243.342 17.1338 243.535 15.9338H247C246.838 17.2324 246.402 18.416 245.692 19.4844C244.997 20.5529 244.044 21.4076 242.833 22.0487C241.638 22.6733 240.2 22.9857 238.52 22.9857Z" fill="#EAF0FF"/>
<path d="M72.2178 44.302C71.3763 44.302 70.6282 44.1593 69.9736 43.8738C69.3284 43.5883 68.7814 43.1981 68.3325 42.7032C67.893 42.1989 67.5611 41.6231 67.3366 40.976C67.1122 40.3288 67 39.6389 67 38.9061V38.6492C67 37.983 67.1075 37.3359 67.3226 36.7078C67.547 36.0797 67.8696 35.5134 68.2904 35.0091C68.7206 34.5047 69.2442 34.105 69.8614 33.81C70.4786 33.5149 71.1892 33.3674 71.9934 33.3674C72.8257 33.3674 73.5644 33.5292 74.2096 33.8528C74.8548 34.1668 75.3738 34.6094 75.7665 35.1804C76.1593 35.7514 76.3931 36.4128 76.4679 37.1646H75.3878C75.313 36.5555 75.112 36.0416 74.7847 35.6229C74.4668 35.2041 74.0647 34.8901 73.5784 34.6807C73.0922 34.4714 72.5638 34.3667 71.9934 34.3667C71.1892 34.3667 70.4926 34.557 69.9035 34.9377C69.3237 35.3183 68.8749 35.8418 68.5569 36.5079C68.239 37.1741 68.08 37.9354 68.08 38.7919C68.08 39.696 68.2437 40.4906 68.571 41.1758C68.8982 41.8515 69.3705 42.3797 69.9876 42.7603C70.6048 43.141 71.3482 43.3313 72.2178 43.3313C72.8724 43.3313 73.4662 43.2219 73.9992 43.003C74.5416 42.7841 74.9904 42.4891 75.3457 42.118V40.0767H71.8391V39.1631H77.2674V40.0767H76.3556V42.4463C75.9161 43.0268 75.3457 43.4836 74.6444 43.8167C73.9431 44.1403 73.1342 44.302 72.2178 44.302Z" fill="#EAF0FF"/>
<path d="M82.486 44.302C81.8501 44.302 81.289 44.1926 80.8028 43.9737C80.3165 43.7453 79.9098 43.4455 79.5825 43.0744C79.2552 42.6937 79.0027 42.2702 78.8251 41.8039C78.6567 41.3376 78.5726 40.8618 78.5726 40.3764V40.1766C78.5726 39.6912 78.6614 39.2154 78.8391 38.7491C79.0168 38.2828 79.2739 37.864 79.6105 37.4929C79.9472 37.1122 80.354 36.8125 80.8308 36.5936C81.3171 36.3652 81.8688 36.251 82.486 36.251C83.1031 36.251 83.6548 36.3652 84.1411 36.5936C84.6273 36.8125 85.0388 37.1122 85.3754 37.4929C85.7121 37.864 85.9645 38.2828 86.1329 38.7491C86.3105 39.2154 86.3994 39.6912 86.3994 40.1766V40.3764C86.3994 40.8618 86.3152 41.3376 86.1469 41.8039C85.9786 42.2702 85.7261 42.6937 85.3895 43.0744C85.0622 43.4455 84.6554 43.7453 84.1691 43.9737C83.6829 44.1926 83.1218 44.302 82.486 44.302ZM82.486 43.3456C83.1031 43.3456 83.6221 43.2076 84.0429 42.9316C84.4731 42.6557 84.8003 42.2845 85.0248 41.8182C85.2492 41.3519 85.3614 40.838 85.3614 40.2765C85.3614 39.7055 85.2445 39.1916 85.0107 38.7348C84.777 38.2685 84.445 37.9021 84.0149 37.6356C83.5941 37.3597 83.0844 37.2217 82.486 37.2217C81.8969 37.2217 81.3872 37.3597 80.9571 37.6356C80.5269 37.9021 80.195 38.2685 79.9612 38.7348C79.7368 39.1916 79.6246 39.7055 79.6246 40.2765C79.6246 40.838 79.7368 41.3519 79.9612 41.8182C80.1856 42.2845 80.5082 42.6557 80.929 42.9316C81.3592 43.2076 81.8782 43.3456 82.486 43.3456Z" fill="#EAF0FF"/>
<path d="M88.6148 44.0594V34.5094H87.5347V33.6387H89.6667V44.0594H88.6148Z" fill="#EAF0FF"/>
<path d="M95.4374 44.302C94.7174 44.302 94.0815 44.126 93.5298 43.7739C92.9875 43.4122 92.562 42.9364 92.2534 42.3464C91.9542 41.7468 91.8046 41.0902 91.8046 40.3764V40.1766C91.8046 39.4914 91.9495 38.8538 92.2394 38.2637C92.5386 37.6642 92.9594 37.1788 93.5018 36.8077C94.0441 36.4366 94.68 36.251 95.4094 36.251C96.0265 36.251 96.5782 36.3937 97.0645 36.6792C97.5508 36.9552 97.9341 37.3549 98.2147 37.8783V33.6387H99.2666V44.0594H98.4251V42.3606C98.1632 43.0078 97.7658 43.4931 97.2328 43.8167C96.6998 44.1403 96.1013 44.302 95.4374 44.302ZM95.5777 43.3599C96.0826 43.3599 96.5362 43.2457 96.9383 43.0173C97.3497 42.7794 97.6723 42.4558 97.9061 42.0466C98.1399 41.6279 98.2568 41.1378 98.2568 40.5763V39.8911C98.2568 39.3582 98.1352 38.8918 97.8921 38.4921C97.6583 38.0829 97.3357 37.7641 96.9242 37.5357C96.5221 37.3073 96.0686 37.1931 95.5637 37.1931C95.0026 37.1931 94.521 37.3311 94.1189 37.6071C93.7169 37.8736 93.4036 38.2399 93.1792 38.7063C92.9641 39.1726 92.8566 39.696 92.8566 40.2765C92.8566 40.8761 92.9688 41.409 93.1932 41.8753C93.4176 42.3416 93.7309 42.708 94.133 42.9745C94.5444 43.2314 95.026 43.3599 95.5777 43.3599Z" fill="#EAF0FF"/>
<path d="M107.486 44.0594V34.6236H104.288V33.6387H111.75V34.6236H108.552V44.0594H107.486Z" fill="#EAF0FF"/>
<path d="M113.708 35.109C113.456 35.109 113.264 35.0424 113.133 34.9091C113.011 34.7664 112.951 34.5903 112.951 34.381C112.951 34.1621 113.011 33.986 113.133 33.8528C113.264 33.7196 113.456 33.6529 113.708 33.6529C113.961 33.6529 114.148 33.7196 114.269 33.8528C114.391 33.986 114.451 34.1621 114.451 34.381C114.451 34.5903 114.391 34.7664 114.269 34.9091C114.148 35.0424 113.961 35.109 113.708 35.109ZM113.484 44.0594V37.3644H112.291V36.5079H114.522V44.0594H113.484Z" fill="#EAF0FF"/>
<path d="M117.9 35.109C117.647 35.109 117.455 35.0424 117.325 34.9091C117.203 34.7664 117.142 34.5903 117.142 34.381C117.142 34.1621 117.203 33.986 117.325 33.8528C117.455 33.7196 117.647 33.6529 117.9 33.6529C118.152 33.6529 118.339 33.7196 118.461 33.8528C118.582 33.986 118.643 34.1621 118.643 34.381C118.643 34.5903 118.582 34.7664 118.461 34.9091C118.339 35.0424 118.152 35.109 117.9 35.109ZM117.675 44.0594V37.3644H116.483V36.5079H118.713V44.0594H117.675Z" fill="#EAF0FF"/>
<path d="M121.474 44.0594V36.4936H122.316V38.2352C122.474 37.6261 122.755 37.1503 123.157 36.8077C123.559 36.4556 124.092 36.2795 124.756 36.2795H124.798C125.453 36.2795 125.981 36.4508 126.383 36.7934C126.785 37.136 127.066 37.6166 127.225 38.2352C127.393 37.6261 127.678 37.1503 128.08 36.8077C128.492 36.4556 129.025 36.2795 129.679 36.2795H129.721C130.6 36.2795 131.255 36.5841 131.685 37.1931C132.125 37.8022 132.344 38.6301 132.344 39.677V44.0594H131.292V39.4343C131.292 38.7681 131.133 38.24 130.816 37.8498C130.498 37.4596 130.039 37.2645 129.441 37.2645C128.824 37.2645 128.333 37.4691 127.968 37.8783C127.613 38.2875 127.435 38.83 127.435 39.5057V44.0594H126.383V39.4343C126.383 38.7681 126.224 38.24 125.906 37.8498C125.588 37.4596 125.13 37.2645 124.532 37.2645C123.915 37.2645 123.424 37.4691 123.059 37.8783C122.704 38.2875 122.526 38.83 122.526 39.5057V44.0594H121.474Z" fill="#EAF0FF"/>
<path d="M138.066 44.302C137.421 44.302 136.864 44.1926 136.397 43.9737C135.939 43.7453 135.56 43.4455 135.261 43.0744C134.962 42.6937 134.737 42.2702 134.587 41.8039C134.447 41.3281 134.377 40.8475 134.377 40.3622V40.1623C134.377 39.677 134.452 39.2011 134.601 38.7348C134.751 38.2685 134.971 37.8498 135.261 37.4786C135.56 37.1075 135.934 36.8125 136.383 36.5936C136.841 36.3652 137.374 36.251 137.982 36.251C138.758 36.251 139.403 36.427 139.918 36.7791C140.441 37.1217 140.834 37.5738 141.096 38.1353C141.358 38.6872 141.488 39.2725 141.488 39.8911V40.4478H135.387C135.406 40.9902 135.513 41.4851 135.71 41.9324C135.906 42.3702 136.2 42.7175 136.593 42.9745C136.986 43.2314 137.477 43.3599 138.066 43.3599C138.711 43.3599 139.235 43.2124 139.637 42.9174C140.039 42.6224 140.287 42.2655 140.38 41.8467H141.362C141.213 42.5986 140.843 43.1981 140.254 43.6454C139.674 44.0832 138.945 44.302 138.066 44.302ZM137.982 37.1931C137.224 37.1931 136.631 37.4215 136.201 37.8783C135.78 38.3351 135.523 38.9156 135.429 39.6199H140.465C140.399 38.8966 140.156 38.3113 139.735 37.864C139.314 37.4168 138.73 37.1931 137.982 37.1931Z" fill="#EAF0FF"/>
<path d="M147.026 44.0594V33.6387H152.805V34.6236H148.092V38.278H152.482V39.2487H148.092V43.0744H152.959V44.0594H147.026Z" fill="#EAF0FF"/>
<path d="M156.839 44.0594L154.23 36.5079H155.31L157.597 43.1886H157.947L159.953 36.5079H160.991L158.691 44.0594H156.839Z" fill="#EAF0FF"/>
<path d="M165.831 44.302C165.186 44.302 164.63 44.1926 164.162 43.9737C163.704 43.7453 163.325 43.4455 163.026 43.0744C162.727 42.6937 162.502 42.2702 162.353 41.8039C162.212 41.3281 162.142 40.8475 162.142 40.3622V40.1623C162.142 39.677 162.217 39.2011 162.367 38.7348C162.516 38.2685 162.736 37.8498 163.026 37.4786C163.325 37.1075 163.699 36.8125 164.148 36.5936C164.606 36.3652 165.139 36.251 165.747 36.251C166.523 36.251 167.168 36.427 167.683 36.7791C168.206 37.1217 168.599 37.5738 168.861 38.1353C169.123 38.6872 169.254 39.2725 169.254 39.8911V40.4478H163.152C163.171 40.9902 163.278 41.4851 163.475 41.9324C163.671 42.3702 163.966 42.7175 164.358 42.9745C164.751 43.2314 165.242 43.3599 165.831 43.3599C166.476 43.3599 167 43.2124 167.402 42.9174C167.804 42.6224 168.052 42.2655 168.146 41.8467H169.127C168.978 42.5986 168.609 43.1981 168.019 43.6454C167.44 44.0832 166.71 44.302 165.831 44.302ZM165.747 37.1931C164.99 37.1931 164.396 37.4215 163.966 37.8783C163.545 38.3351 163.288 38.9156 163.194 39.6199H168.23C168.164 38.8966 167.921 38.3113 167.5 37.864C167.08 37.4168 166.495 37.1931 165.747 37.1931Z" fill="#EAF0FF"/>
<path d="M171.279 44.0594V36.5079H172.12V38.6206C172.382 37.1551 173.341 36.4223 174.996 36.4223H175.234V37.393H174.799C173.995 37.393 173.383 37.6071 172.962 38.0353C172.541 38.4636 172.331 39.0822 172.331 39.8911V44.0594H171.279Z" fill="#EAF0FF"/>
<path d="M176.523 47V46.0436H177.477C177.963 46.0436 178.347 45.9484 178.627 45.7581C178.917 45.5677 179.146 45.2061 179.315 44.6732L179.553 43.8738H178.81L176.117 36.5079H177.197L179.483 42.9745H179.834L181.811 36.5079H182.835L180.226 44.973C180.002 45.6962 179.651 46.2149 179.174 46.5289C178.707 46.843 178.122 47 177.421 47H176.523Z" fill="#EAF0FF"/>
<path d="M188.504 44.302C187.794 44.302 187.181 44.1307 186.667 43.7881C186.153 43.436 185.769 42.9554 185.517 42.3464V44.0594H184.675V33.6387H185.727V37.9782C185.998 37.4168 186.382 36.9885 186.877 36.6935C187.373 36.3985 187.939 36.251 188.575 36.251C189.304 36.251 189.935 36.4318 190.468 36.7934C191.001 37.1551 191.413 37.6356 191.702 38.2352C191.992 38.8252 192.137 39.4676 192.137 40.1623V40.3622C192.137 41.0474 191.988 41.6897 191.688 42.2893C191.398 42.8888 190.982 43.3742 190.44 43.7453C189.898 44.1165 189.252 44.302 188.504 44.302ZM188.392 43.3599C188.944 43.3599 189.421 43.2219 189.823 42.9459C190.234 42.6699 190.548 42.2988 190.763 41.8325C190.978 41.3662 191.085 40.8427 191.085 40.2622C191.085 39.6722 190.973 39.1488 190.749 38.692C190.534 38.2257 190.22 37.8593 189.809 37.5928C189.407 37.3264 188.935 37.1931 188.392 37.1931C187.878 37.1931 187.415 37.3121 187.004 37.55C186.601 37.7784 186.279 38.102 186.036 38.5207C185.802 38.9299 185.685 39.4105 185.685 39.9625V40.6619C185.685 41.1949 185.802 41.6659 186.036 42.0751C186.279 42.4748 186.601 42.7889 187.004 43.0173C187.415 43.2457 187.878 43.3599 188.392 43.3599Z" fill="#EAF0FF"/>
<path d="M197.588 44.302C196.952 44.302 196.391 44.1926 195.905 43.9737C195.418 43.7453 195.012 43.4455 194.684 43.0744C194.357 42.6937 194.105 42.2702 193.927 41.8039C193.759 41.3376 193.674 40.8618 193.674 40.3764V40.1766C193.674 39.6912 193.763 39.2154 193.941 38.7491C194.119 38.2828 194.376 37.864 194.712 37.4929C195.049 37.1122 195.456 36.8125 195.933 36.5936C196.419 36.3652 196.971 36.251 197.588 36.251C198.205 36.251 198.757 36.3652 199.243 36.5936C199.729 36.8125 200.141 37.1122 200.477 37.4929C200.814 37.864 201.066 38.2828 201.235 38.7491C201.412 39.2154 201.501 39.6912 201.501 40.1766V40.3764C201.501 40.8618 201.417 41.3376 201.249 41.8039C201.08 42.2702 200.828 42.6937 200.491 43.0744C200.164 43.4455 199.757 43.7453 199.271 43.9737C198.785 44.1926 198.224 44.302 197.588 44.302ZM197.588 43.3456C198.205 43.3456 198.724 43.2076 199.145 42.9316C199.575 42.6557 199.902 42.2845 200.127 41.8182C200.351 41.3519 200.463 40.838 200.463 40.2765C200.463 39.7055 200.346 39.1916 200.113 38.7348C199.879 38.2685 199.547 37.9021 199.117 37.6356C198.696 37.3597 198.186 37.2217 197.588 37.2217C196.999 37.2217 196.489 37.3597 196.059 37.6356C195.629 37.9021 195.297 38.2685 195.063 38.7348C194.839 39.1916 194.726 39.7055 194.726 40.2765C194.726 40.838 194.839 41.3519 195.063 41.8182C195.287 42.2845 195.61 42.6557 196.031 42.9316C196.461 43.2076 196.98 43.3456 197.588 43.3456Z" fill="#EAF0FF"/>
<path d="M206.69 44.302C205.97 44.302 205.334 44.126 204.783 43.7739C204.24 43.4122 203.815 42.9364 203.506 42.3464C203.207 41.7468 203.057 41.0902 203.057 40.3764V40.1766C203.057 39.4914 203.202 38.8538 203.492 38.2637C203.791 37.6642 204.212 37.1788 204.755 36.8077C205.297 36.4366 205.933 36.251 206.662 36.251C207.279 36.251 207.831 36.3937 208.317 36.6792C208.804 36.9552 209.187 37.3549 209.467 37.8783V33.6387H210.519V44.0594H209.678V42.3606C209.416 43.0078 209.019 43.4931 208.486 43.8167C207.953 44.1403 207.354 44.302 206.69 44.302ZM206.83 43.3599C207.335 43.3599 207.789 43.2457 208.191 43.0173C208.602 42.7794 208.925 42.4558 209.159 42.0466C209.393 41.6279 209.51 41.1378 209.51 40.5763V39.8911C209.51 39.3582 209.388 38.8918 209.145 38.4921C208.911 38.0829 208.588 37.7641 208.177 37.5357C207.775 37.3073 207.321 37.1931 206.816 37.1931C206.255 37.1931 205.774 37.3311 205.372 37.6071C204.97 37.8736 204.656 38.2399 204.432 38.7063C204.217 39.1726 204.109 39.696 204.109 40.2765C204.109 40.8761 204.222 41.409 204.446 41.8753C204.67 42.3416 204.984 42.708 205.386 42.9745C205.797 43.2314 206.279 43.3599 206.83 43.3599Z" fill="#EAF0FF"/>
<path d="M212.576 47V46.0436H213.529C214.016 46.0436 214.399 45.9484 214.68 45.7581C214.969 45.5677 215.199 45.2061 215.367 44.6732L215.605 43.8738H214.862L212.169 36.5079H213.249L215.535 42.9745H215.886L217.864 36.5079H218.888L216.279 44.973C216.054 45.6962 215.704 46.2149 215.227 46.5289C214.759 46.843 214.175 47 213.473 47H212.576Z" fill="#EAF0FF"/>
</svg>
