<svg width="72" height="72" viewBox="0 0 72 72" fill="none" xmlns="http://www.w3.org/2000/svg">
<rect width="72" height="72" rx="24" fill="#FB5D3A"/>
<path d="M41.2775 26.7025C39.0617 26.7025 36.8957 27.3595 35.0534 28.5905C33.211 29.8216 31.7751 31.5712 30.9272 33.6184C30.0792 35.6655 29.8574 37.918 30.2896 40.0912C30.7219 42.2644 31.7889 44.2606 33.3557 45.8274C34.9225 47.3942 36.9187 48.4612 39.0919 48.8935C41.2651 49.3257 43.5176 49.1039 45.5648 48.2559C47.6119 47.408 49.3615 45.9721 50.5926 44.1297C51.8236 42.2874 52.4806 40.1214 52.4806 37.9056C52.4773 34.9354 51.2959 32.0877 49.1957 29.9875C47.0954 27.8872 44.2477 26.7058 41.2775 26.7025ZM41.9025 47.8275V45.74H40.6525V47.8269C38.2377 47.6724 35.9618 46.6434 34.2508 44.9323C32.5397 43.2213 31.5107 40.9454 31.3562 38.5306H33.4425V37.2806H31.3562C31.5106 34.8657 32.5395 32.5897 34.2506 30.8785C35.9616 29.1673 38.2376 28.1382 40.6525 27.9837V30.07H41.9025V27.9837C44.3175 28.1381 46.5935 29.1672 48.3046 30.8784C50.0156 32.5895 51.0445 34.8656 51.1987 37.2806H49.1119V38.5306H51.1987C51.0445 40.9455 50.0156 43.2215 48.3045 44.9326C46.5934 46.6437 44.3174 47.6733 41.9025 47.8275ZM49.6594 26.1075L50.2894 25.195L51.3456 25.9244C51.482 26.0185 51.6503 26.0546 51.8133 26.0247C51.9764 25.9948 52.1208 25.9014 52.215 25.765L53.5081 23.89C53.5548 23.8224 53.5878 23.7463 53.605 23.666C53.6223 23.5857 53.6236 23.5027 53.6088 23.4219C53.594 23.3411 53.5634 23.264 53.5188 23.1951C53.4742 23.1261 53.4164 23.0666 53.3488 23.02L50.2075 20.8537C50.0711 20.7596 49.9028 20.7235 49.7398 20.7534C49.5768 20.7833 49.4323 20.8767 49.3381 21.0131L48.045 22.8881C47.9983 22.9557 47.9653 23.0318 47.9481 23.1121C47.9308 23.1924 47.9295 23.2753 47.9443 23.3561C47.9591 23.4369 47.9897 23.514 48.0343 23.583C48.079 23.652 48.1367 23.7115 48.2044 23.7581L49.2606 24.4869L48.6106 25.4281C47.1152 24.5455 45.4722 23.9412 43.7612 23.6444V21.8056H45.9206C46.0864 21.8056 46.2454 21.7398 46.3626 21.6225C46.4798 21.5053 46.5456 21.3464 46.5456 21.1806V18.3056C46.5456 18.1398 46.4798 17.9809 46.3626 17.8637C46.2454 17.7465 46.0864 17.6806 45.9206 17.6806H36.635C36.4692 17.6806 36.3103 17.7465 36.1931 17.8637C36.0758 17.9809 36.01 18.1398 36.01 18.3056V21.1806C36.01 21.3464 36.0758 21.5053 36.1931 21.6225C36.3103 21.7398 36.4692 21.8056 36.635 21.8056H38.7944V23.6419C38.4231 23.7044 38.0556 23.7812 37.695 23.8731H20.6875C20.5767 23.8731 20.4679 23.9026 20.3723 23.9586C20.2766 24.0145 20.1976 24.0948 20.1432 24.1914C20.0888 24.2879 20.0611 24.3972 20.0628 24.508C20.0646 24.6187 20.0957 24.7271 20.1531 24.8219L22.4744 28.6556C22.5301 28.7476 22.6086 28.8237 22.7023 28.8765C22.7961 28.9292 22.9018 28.9569 23.0094 28.9569H27.7412V27.7069H23.3612L21.7963 25.125H34.4837C31.4786 26.7298 29.1311 29.3372 27.8494 32.4937H17.9312V33.7437H27.4087C26.4449 36.95 26.6229 40.3914 27.9125 43.4812C29.2021 46.5709 31.5234 49.1177 34.4806 50.6875H24.5231L22.9606 48.1031H28.5138V46.8531H21.8488C21.7378 46.8528 21.6288 46.8821 21.5328 46.9379C21.4369 46.9937 21.3576 47.074 21.303 47.1706C21.2484 47.2672 21.2205 47.3766 21.2222 47.4875C21.2239 47.5984 21.255 47.7069 21.3125 47.8019L23.6344 51.6356C23.69 51.7276 23.7683 51.8038 23.862 51.8567C23.9556 51.9095 24.0612 51.9374 24.1687 51.9375H37.695C40.971 52.7757 44.437 52.4406 47.4918 50.9903C50.5465 49.54 52.9971 47.0661 54.4183 43.9977C55.8396 40.9294 56.1418 37.4603 55.2725 34.1924C54.4032 30.9246 52.4173 28.0641 49.6594 26.1075ZM50.0119 22.2381L52.1244 23.6969L51.5413 24.5406L49.4287 23.0819L50.0119 22.2381ZM37.2619 20.5556V18.9306H45.2956V20.5556H37.2619ZM42.5119 21.8056V23.4806C42.105 23.4456 41.6944 23.4244 41.2781 23.4244C40.8619 23.4244 40.4519 23.4456 40.045 23.4806V21.8056H42.5119ZM41.2775 51.1362C38.6606 51.1362 36.1024 50.3602 33.9265 48.9063C31.7507 47.4524 30.0548 45.3859 29.0534 42.9682C28.0519 40.5505 27.7899 37.8901 28.3005 35.3235C28.8111 32.7568 30.0713 30.3992 31.9218 28.5489C33.7723 26.6985 36.1299 25.4383 38.6966 24.9279C41.2632 24.4174 43.9236 24.6795 46.3413 25.6811C48.759 26.6826 50.8254 28.3786 52.2792 30.5545C53.733 32.7305 54.5089 35.2887 54.5088 37.9056C54.5046 41.4134 53.1093 44.7764 50.6288 47.2567C48.1483 49.7371 44.7853 51.1323 41.2775 51.1362ZM43.7638 37.9056C43.7639 37.4138 43.6182 36.9331 43.345 36.5241C43.0719 36.1152 42.6837 35.7964 42.2294 35.6082C41.7751 35.4199 41.2752 35.3706 40.7928 35.4664C40.3105 35.5623 39.8674 35.799 39.5197 36.1467C39.1719 36.4944 38.9351 36.9374 38.8391 37.4197C38.7431 37.902 38.7923 38.4019 38.9804 38.8563C39.1686 39.3106 39.4873 39.699 39.8961 39.9722C40.305 40.2454 40.7857 40.3912 41.2775 40.3912C41.8407 40.389 42.3861 40.1935 42.8225 39.8375L46.6287 42.6781L47.3787 41.6781L43.5806 38.8437C43.7021 38.5459 43.7643 38.2272 43.7638 37.9056ZM41.2775 39.1412C41.033 39.1412 40.7939 39.0687 40.5906 38.9328C40.3873 38.797 40.2288 38.6039 40.1353 38.3779C40.0417 38.152 40.0173 37.9034 40.0651 37.6636C40.1128 37.4237 40.2306 37.2035 40.4036 37.0306C40.5765 36.8577 40.7969 36.74 41.0367 36.6924C41.2766 36.6448 41.5251 36.6693 41.751 36.763C41.9769 36.8567 42.1699 37.0152 42.3057 37.2186C42.4415 37.422 42.5139 37.6611 42.5138 37.9056C42.5134 38.2333 42.383 38.5475 42.1513 38.7792C41.9195 39.0108 41.6052 39.1411 41.2775 39.1412ZM23.7344 38.5306H16.5469V37.2806H23.7344V38.5306ZM25.3413 43.3169H17.9312V42.0669H25.3413V43.3169Z" fill="white"/>
</svg>
