<svg width="72" height="72" viewBox="0 0 72 72" fill="none" xmlns="http://www.w3.org/2000/svg">
<rect width="72" height="72" rx="24" fill="#FB5D3A"/>
<path d="M33.5 39.75C32.1213 39.75 31 40.8712 31 42.25V51.625C31 53.0037 32.1213 54.125 33.5 54.125H38.5C39.8787 54.125 41 53.0037 41 51.625V42.25C41 40.8712 39.8787 39.75 38.5 39.75H33.5ZM35.375 52.25C35.375 51.9056 35.655 51.625 36 51.625C36.345 51.625 36.625 51.9056 36.625 52.25C36.625 52.5944 36.345 52.875 36 52.875C35.655 52.875 35.375 52.5944 35.375 52.25ZM39.75 42.25V51.625C39.75 52.3144 39.1894 52.875 38.5 52.875H37.76C37.83 52.6788 37.875 52.47 37.875 52.25C37.875 51.2163 37.0338 50.375 36 50.375C34.9662 50.375 34.125 51.2163 34.125 52.25C34.125 52.47 34.17 52.6788 34.24 52.875H33.5C32.8106 52.875 32.25 52.3144 32.25 51.625V42.25C32.25 41.5606 32.8106 41 33.5 41H38.5C39.1894 41 39.75 41.5606 39.75 42.25ZM17.25 48.5H28.5C28.8456 48.5 29.125 48.22 29.125 47.875V40.375C29.125 40.03 28.8456 39.75 28.5 39.75H17.25C16.9044 39.75 16.625 40.03 16.625 40.375V47.875C16.625 48.22 16.9044 48.5 17.25 48.5ZM22.46 45.8425C22.5781 45.9475 22.7269 46 22.875 46C23.0231 46 23.1719 45.9475 23.29 45.8425L24.7238 44.5681L27.1081 47.25H18.6419L21.0262 44.5675L22.46 45.8425ZM25.6581 43.7375L27.875 41.7669V46.2312L25.6581 43.7375ZM22.875 44.5387L18.8938 41H26.8563L22.875 44.5387ZM20.0919 43.7375L17.875 46.2312V41.7669L20.0919 43.7375ZM52.875 39.75H45.375C43.9963 39.75 42.875 40.8712 42.875 42.25V46C42.875 47.3787 43.9963 48.5 45.375 48.5H51.8638L52.9406 50.6537C53.0462 50.8656 53.2631 50.9994 53.5 50.9994C53.7369 50.9994 53.9531 50.8656 54.0594 50.6537C54.9194 48.9319 55.375 47.0044 55.375 45.08V42.25C55.375 40.8712 54.2537 39.75 52.875 39.75ZM54.125 45.08C54.125 46.3744 53.8963 47.6713 53.4562 48.89L52.8094 47.595C52.7038 47.3837 52.4869 47.25 52.25 47.25H45.375C44.6856 47.25 44.125 46.6894 44.125 46V42.25C44.125 41.5606 44.6856 41 45.375 41H52.875C53.5644 41 54.125 41.5606 54.125 42.25V45.08Z" fill="white"/>
<path d="M52.25 42.2494H46V43.4994H52.25V42.2494Z" fill="white"/>
<path d="M52.25 44.7494H46V45.9994H52.25V44.7494Z" fill="white"/>
<path d="M23.5 36H35.375V38.5H36.625V36H48.5V38.5H49.75V35.375C49.75 35.03 49.4706 34.75 49.125 34.75H22.875C22.5294 34.75 22.25 35.03 22.25 35.375V38.5H23.5V36ZM28.5 33.5H43.5C43.8456 33.5 44.125 33.22 44.125 32.875V18.5C44.125 18.155 43.8456 17.875 43.5 17.875H28.5C28.1544 17.875 27.875 18.155 27.875 18.5V32.875C27.875 33.22 28.1544 33.5 28.5 33.5ZM34.75 19.125H37.25V23.5819L36.3469 22.98C36.1369 22.84 35.8637 22.84 35.6537 22.98L34.75 23.5819V19.125ZM29.125 19.125H33.5V24.75C33.5 24.9806 33.6269 25.1925 33.83 25.3012C34.0325 25.41 34.28 25.3975 34.4713 25.27L36 24.2512L37.5281 25.27C37.6325 25.34 37.7537 25.375 37.875 25.375C37.9762 25.375 38.0775 25.3506 38.17 25.3012C38.3731 25.1925 38.5 24.9806 38.5 24.75V19.125H42.875V32.25H29.125V19.125Z" fill="white"/>
</svg>
