<svg width="72" height="72" viewBox="0 0 72 72" fill="none" xmlns="http://www.w3.org/2000/svg">
<rect width="72" height="72" rx="24" fill="#FB5D3A"/>
<path d="M40.375 20.375H18.5C18.3342 20.375 18.1753 20.4408 18.0581 20.5581C17.9408 20.6753 17.875 20.8342 17.875 21V47.25C17.875 47.4158 17.9408 47.5747 18.0581 47.6919C18.1753 47.8092 18.3342 47.875 18.5 47.875H22.9175C23.0642 48.9197 23.5834 49.8762 24.3795 50.5683C25.1757 51.2605 26.1951 51.6417 27.25 51.6417C28.3049 51.6417 29.3243 51.2605 30.1205 50.5683C30.9166 49.8762 31.4358 48.9197 31.5825 47.875H40.4175C40.5642 48.9197 41.0834 49.8762 41.8795 50.5683C42.6757 51.2605 43.6951 51.6417 44.75 51.6417C45.8049 51.6417 46.8243 51.2605 47.6205 50.5683C48.4166 49.8762 48.9358 48.9197 49.0825 47.875H53.5C53.6658 47.875 53.8247 47.8092 53.9419 47.6919C54.0592 47.5747 54.125 47.4158 54.125 47.25V33.5C54.125 26.2625 47.9569 20.375 40.375 20.375ZM41 24.1544C46 24.4469 50.0094 28.1919 50.3412 32.875H41V24.1544ZM27.6062 28.5075C27.6025 28.5075 27.5981 28.5075 27.5944 28.5025C27.5003 28.4295 27.3816 28.3954 27.2631 28.4075C27.2187 28.4025 27.1738 28.4025 27.1294 28.4075C27.1018 28.4159 27.0748 28.4263 27.0487 28.4388C26.9984 28.4535 26.9501 28.4745 26.905 28.5013C26.9012 28.5013 26.8969 28.5013 26.8938 28.5063L24.125 30.43V21.625H30.375V30.43L27.6062 28.5075ZM19.125 21.625H22.875V31.625C22.8751 31.7391 22.9064 31.8509 22.9655 31.9485C23.0246 32.0461 23.1093 32.1256 23.2104 32.1784C23.3115 32.2313 23.4251 32.2555 23.5389 32.2484C23.6528 32.2413 23.7625 32.2031 23.8562 32.1381L27.25 29.7819L30.6438 32.1381C30.7483 32.2108 30.8726 32.2499 31 32.25C31.1658 32.25 31.3247 32.1842 31.4419 32.0669C31.5592 31.9497 31.625 31.7908 31.625 31.625V21.625H39.75V39.75H19.125V21.625ZM27.2437 50.375C26.8333 50.3762 26.4267 50.2962 26.0473 50.1395C25.668 49.9828 25.3234 49.7526 25.0335 49.4621C24.7435 49.1716 24.514 48.8265 24.3581 48.4469C24.2021 48.0672 24.1229 47.6604 24.125 47.25C24.125 47.1919 24.1306 47.1337 24.1356 47.0694C24.1941 46.2975 24.5414 45.5761 25.1082 45.0489C25.675 44.5217 26.4197 44.2275 27.1938 44.225C27.9764 44.2222 28.7315 44.5138 29.3093 45.0419C29.887 45.5699 30.2451 46.2959 30.3125 47.0756C30.3215 47.1615 30.3425 47.2456 30.375 47.3256C30.3604 48.144 30.0232 48.9235 29.4368 49.4946C28.8504 50.0656 28.0622 50.3821 27.2437 50.375ZM44.7438 50.375C44.3333 50.3762 43.9267 50.2962 43.5473 50.1395C43.168 49.9828 42.8234 49.7526 42.5335 49.4621C42.2435 49.1716 42.014 48.8265 41.8581 48.4469C41.7022 48.0672 41.6229 47.6604 41.625 47.25C41.625 47.1919 41.6306 47.1337 41.6356 47.0694C41.6941 46.2975 42.0414 45.5761 42.6082 45.0489C43.175 44.5217 43.9197 44.2275 44.6938 44.225C45.4764 44.2222 46.2315 44.5138 46.8093 45.0419C47.387 45.5699 47.7451 46.2959 47.8125 47.0756C47.8215 47.1615 47.8425 47.2456 47.875 47.3256C47.8604 48.144 47.5232 48.9235 46.9368 49.4946C46.3504 50.0656 45.5622 50.3821 44.7438 50.375ZM49.0156 46.625C48.8428 45.604 48.3139 44.6772 47.5227 44.009C46.7316 43.3408 45.7293 42.9745 44.6938 42.975C43.6657 42.9786 42.6725 43.3478 41.8916 44.0165C41.1107 44.6852 40.5931 45.6098 40.4312 46.625H31.5156C31.3428 45.604 30.8139 44.6772 30.0227 44.009C29.2316 43.3408 28.2293 42.9745 27.1938 42.975C26.1657 42.9786 25.1725 43.3478 24.3916 44.0165C23.6107 44.6852 23.0931 45.6098 22.9313 46.625H19.125V41H40.375C40.5408 41 40.6997 40.9342 40.8169 40.8169C40.9342 40.6997 41 40.5408 41 40.375V34.125H51C51.1658 34.125 51.3247 34.0592 51.4419 33.9419C51.5592 33.8247 51.625 33.6658 51.625 33.5C51.625 27.8406 46.9119 23.2138 41 22.905V21.655C47.6012 21.9675 52.875 27.155 52.875 33.5V35.62C51.4137 35.7981 50.375 36.5944 50.375 37.6125C50.375 38.6306 51.4137 39.425 52.875 39.605V46.625H49.0156ZM52.875 38.3431C52.105 38.2131 51.625 37.8619 51.625 37.6125C51.625 37.3906 52.0869 37.0194 52.875 36.8831V38.3431Z" fill="white"/>
<path d="M44.75 36H42.875C42.7092 36 42.5503 36.0658 42.4331 36.1831C42.3158 36.3003 42.25 36.4592 42.25 36.625C42.25 36.7908 42.3158 36.9497 42.4331 37.0669C42.5503 37.1842 42.7092 37.25 42.875 37.25H44.75C44.9158 37.25 45.0747 37.1842 45.1919 37.0669C45.3092 36.9497 45.375 36.7908 45.375 36.625C45.375 36.4592 45.3092 36.3003 45.1919 36.1831C45.0747 36.0658 44.9158 36 44.75 36ZM23.5 36H27.25C27.4158 36 27.5747 35.9342 27.6919 35.8169C27.8092 35.6997 27.875 35.5408 27.875 35.375C27.875 35.2092 27.8092 35.0503 27.6919 34.9331C27.5747 34.8158 27.4158 34.75 27.25 34.75H23.5C23.3342 34.75 23.1753 34.8158 23.0581 34.9331C22.9408 35.0503 22.875 35.2092 22.875 35.375C22.875 35.5408 22.9408 35.6997 23.0581 35.8169C23.1753 35.9342 23.3342 36 23.5 36ZM31 36.625H23.5C23.3342 36.625 23.1753 36.6908 23.0581 36.8081C22.9408 36.9253 22.875 37.0842 22.875 37.25C22.875 37.4158 22.9408 37.5747 23.0581 37.6919C23.1753 37.8092 23.3342 37.875 23.5 37.875H31C31.1658 37.875 31.3247 37.8092 31.4419 37.6919C31.5592 37.5747 31.625 37.4158 31.625 37.25C31.625 37.0842 31.5592 36.9253 31.4419 36.8081C31.3247 36.6908 31.1658 36.625 31 36.625Z" fill="white"/>
</svg>
