<svg width="71" height="71" viewBox="0 0 71 71" fill="none" xmlns="http://www.w3.org/2000/svg">
<g filter="url(#filter0_d_471_74)">
<circle cx="20.286" cy="20.286" r="20.286" transform="matrix(-1 0 0 1 55.5718 11)" fill="#FB5D3A"/>
</g>
<path d="M44.3706 30.2929C44.7611 30.6834 44.7611 31.3166 44.3706 31.7071L38.0066 38.0711C37.6161 38.4616 36.9829 38.4616 36.5924 38.0711C36.2019 37.6805 36.2019 37.0474 36.5924 36.6569L42.2493 31L36.5924 25.3431C36.2019 24.9526 36.2019 24.3195 36.5924 23.9289C36.9829 23.5384 37.6161 23.5384 38.0066 23.9289L44.3706 30.2929ZM27 30L43.6635 30V32H27V30Z" fill="white"/>
<defs>
<filter id="filter0_d_471_74" x="0" y="0" width="70.5718" height="70.5719" filterUnits="userSpaceOnUse" color-interpolation-filters="sRGB">
<feFlood flood-opacity="0" result="BackgroundImageFix"/>
<feColorMatrix in="SourceAlpha" type="matrix" values="0 0 0 0 0 0 0 0 0 0 0 0 0 0 0 0 0 0 127 0" result="hardAlpha"/>
<feOffset dy="4"/>
<feGaussianBlur stdDeviation="7.5"/>
<feColorMatrix type="matrix" values="0 0 0 0 0 0 0 0 0 0 0 0 0 0 0 0 0 0 0.09 0"/>
<feBlend mode="normal" in2="BackgroundImageFix" result="effect1_dropShadow_471_74"/>
<feBlend mode="normal" in="SourceGraphic" in2="effect1_dropShadow_471_74" result="shape"/>
</filter>
</defs>
</svg>
