<svg width="23" height="23" viewBox="0 0 23 23" fill="none" xmlns="http://www.w3.org/2000/svg">
<path d="M17.8482 12.3517C17.7369 12.2402 17.6046 12.1517 17.459 12.0913C17.3135 12.031 17.1574 11.9999 16.9998 11.9999C16.8422 11.9999 16.6862 12.031 16.5406 12.0913C16.395 12.1517 16.2628 12.2402 16.1514 12.3517L14.2386 14.2645C13.3519 14.0005 11.6971 13.4005 10.6483 12.3517C9.59949 11.3029 8.9995 9.64814 8.7355 8.76135L10.6483 6.84857C10.7598 6.73723 10.8483 6.60498 10.9087 6.45941C10.969 6.31383 11.0001 6.15778 11.0001 6.00018C11.0001 5.84258 10.969 5.68653 10.9087 5.54095C10.8483 5.39538 10.7598 5.26313 10.6483 5.15179L5.84833 0.351838C5.73698 0.240304 5.60474 0.15182 5.45917 0.0914472C5.31359 0.031075 5.15754 0 4.99994 0C4.84234 0 4.68629 0.031075 4.54071 0.0914472C4.39513 0.15182 4.26289 0.240304 4.15155 0.351838L0.897179 3.60621C0.441183 4.0622 0.184386 4.68859 0.193985 5.32819C0.221585 7.03697 0.673981 12.9721 5.35153 17.6497C10.0291 22.3272 15.9642 22.7784 17.6742 22.8072H17.7078C18.3414 22.8072 18.9402 22.5576 19.3938 22.104L22.6482 18.8497C22.7597 18.7383 22.8482 18.6061 22.9086 18.4605C22.9689 18.3149 23 18.1589 23 18.0013C23 17.8437 22.9689 17.6876 22.9086 17.542C22.8482 17.3965 22.7597 17.2642 22.6482 17.1529L17.8482 12.3517ZM17.6958 20.406C16.1982 20.3808 11.0743 19.9788 7.04832 15.9517C3.00916 11.9125 2.61796 6.77057 2.59396 5.30299L4.99994 2.89701L8.10311 6.00018L6.55152 7.55177C6.41048 7.6927 6.30678 7.86657 6.24979 8.05764C6.1928 8.24872 6.18432 8.45098 6.22513 8.64615C6.25393 8.78415 6.95832 12.0565 8.9503 14.0485C10.9423 16.0405 14.2146 16.7449 14.3526 16.7737C14.5477 16.8156 14.7502 16.8078 14.9414 16.751C15.1327 16.6942 15.3065 16.5901 15.447 16.4485L16.9998 14.8969L20.103 18.0001L17.6958 20.406Z" fill="#FB5D3A"/>
</svg>
