<svg data-v-423bf9ae="" xmlns="http://www.w3.org/2000/svg" viewBox="0 0 461 90" class="iconLeft"><!----><!----><!----><g data-v-423bf9ae="" id="a5a6c3e6-53cc-4a05-97bb-aa40eee6d8a7" fill="#FFFFFF" transform="matrix(5.819592391658763,0,0,5.819592391658763,107.32298889861988,-1.2366620738909617)"><path d="M10.11 12.77Q10.15 12.77 10.15 12.85Q10.15 12.94 10.11 12.94L10.11 12.94Q9.67 12.94 9.42 12.92L9.42 12.92L8.46 12.91L7.43 12.92Q7.18 12.94 6.76 12.94L6.76 12.94Q6.72 12.94 6.72 12.85Q6.72 12.77 6.76 12.77L6.76 12.77Q7.31 12.77 7.56 12.70Q7.81 12.63 7.90 12.43Q7.99 12.22 7.99 11.80L7.99 11.80L7.99 8.53L2.62 8.53L2.62 11.80Q2.62 12.22 2.71 12.43Q2.80 12.63 3.05 12.70Q3.30 12.77 3.85 12.77L3.85 12.77Q3.88 12.77 3.88 12.85Q3.88 12.94 3.85 12.94L3.85 12.94Q3.42 12.94 3.16 12.92L3.16 12.92L2.16 12.91L1.19 12.92Q0.94 12.94 0.49 12.94L0.49 12.94Q0.46 12.94 0.46 12.85Q0.46 12.77 0.49 12.77L0.49 12.77Q1.02 12.77 1.28 12.70Q1.54 12.63 1.63 12.43Q1.72 12.22 1.72 11.80L1.72 11.80L1.72 5.32Q1.72 4.90 1.63 4.70Q1.54 4.51 1.29 4.43Q1.04 4.35 0.50 4.35L0.50 4.35Q0.48 4.35 0.48 4.27Q0.48 4.19 0.50 4.19L0.50 4.19L1.22 4.20Q1.81 4.23 2.16 4.23L2.16 4.23Q2.56 4.23 3.18 4.20L3.18 4.20L3.85 4.19Q3.88 4.19 3.88 4.27Q3.88 4.35 3.85 4.35L3.85 4.35Q3.32 4.35 3.06 4.44Q2.80 4.52 2.71 4.72Q2.62 4.93 2.62 5.35L2.62 5.35L2.62 8.23L7.99 8.23L7.99 5.35Q7.99 4.93 7.90 4.72Q7.81 4.52 7.56 4.44Q7.31 4.35 6.76 4.35L6.76 4.35Q6.72 4.35 6.72 4.27Q6.72 4.19 6.76 4.19L6.76 4.19L7.43 4.20Q8.05 4.23 8.46 4.23L8.46 4.23Q8.83 4.23 9.42 4.20L9.42 4.20L10.11 4.19Q10.15 4.19 10.15 4.27Q10.15 4.35 10.11 4.35L10.11 4.35Q9.58 4.35 9.32 4.43Q9.07 4.51 8.98 4.70Q8.89 4.90 8.89 5.32L8.89 5.32L8.89 11.80Q8.89 12.22 8.98 12.43Q9.07 12.63 9.32 12.70Q9.58 12.77 10.11 12.77L10.11 12.77ZM15.71 12.15L15.72 12.15Q15.76 12.15 15.80 12.20Q15.83 12.25 15.81 12.29L15.81 12.29Q14.85 13.10 13.76 13.10L13.76 13.10Q12.94 13.10 12.33 12.73Q11.73 12.35 11.43 11.74Q11.13 11.13 11.13 10.42L11.13 10.42Q11.13 9.58 11.53 8.89Q11.93 8.20 12.61 7.80Q13.30 7.41 14.14 7.41L14.14 7.41Q14.90 7.41 15.32 7.78Q15.74 8.15 15.74 8.79L15.74 8.79Q15.74 8.96 15.70 9.04Q15.67 9.11 15.57 9.11L15.57 9.11L12.12 9.14Q12.05 9.52 12.05 9.87L12.05 9.87Q12.05 11.09 12.64 11.85Q13.23 12.61 14.27 12.61L14.27 12.61Q15.06 12.61 15.71 12.15L15.71 12.15ZM13.66 7.69Q13.09 7.69 12.71 8.02Q12.32 8.34 12.17 8.95L12.17 8.95L14.77 8.89Q14.77 8.32 14.47 8.00Q14.17 7.69 13.66 7.69L13.66 7.69ZM22.05 12.18L22.08 12.18Q22.13 12.18 22.15 12.24Q22.16 12.31 22.11 12.33L22.11 12.33L20.66 13.02Q20.61 13.05 20.55 13.05L20.55 13.05Q20.37 13.05 20.23 12.81Q20.09 12.57 20.05 12.15L20.05 12.15L19.18 12.61Q18.75 12.84 18.47 12.94Q18.19 13.03 17.92 13.03L17.92 13.03Q17.49 13.03 17.25 12.80Q17.02 12.57 17.02 12.22L17.02 12.22Q17.02 11.84 17.31 11.61Q17.60 11.38 18.34 11.13L18.34 11.13L20.03 10.53L20.03 9.37Q20.03 8.44 19.80 8.07Q19.56 7.70 19.14 7.70L19.14 7.70Q18.66 7.70 18.40 8.04Q18.13 8.37 18.07 8.85L18.07 8.85Q18.02 9.38 17.56 9.38L17.56 9.38Q17.33 9.38 17.21 9.27Q17.08 9.16 17.08 8.96L17.08 8.96Q17.08 8.64 17.50 8.27Q17.92 7.91 18.52 7.66Q19.11 7.41 19.59 7.41L19.59 7.41Q20.15 7.41 20.48 7.79Q20.82 8.18 20.82 8.95L20.82 8.95L20.82 11.42Q20.82 11.91 20.94 12.14Q21.07 12.36 21.36 12.36L21.36 12.36Q21.63 12.36 22.05 12.18L22.05 12.18ZM19.18 12.39L20.03 11.96L20.03 11.87L20.03 10.70L18.59 11.24Q18.27 11.37 18.14 11.52Q18.00 11.68 18.00 11.91L18.00 11.91Q18.00 12.21 18.17 12.37Q18.34 12.53 18.61 12.53L18.61 12.53Q18.87 12.53 19.18 12.39L19.18 12.39ZM22.69 12.94Q22.65 12.94 22.65 12.85Q22.65 12.77 22.69 12.77L22.69 12.77Q23.07 12.77 23.25 12.69Q23.44 12.61 23.51 12.41Q23.58 12.21 23.58 11.80L23.58 11.80L23.58 4.56Q23.58 4.06 23.48 3.84Q23.38 3.61 23.13 3.61L23.13 3.61Q22.92 3.61 22.48 3.81L22.48 3.81L22.46 3.81Q22.41 3.81 22.39 3.74Q22.37 3.67 22.41 3.65L22.41 3.65L24.21 2.80Q24.23 2.79 24.28 2.79L24.28 2.79Q24.30 2.79 24.35 2.82Q24.40 2.86 24.40 2.90L24.40 2.90L24.40 11.80Q24.40 12.21 24.46 12.40Q24.53 12.60 24.71 12.68Q24.89 12.77 25.27 12.77L25.27 12.77Q25.31 12.77 25.31 12.85Q25.31 12.94 25.27 12.94L25.27 12.94Q24.96 12.94 24.77 12.92L24.77 12.92L23.98 12.91L23.23 12.92Q23.03 12.94 22.69 12.94L22.69 12.94ZM30.07 12.22L30.10 12.21Q30.16 12.21 30.18 12.27Q30.21 12.33 30.17 12.36L30.17 12.36Q29.65 12.77 29.24 12.94Q28.83 13.10 28.38 13.10L28.38 13.10Q27.79 13.10 27.41 12.84Q27.03 12.57 27.03 11.96L27.03 11.96L27.03 8.67Q27.03 8.30 26.99 8.15Q26.94 7.99 26.80 7.94Q26.66 7.90 26.32 7.90L26.32 7.90Q26.26 7.90 26.26 7.80Q26.26 7.71 26.32 7.71L26.32 7.71Q26.88 7.70 27.23 7.41Q27.58 7.13 27.64 6.65L27.64 6.65Q27.64 6.61 27.75 6.61L27.75 6.61Q27.85 6.61 27.85 6.65L27.85 6.65L27.85 7.69Q28.55 7.67 29.79 7.55L29.79 7.55Q29.82 7.55 29.86 7.65Q29.89 7.76 29.89 7.88L29.89 7.88Q29.89 7.99 29.84 8.11Q29.79 8.23 29.74 8.22L29.74 8.22Q28.97 8.02 27.85 7.99L27.85 7.99L27.85 11.48Q27.85 12.05 28.13 12.33Q28.42 12.61 28.95 12.61L28.95 12.61Q29.60 12.61 30.07 12.22L30.07 12.22ZM37.16 12.77Q37.20 12.77 37.20 12.85Q37.20 12.94 37.16 12.94L37.16 12.94Q36.83 12.94 36.64 12.92L36.64 12.92L35.88 12.91L35.13 12.92Q34.93 12.94 34.61 12.94L34.61 12.94Q34.57 12.94 34.57 12.85Q34.57 12.77 34.61 12.77L34.61 12.77Q34.99 12.77 35.17 12.69Q35.35 12.61 35.42 12.41Q35.49 12.21 35.49 11.80L35.49 11.80L35.49 9.58Q35.49 8.75 35.18 8.35Q34.86 7.95 34.20 7.95L34.20 7.95Q33.77 7.95 33.32 8.18Q32.87 8.41 32.51 8.82L32.51 8.82L32.51 11.80Q32.51 12.21 32.58 12.41Q32.65 12.61 32.83 12.69Q33.01 12.77 33.39 12.77L33.39 12.77Q33.43 12.77 33.43 12.85Q33.43 12.94 33.39 12.94L33.39 12.94Q33.07 12.94 32.87 12.92L32.87 12.92L32.12 12.91L31.36 12.92Q31.16 12.94 30.84 12.94L30.84 12.94Q30.80 12.94 30.80 12.85Q30.80 12.77 30.84 12.77L30.84 12.77Q31.22 12.77 31.40 12.69Q31.58 12.61 31.65 12.41Q31.72 12.21 31.72 11.80L31.72 11.80L31.72 4.56Q31.72 4.06 31.63 3.84Q31.53 3.61 31.28 3.61L31.28 3.61Q31.07 3.61 30.63 3.81L30.63 3.81L30.60 3.81Q30.56 3.81 30.53 3.74Q30.51 3.67 30.56 3.65L30.56 3.65L32.34 2.79L32.38 2.79Q32.44 2.79 32.47 2.82Q32.51 2.86 32.51 2.90L32.51 2.90L32.51 8.58Q33.04 7.97 33.57 7.68Q34.09 7.39 34.66 7.39L34.66 7.39Q35.43 7.39 35.85 7.83Q36.27 8.26 36.27 9.09L36.27 9.09L36.27 11.80Q36.27 12.21 36.34 12.41Q36.41 12.61 36.60 12.69Q36.78 12.77 37.16 12.77L37.16 12.77ZM44.11 10.85Q44.11 10.82 44.17 10.82L44.17 10.82Q44.21 10.82 44.25 10.84Q44.28 10.85 44.28 10.88L44.28 10.88Q44.16 11.76 44.16 12.73L44.16 12.73Q44.16 12.84 44.11 12.89Q44.06 12.94 43.93 12.94L43.93 12.94L38.07 12.94Q38.04 12.94 38.04 12.85Q38.04 12.77 38.07 12.77L38.07 12.77Q38.60 12.77 38.84 12.70Q39.09 12.63 39.18 12.43Q39.27 12.22 39.27 11.80L39.27 11.80L39.27 5.32Q39.27 4.90 39.18 4.70Q39.09 4.51 38.84 4.43Q38.60 4.35 38.07 4.35L38.07 4.35Q38.04 4.35 38.04 4.27Q38.04 4.19 38.07 4.19L38.07 4.19L43.69 4.19Q43.82 4.19 43.82 4.31L43.82 4.31L43.85 6.03Q43.85 6.08 43.78 6.08Q43.71 6.09 43.69 6.05L43.69 6.05Q43.65 5.31 43.25 4.89Q42.84 4.48 42.17 4.48L42.17 4.48L41.31 4.48Q40.82 4.48 40.59 4.56Q40.36 4.63 40.27 4.82Q40.18 5.01 40.18 5.39L40.18 5.39L40.18 8.23L41.89 8.23Q42.56 8.23 42.85 8.01Q43.13 7.78 43.13 7.25L43.13 7.25Q43.13 7.22 43.22 7.22Q43.30 7.22 43.30 7.25L43.30 7.25L43.29 8.39Q43.29 8.79 43.30 9.00L43.30 9.00L43.32 9.67Q43.32 9.70 43.23 9.70Q43.15 9.70 43.15 9.67L43.15 9.67Q43.15 9.06 42.85 8.79Q42.55 8.53 41.85 8.53L41.85 8.53L40.18 8.53L40.18 11.75Q40.18 12.14 40.26 12.32Q40.35 12.50 40.57 12.57Q40.80 12.64 41.27 12.64L41.27 12.64L42.39 12.64Q43.06 12.64 43.51 12.17Q43.96 11.69 44.11 10.85L44.11 10.85ZM50.76 12.18L50.79 12.18Q50.85 12.18 50.86 12.24Q50.88 12.31 50.82 12.33L50.82 12.33L49.38 13.02Q49.32 13.05 49.27 13.05L49.27 13.05Q49.08 13.05 48.94 12.81Q48.80 12.57 48.76 12.15L48.76 12.15L47.89 12.61Q47.46 12.84 47.18 12.94Q46.90 13.03 46.63 13.03L46.63 13.03Q46.20 13.03 45.97 12.80Q45.74 12.57 45.74 12.22L45.74 12.22Q45.74 11.84 46.02 11.61Q46.31 11.38 47.05 11.13L47.05 11.13L48.75 10.53L48.75 9.37Q48.75 8.44 48.51 8.07Q48.27 7.70 47.85 7.70L47.85 7.70Q47.38 7.70 47.11 8.04Q46.84 8.37 46.79 8.85L46.79 8.85Q46.73 9.38 46.27 9.38L46.27 9.38Q46.05 9.38 45.92 9.27Q45.79 9.16 45.79 8.96L45.79 8.96Q45.79 8.64 46.21 8.27Q46.63 7.91 47.23 7.66Q47.82 7.41 48.30 7.41L48.30 7.41Q48.86 7.41 49.20 7.79Q49.53 8.18 49.53 8.95L49.53 8.95L49.53 11.42Q49.53 11.91 49.66 12.14Q49.78 12.36 50.08 12.36L50.08 12.36Q50.34 12.36 50.76 12.18L50.76 12.18ZM47.89 12.39L48.75 11.96L48.75 11.87L48.75 10.70L47.31 11.24Q46.98 11.37 46.85 11.52Q46.72 11.68 46.72 11.91L46.72 11.91Q46.72 12.21 46.89 12.37Q47.05 12.53 47.32 12.53L47.32 12.53Q47.59 12.53 47.89 12.39L47.89 12.39ZM52.25 8.39Q52.25 8.88 52.57 9.16Q52.89 9.45 53.52 9.77L53.52 9.77Q54.01 10.02 54.28 10.21Q54.56 10.39 54.75 10.68Q54.95 10.98 54.95 11.40L54.95 11.40Q54.95 12.11 54.42 12.60Q53.89 13.09 52.98 13.09L52.98 13.09Q52.23 13.09 51.63 12.67L51.63 12.67Q51.55 12.61 51.55 12.50L51.55 12.50L51.52 11.41Q51.52 11.37 51.60 11.36Q51.67 11.35 51.69 11.40L51.69 11.40Q51.95 12.10 52.38 12.46Q52.81 12.82 53.37 12.82L53.37 12.82Q53.80 12.82 54.05 12.62Q54.29 12.42 54.29 12.01L54.29 12.01Q54.29 11.62 54.12 11.35Q53.94 11.07 53.69 10.91Q53.44 10.75 53.00 10.53L53.00 10.53Q52.54 10.30 52.27 10.12Q52.00 9.94 51.81 9.65Q51.62 9.35 51.62 8.92L51.62 8.92Q51.62 8.16 52.19 7.76Q52.75 7.36 53.52 7.36L53.52 7.36Q54.08 7.36 54.54 7.57L54.54 7.57Q54.63 7.60 54.65 7.64Q54.67 7.67 54.67 7.73L54.67 7.73Q54.67 8.01 54.66 8.16L54.66 8.16L54.64 8.75Q54.64 8.78 54.56 8.78Q54.47 8.78 54.47 8.75L54.47 8.75Q54.47 8.46 54.25 8.20Q54.03 7.94 53.69 7.78Q53.35 7.63 53.02 7.63L53.02 7.63Q52.65 7.63 52.45 7.82Q52.25 8.01 52.25 8.39L52.25 8.39ZM60.66 12.15L60.68 12.15Q60.72 12.15 60.75 12.20Q60.79 12.25 60.76 12.29L60.76 12.29Q59.81 13.10 58.72 13.10L58.72 13.10Q57.89 13.10 57.29 12.73Q56.69 12.35 56.38 11.74Q56.08 11.13 56.08 10.42L56.08 10.42Q56.08 9.58 56.48 8.89Q56.88 8.20 57.57 7.80Q58.25 7.41 59.09 7.41L59.09 7.41Q59.85 7.41 60.27 7.78Q60.69 8.15 60.69 8.79L60.69 8.79Q60.69 8.96 60.66 9.04Q60.62 9.11 60.52 9.11L60.52 9.11L57.08 9.14Q57.01 9.52 57.01 9.87L57.01 9.87Q57.01 11.09 57.60 11.85Q58.18 12.61 59.22 12.61L59.22 12.61Q60.02 12.61 60.66 12.15L60.66 12.15ZM58.62 7.69Q58.04 7.69 57.66 8.02Q57.27 8.34 57.12 8.95L57.12 8.95L59.72 8.89Q59.72 8.32 59.42 8.00Q59.12 7.69 58.62 7.69L58.62 7.69Z"></path></g><!----><g data-v-423bf9ae="" id="a6480180-f22e-4acc-af46-a1955b201417" transform="matrix(2.8125,0,0,2.8125,0,0)" stroke="none" fill="#81E291"><path d="M0 16l16 16 16-16L16 0 0 16zm16 13.172L2.828 16 16 2.828 29.172 16 16 29.172z"></path><path d="M14.751 9.991v4.76h-2.262v-4.76H9.991v12.018h2.498v-4.76h2.262v4.76h2.498v-4.76h2.262v4.76h2.498V9.991h-2.498v4.76h-2.262v-4.76z"></path></g><!----></svg>