<svg width="399" height="399" viewBox="0 0 399 399" fill="none" xmlns="http://www.w3.org/2000/svg">
<g opacity="0.5">
<path d="M0.807006 277.955C0.285836 276.392 1.77331 274.904 3.33682 275.425L3.53371 275.491C4.94418 275.961 5.36678 277.751 4.31548 278.803L4.18422 278.934C3.13292 279.985 1.34279 279.563 0.872635 278.152L0.807006 277.955Z" fill="#EAF0FF"/>
<path d="M39.4961 316.644C38.9749 315.081 40.4624 313.593 42.0259 314.115L43.8491 314.722C45.2596 315.192 45.6822 316.983 44.6309 318.034L43.4154 319.249C42.3641 320.301 40.574 319.878 40.1038 318.468L39.4961 316.644Z" fill="#EAF0FF"/>
<path d="M78.7273 355.876C78.2062 354.312 79.6936 352.825 81.2571 353.346L83.0803 353.953C84.4908 354.424 84.9134 356.214 83.8621 357.265L82.6466 358.481C81.5953 359.532 79.8052 359.109 79.3351 357.699L78.7273 355.876Z" fill="#EAF0FF"/>
<path d="M118.501 395.649C117.979 394.085 119.467 392.598 121.03 393.119L121.227 393.185C122.638 393.655 123.06 395.445 122.009 396.496L121.878 396.628C120.827 397.679 119.036 397.256 118.566 395.846L118.501 395.649Z" fill="#EAF0FF"/>
<path d="M0.264909 198.951C-0.256263 197.387 1.23122 195.9 2.79473 196.421L4.61792 197.029C6.02839 197.499 6.45099 199.289 5.39969 200.34L4.18422 201.556C3.13292 202.607 1.3428 202.184 0.872641 200.774L0.264909 198.951Z" fill="#EAF0FF"/>
<path d="M38.4119 237.098C37.8907 235.534 39.3782 234.047 40.9417 234.568L46.0175 236.26C47.428 236.73 47.8506 238.52 46.7993 239.571L43.4154 242.955C42.3641 244.007 40.574 243.584 40.1038 242.174L38.4119 237.098Z" fill="#EAF0FF"/>
<path d="M76.5446 275.23C76.0235 273.667 77.5109 272.18 79.0745 272.701L87.4457 275.491C88.8562 275.961 89.2788 277.751 88.2275 278.803L82.6466 284.383C81.5953 285.435 79.8052 285.012 79.3351 283.602L76.5446 275.23Z" fill="#EAF0FF"/>
<path d="M115.776 314.462C115.255 312.898 116.742 311.411 118.306 311.932L126.677 314.722C128.087 315.192 128.51 316.983 127.459 318.034L121.878 323.615C120.827 324.666 119.036 324.243 118.566 322.833L115.776 314.462Z" fill="#EAF0FF"/>
<path d="M156.106 354.791C155.584 353.228 157.072 351.74 158.635 352.262L163.711 353.953C165.122 354.424 165.544 356.214 164.493 357.265L161.109 360.649C160.058 361.7 158.268 361.278 157.797 359.867L156.106 354.791Z" fill="#EAF0FF"/>
<path d="M196.421 395.107C195.9 393.543 197.387 392.056 198.951 392.577L200.774 393.185C202.184 393.655 202.607 395.445 201.556 396.496L200.34 397.712C199.289 398.763 197.499 398.34 197.029 396.93L196.421 395.107Z" fill="#EAF0FF"/>
<path d="M0.807012 121.03C0.285839 119.467 1.77332 117.979 3.33684 118.501L3.53372 118.566C4.94418 119.036 5.36677 120.827 4.31547 121.878L4.18422 122.009C3.13292 123.06 1.34279 122.638 0.872639 121.227L0.807012 121.03Z" fill="#EAF0FF"/>
<path d="M38.4119 158.635C37.8907 157.072 39.3782 155.584 40.9417 156.106L46.0175 157.797C47.428 158.268 47.8506 160.058 46.7993 161.109L43.4154 164.493C42.3641 165.544 40.574 165.122 40.1038 163.711L38.4119 158.635Z" fill="#EAF0FF"/>
<path d="M76.0025 196.226C75.4814 194.662 76.9688 193.175 78.5323 193.696L88.5299 197.029C89.9404 197.499 90.363 199.289 89.3117 200.34L82.6466 207.005C81.5953 208.057 79.8052 207.634 79.335 206.224L76.0025 196.226Z" fill="#EAF0FF"/>
<path d="M113.607 233.831C113.086 232.267 114.574 230.78 116.137 231.301L131.014 236.26C132.424 236.73 132.847 238.52 131.795 239.571L121.878 249.489C120.827 250.54 119.036 250.118 118.566 248.707L113.607 233.831Z" fill="#EAF0FF"/>
<path d="M152.839 273.062C152.317 271.499 153.805 270.011 155.368 270.532L170.245 275.491C171.655 275.961 172.078 277.751 171.027 278.803L161.109 288.72C160.058 289.772 158.268 289.349 157.797 287.939L152.839 273.062Z" fill="#EAF0FF"/>
<path d="M193.696 313.92C193.175 312.356 194.662 310.869 196.226 311.39L206.224 314.722C207.634 315.192 208.057 316.983 207.005 318.034L200.34 324.699C199.289 325.75 197.499 325.328 197.029 323.917L193.696 313.92Z" fill="#EAF0FF"/>
<path d="M234.568 354.791C234.047 353.228 235.534 351.74 237.098 352.262L242.174 353.953C243.584 354.424 244.007 356.214 242.955 357.265L239.571 360.649C238.52 361.7 236.73 361.278 236.26 359.867L234.568 354.791Z" fill="#EAF0FF"/>
<path d="M275.425 395.649C274.904 394.085 276.392 392.598 277.955 393.119L278.152 393.185C279.563 393.655 279.985 395.445 278.934 396.496L278.803 396.628C277.751 397.679 275.961 397.256 275.491 395.846L275.425 395.649Z" fill="#EAF0FF"/>
<path d="M39.4961 81.2571C38.9749 79.6936 40.4624 78.2062 42.0259 78.7273L43.8491 79.3351C45.2596 79.8052 45.6822 81.5953 44.6309 82.6466L43.4154 83.8621C42.3641 84.9134 40.574 84.4908 40.1038 83.0803L39.4961 81.2571Z" fill="#EAF0FF"/>
<path d="M76.5446 118.306C76.0235 116.742 77.5109 115.255 79.0745 115.776L87.4457 118.566C88.8562 119.036 89.2788 120.827 88.2275 121.878L82.6466 127.459C81.5953 128.51 79.8052 128.087 79.3351 126.677L76.5446 118.306Z" fill="#EAF0FF"/>
<path d="M113.607 155.368C113.086 153.805 114.574 152.317 116.137 152.839L131.014 157.797C132.424 158.268 132.847 160.058 131.795 161.109L121.878 171.027C120.827 172.078 119.036 171.655 118.566 170.245L113.607 155.368Z" fill="#EAF0FF"/>
<path d="M150.656 192.417C150.135 190.853 151.622 189.366 153.186 189.887L174.61 197.029C176.021 197.499 176.443 199.289 175.392 200.34L161.109 214.623C160.058 215.675 158.268 215.252 157.797 213.842L150.656 192.417Z" fill="#EAF0FF"/>
<path d="M189.887 231.648C189.366 230.085 190.853 228.597 192.417 229.118L213.842 236.26C215.252 236.73 215.675 238.52 214.623 239.571L200.34 253.854C199.289 254.906 197.499 254.483 197.029 253.073L189.887 231.648Z" fill="#EAF0FF"/>
<path d="M231.301 273.062C230.78 271.499 232.267 270.011 233.831 270.532L248.707 275.491C250.118 275.961 250.54 277.751 249.489 278.803L239.571 288.72C238.52 289.772 236.73 289.349 236.26 287.939L231.301 273.062Z" fill="#EAF0FF"/>
<path d="M272.701 314.462C272.18 312.898 273.667 311.411 275.23 311.932L283.602 314.722C285.012 315.192 285.435 316.983 284.383 318.034L278.803 323.615C277.751 324.666 275.961 324.243 275.491 322.833L272.701 314.462Z" fill="#EAF0FF"/>
<path d="M314.115 355.876C313.593 354.312 315.081 352.825 316.644 353.346L318.468 353.953C319.878 354.424 320.301 356.214 319.249 357.265L318.034 358.481C316.983 359.532 315.192 359.109 314.722 357.699L314.115 355.876Z" fill="#EAF0FF"/>
<path d="M78.7273 42.0259C78.2062 40.4624 79.6936 38.9749 81.2571 39.4961L83.0803 40.1038C84.4908 40.574 84.9134 42.3641 83.8621 43.4154L82.6466 44.6309C81.5953 45.6822 79.8052 45.2596 79.3351 43.8491L78.7273 42.0259Z" fill="#EAF0FF"/>
<path d="M115.776 79.0745C115.255 77.5109 116.742 76.0235 118.306 76.5446L126.677 79.3351C128.087 79.8052 128.51 81.5953 127.459 82.6466L121.878 88.2275C120.827 89.2788 119.036 88.8562 118.566 87.4457L115.776 79.0745Z" fill="#EAF0FF"/>
<path d="M152.839 116.137C152.317 114.574 153.805 113.086 155.368 113.607L170.245 118.566C171.655 119.036 172.078 120.827 171.027 121.878L161.109 131.796C160.058 132.847 158.268 132.424 157.797 131.014L152.839 116.137Z" fill="#EAF0FF"/>
<path d="M189.887 153.186C189.366 151.622 190.853 150.135 192.417 150.656L213.842 157.797C215.252 158.268 215.675 160.058 214.623 161.109L200.34 175.392C199.289 176.443 197.499 176.021 197.029 174.61L189.887 153.186Z" fill="#EAF0FF"/>
<path d="M229.118 192.417C228.597 190.853 230.085 189.366 231.648 189.887L253.073 197.029C254.483 197.499 254.906 199.289 253.854 200.34L239.571 214.623C238.52 215.675 236.73 215.252 236.26 213.842L229.118 192.417Z" fill="#EAF0FF"/>
<path d="M270.532 233.831C270.011 232.267 271.499 230.78 273.062 231.301L287.939 236.26C289.349 236.73 289.772 238.52 288.72 239.571L278.803 249.489C277.751 250.54 275.961 250.118 275.491 248.707L270.532 233.831Z" fill="#EAF0FF"/>
<path d="M311.932 275.23C311.411 273.667 312.898 272.18 314.462 272.701L322.833 275.491C324.243 275.961 324.666 277.751 323.615 278.803L318.034 284.383C316.983 285.435 315.192 285.012 314.722 283.602L311.932 275.23Z" fill="#EAF0FF"/>
<path d="M353.346 316.644C352.825 315.081 354.312 313.593 355.876 314.115L357.699 314.722C359.109 315.192 359.532 316.983 358.481 318.034L357.265 319.249C356.214 320.301 354.424 319.878 353.953 318.468L353.346 316.644Z" fill="#EAF0FF"/>
<path d="M118.501 3.33683C117.979 1.77331 119.467 0.285836 121.03 0.807008L121.227 0.872635C122.638 1.34279 123.06 3.13291 122.009 4.18422L121.878 4.31547C120.827 5.36677 119.036 4.94418 118.566 3.53371L118.501 3.33683Z" fill="#EAF0FF"/>
<path d="M156.106 40.9417C155.584 39.3782 157.072 37.8907 158.635 38.4119L163.711 40.1038C165.122 40.574 165.544 42.3641 164.493 43.4154L161.109 46.7993C160.058 47.8506 158.268 47.428 157.797 46.0175L156.106 40.9417Z" fill="#EAF0FF"/>
<path d="M193.696 78.5324C193.175 76.9688 194.662 75.4814 196.226 76.0025L206.224 79.3351C207.634 79.8052 208.057 81.5953 207.005 82.6466L200.34 89.3117C199.289 90.363 197.499 89.9404 197.029 88.5299L193.696 78.5324Z" fill="#EAF0FF"/>
<path d="M231.301 116.137C230.78 114.574 232.267 113.086 233.831 113.607L248.707 118.566C250.118 119.036 250.54 120.827 249.489 121.878L239.571 131.796C238.52 132.847 236.73 132.424 236.26 131.014L231.301 116.137Z" fill="#EAF0FF"/>
<path d="M270.532 155.368C270.011 153.805 271.499 152.317 273.062 152.839L287.939 157.797C289.349 158.268 289.772 160.058 288.72 161.109L278.803 171.027C277.751 172.078 275.961 171.655 275.491 170.245L270.532 155.368Z" fill="#EAF0FF"/>
<path d="M311.39 196.226C310.869 194.662 312.356 193.175 313.92 193.696L323.917 197.029C325.328 197.499 325.75 199.289 324.699 200.34L318.034 207.005C316.983 208.057 315.192 207.634 314.722 206.224L311.39 196.226Z" fill="#EAF0FF"/>
<path d="M352.262 237.098C351.74 235.534 353.228 234.047 354.791 234.568L359.867 236.26C361.278 236.73 361.7 238.52 360.649 239.571L357.265 242.955C356.214 244.007 354.424 243.584 353.954 242.174L352.262 237.098Z" fill="#EAF0FF"/>
<path d="M393.119 277.955C392.598 276.392 394.085 274.904 395.649 275.425L395.846 275.491C397.256 275.961 397.679 277.751 396.628 278.803L396.496 278.934C395.445 279.985 393.655 279.563 393.185 278.152L393.119 277.955Z" fill="#EAF0FF"/>
<path d="M196.421 2.79473C195.9 1.23122 197.387 -0.256262 198.951 0.26491L200.774 0.872642C202.184 1.3428 202.607 3.13292 201.556 4.18422L200.34 5.39969C199.289 6.45099 197.499 6.02839 197.029 4.61793L196.421 2.79473Z" fill="#EAF0FF"/>
<path d="M234.568 40.9417C234.047 39.3782 235.534 37.8907 237.098 38.4119L242.174 40.1038C243.584 40.574 244.007 42.3641 242.955 43.4154L239.571 46.7993C238.52 47.8506 236.73 47.428 236.26 46.0175L234.568 40.9417Z" fill="#EAF0FF"/>
<path d="M272.701 79.0745C272.18 77.5109 273.667 76.0235 275.23 76.5446L283.602 79.3351C285.012 79.8052 285.435 81.5953 284.383 82.6466L278.803 88.2275C277.751 89.2788 275.961 88.8562 275.491 87.4457L272.701 79.0745Z" fill="#EAF0FF"/>
<path d="M311.932 118.306C311.411 116.742 312.898 115.255 314.462 115.776L322.833 118.566C324.243 119.036 324.666 120.827 323.615 121.878L318.034 127.459C316.983 128.51 315.192 128.087 314.722 126.677L311.932 118.306Z" fill="#EAF0FF"/>
<path d="M352.262 158.635C351.74 157.072 353.228 155.584 354.791 156.106L359.867 157.797C361.278 158.268 361.7 160.058 360.649 161.109L357.265 164.493C356.214 165.544 354.424 165.122 353.954 163.711L352.262 158.635Z" fill="#EAF0FF"/>
<path d="M392.577 198.951C392.056 197.387 393.543 195.9 395.107 196.421L396.93 197.029C398.34 197.499 398.763 199.289 397.712 200.34L396.496 201.556C395.445 202.607 393.655 202.184 393.185 200.774L392.577 198.951Z" fill="#EAF0FF"/>
<path d="M275.425 3.33683C274.904 1.77331 276.392 0.285833 277.955 0.807005L278.152 0.872632C279.563 1.34279 279.985 3.13291 278.934 4.18421L278.803 4.31547C277.751 5.36677 275.961 4.94418 275.491 3.53371L275.425 3.33683Z" fill="#EAF0FF"/>
<path d="M314.115 42.0259C313.593 40.4624 315.081 38.9749 316.644 39.4961L318.468 40.1038C319.878 40.574 320.301 42.3641 319.249 43.4154L318.034 44.6309C316.983 45.6822 315.192 45.2596 314.722 43.8491L314.115 42.0259Z" fill="#EAF0FF"/>
<path d="M353.346 81.2571C352.825 79.6936 354.312 78.2062 355.876 78.7273L357.699 79.3351C359.109 79.8052 359.532 81.5953 358.481 82.6466L357.265 83.8621C356.214 84.9134 354.424 84.4908 353.953 83.0803L353.346 81.2571Z" fill="#EAF0FF"/>
<path d="M393.119 121.03C392.598 119.467 394.085 117.979 395.649 118.501L395.846 118.566C397.256 119.036 397.679 120.827 396.628 121.878L396.496 122.009C395.445 123.06 393.655 122.638 393.185 121.227L393.119 121.03Z" fill="#EAF0FF"/>
</g>
</svg>
