<svg width="80" height="80" viewBox="0 0 80 80" fill="none" xmlns="http://www.w3.org/2000/svg">
<rect width="80" height="80" rx="40" fill="#FB5D3A"/>
<g clip-path="url(#clip0_21_139)">
<path d="M53.6725 48.8184H36.4611C34.8948 48.8072 33.3778 48.2697 32.1539 47.2921C30.9301 46.3145 30.0706 44.9538 29.7137 43.4286L26.9708 32.2789C26.7185 31.2436 26.7055 30.1644 26.933 29.1234C27.1605 28.0824 27.6223 27.1069 28.2835 26.2712C28.9446 25.4355 29.7876 24.7616 30.7484 24.3007C31.7092 23.8398 32.7624 23.6041 33.828 23.6115H56.4565C57.5221 23.6041 58.5753 23.8398 59.5361 24.3007C60.4969 24.7616 61.3399 25.4355 62.001 26.2712C62.6622 27.1069 63.1241 28.0824 63.3515 29.1234C63.579 30.1644 63.566 31.2436 63.3137 32.2789L60.5708 43.4561C60.2005 45.0002 59.3157 46.3723 58.062 47.3469C56.8083 48.3214 55.2603 48.8404 53.6725 48.8184ZM33.7457 27.0401C33.2036 27.0417 32.6689 27.166 32.1817 27.4036C31.6945 27.6412 31.2673 27.986 30.9322 28.4121C30.5971 28.8382 30.3628 29.3346 30.2468 29.8642C30.1307 30.3937 30.136 30.9426 30.2623 31.4698L33.0051 42.6469C33.1909 43.4302 33.6362 44.1276 34.2687 44.6256C34.9012 45.1236 35.6835 45.3929 36.4885 45.3898H53.6725C54.4775 45.3929 55.2599 45.1236 55.8924 44.6256C56.5249 44.1276 56.9702 43.4302 57.156 42.6469L59.8988 31.4698C60.0278 30.9424 60.0351 30.3925 59.9202 29.8619C59.8053 29.3312 59.5711 28.8337 59.2355 28.4069C58.8999 27.9801 58.4716 27.6352 57.983 27.3984C57.4944 27.1616 56.9583 27.0391 56.4154 27.0401H33.7457Z" fill="white"/>
<path d="M28.9737 35.2C28.582 35.1953 28.2038 35.0567 27.9018 34.8072C27.5999 34.5577 27.3926 34.2123 27.3143 33.8285L24.8594 23.1725C24.6327 22.2018 24.0833 21.3368 23.301 20.7189C22.5187 20.1011 21.5499 19.767 20.5531 19.7714H18.3177C17.863 19.7714 17.427 19.5908 17.1055 19.2693C16.784 18.9478 16.6034 18.5118 16.6034 18.0571C16.6034 17.6025 16.784 17.1664 17.1055 16.8449C17.427 16.5234 17.863 16.3428 18.3177 16.3428H20.5531C22.3247 16.3366 24.0461 16.9314 25.436 18.0299C26.826 19.1284 27.8023 20.6657 28.2057 22.3908L30.6468 33.0468C30.6997 33.2657 30.7085 33.4929 30.6728 33.7152C30.6372 33.9376 30.5577 34.1506 30.4391 34.342C30.3204 34.5333 30.1649 34.6992 29.9816 34.83C29.7984 34.9608 29.5909 35.054 29.3714 35.104C29.2425 35.1497 29.1092 35.1819 28.9737 35.2ZM36.7223 63.6571C35.6373 63.6571 34.5767 63.3354 33.6746 62.7326C32.7724 62.1298 32.0693 61.2731 31.6541 60.2707C31.2389 59.2683 31.1303 58.1653 31.3419 57.1012C31.5536 56.0371 32.0761 55.0596 32.8433 54.2924C33.6105 53.5252 34.5879 53.0028 35.652 52.7911C36.7162 52.5794 37.8192 52.688 38.8215 53.1032C39.8239 53.5185 40.6807 54.2216 41.2835 55.1237C41.8862 56.0258 42.208 57.0864 42.208 58.1714C42.208 59.6263 41.63 61.0216 40.6012 62.0504C39.5725 63.0791 38.1772 63.6571 36.7223 63.6571ZM36.7223 56.0594C36.31 56.0594 35.9069 56.1816 35.5641 56.4107C35.2213 56.6398 34.9541 56.9653 34.7964 57.3462C34.6386 57.7271 34.5973 58.1463 34.6777 58.5506C34.7582 58.955 34.9567 59.3264 35.2482 59.618C35.5398 59.9095 35.9112 60.108 36.3156 60.1885C36.7199 60.2689 37.1391 60.2276 37.52 60.0699C37.9009 59.9121 38.2265 59.6449 38.4555 59.3021C38.6846 58.9593 38.8068 58.5562 38.8068 58.144C38.8068 57.5911 38.5872 57.0609 38.1963 56.6699C37.8053 56.279 37.2751 56.0594 36.7223 56.0594ZM55.6754 63.6571C54.5904 63.6571 53.5298 63.3354 52.6277 62.7326C51.7256 62.1298 51.0225 61.2731 50.6073 60.2707C50.1921 59.2683 50.0834 58.1653 50.2951 57.1012C50.5068 56.0371 51.0292 55.0596 51.7964 54.2924C52.5636 53.5252 53.5411 53.0028 54.6052 52.7911C55.6693 52.5794 56.7723 52.688 57.7747 53.1032C58.7771 53.5185 59.6338 54.2216 60.2366 55.1237C60.8394 56.0258 61.1611 57.0864 61.1611 58.1714C61.1611 59.6263 60.5831 61.0216 59.5544 62.0504C58.5256 63.0791 57.1303 63.6571 55.6754 63.6571ZM55.6754 56.0594C55.2637 56.0621 54.862 56.1867 54.521 56.4174C54.18 56.648 53.915 56.9745 53.7593 57.3557C53.6036 57.7368 53.5643 58.1555 53.6463 58.559C53.7283 58.9624 53.9279 59.3326 54.2199 59.6228C54.512 59.9129 54.8835 60.1101 55.2874 60.1894C55.6914 60.2688 56.1099 60.2267 56.49 60.0685C56.8701 59.9103 57.1948 59.6432 57.4233 59.3006C57.6518 58.9581 57.7737 58.5557 57.7737 58.144C57.7737 57.8691 57.7193 57.5969 57.6137 57.343C57.5081 57.0892 57.3533 56.8588 57.1583 56.6651C56.9633 56.4713 56.7318 56.3181 56.4773 56.2141C56.2228 56.1102 55.9503 56.0576 55.6754 56.0594Z" fill="white"/>
<path d="M55.675 56.0594H32.827C31.4122 56.0594 30.0552 55.4973 29.0547 54.4968C28.0543 53.4963 27.4922 52.1394 27.4922 50.7245C27.4922 49.3096 28.0543 47.9527 29.0547 46.9522C30.0552 45.9517 31.4122 45.3896 32.827 45.3896H36.4613C36.916 45.3896 37.352 45.5703 37.6735 45.8917C37.995 46.2132 38.1756 46.6493 38.1756 47.1039C38.1756 47.5586 37.995 47.9946 37.6735 48.3161C37.352 48.6376 36.916 48.8182 36.4613 48.8182H32.827C32.3215 48.8182 31.8366 49.0191 31.4791 49.3766C31.1216 49.7341 30.9208 50.2189 30.9208 50.7245C30.9208 51.2301 31.1216 51.715 31.4791 52.0725C31.8366 52.43 32.3215 52.6308 32.827 52.6308H55.675C56.1297 52.6308 56.5657 52.8114 56.8872 53.1329C57.2087 53.4544 57.3893 53.8904 57.3893 54.3451C57.3893 54.7997 57.2087 55.2358 56.8872 55.5573C56.5657 55.8788 56.1297 56.0594 55.675 56.0594Z" fill="white"/>
</g>
<defs>
<clipPath id="clip0_21_139">
<rect width="48" height="48" fill="white" transform="translate(16 16)"/>
</clipPath>
</defs>
</svg>
