<svg width="550" height="602" viewBox="0 0 550 602" fill="none" xmlns="http://www.w3.org/2000/svg">
<path d="M464.964 248.643H304.466V540.555H464.964V248.643Z" fill="#E9EEF8"/>
<path d="M436.778 265.812H419.16V283.43H436.778V265.812Z" fill="#CDDDF1"/>
<path d="M436.778 301.575H419.16V319.194H436.778V301.575Z" fill="#CDDDF1"/>
<path d="M436.778 337.339H419.16V354.958H436.778V337.339Z" fill="#CDDDF1"/>
<path d="M57.9894 540.555V172.454L108.812 128.23V540.555H57.9894Z" fill="#E9EEF8"/>
<path d="M85.5002 191.14H67.0731C65.7655 191.14 64.705 190.081 64.705 188.773C64.705 187.465 65.7655 186.406 67.0731 186.406H85.5002C86.8078 186.406 87.8683 187.465 87.8683 188.773C87.8683 190.081 86.8078 191.14 85.5002 191.14Z" fill="#CDDDF1"/>
<path d="M85.5002 201.513H67.0731C65.7655 201.513 64.705 200.454 64.705 199.146C64.705 197.838 65.7655 196.779 67.0731 196.779H85.5002C86.8078 196.779 87.8683 197.838 87.8683 199.146C87.8683 200.453 86.8078 201.513 85.5002 201.513Z" fill="#CDDDF1"/>
<path d="M85.5002 211.886H67.0731C65.7655 211.886 64.705 210.826 64.705 209.518C64.705 208.211 65.7655 207.151 67.0731 207.151H85.5002C86.8078 207.151 87.8683 208.211 87.8683 209.518C87.8683 210.826 86.8078 211.886 85.5002 211.886Z" fill="#CDDDF1"/>
<path d="M507.06 328.673V545.799H456.235V372.896L507.06 328.673Z" fill="#E9EEF8"/>
<path d="M483.743 391.582H465.316C464.008 391.582 462.948 390.523 462.948 389.215C462.948 387.907 464.008 386.848 465.316 386.848H483.743C485.05 386.848 486.11 387.907 486.11 389.215C486.111 390.522 485.05 391.582 483.743 391.582Z" fill="#CDDDF1"/>
<path d="M483.743 401.955H465.316C464.008 401.955 462.948 400.895 462.948 399.587C462.948 398.28 464.008 397.22 465.316 397.22H483.743C485.05 397.22 486.11 398.28 486.11 399.587C486.111 400.895 485.05 401.955 483.743 401.955Z" fill="#CDDDF1"/>
<path d="M483.743 412.328H465.316C464.008 412.328 462.948 411.268 462.948 409.96C462.948 408.653 464.008 407.593 465.316 407.593H483.743C485.05 407.593 486.11 408.653 486.11 409.96C486.111 411.268 485.05 412.328 483.743 412.328Z" fill="#CDDDF1"/>
<path d="M85.4973 222.258H67.0703C65.7626 222.258 64.7021 221.199 64.7021 219.891C64.7021 218.583 65.7626 217.524 67.0703 217.524H85.4973C86.8049 217.524 87.8654 218.583 87.8654 219.891C87.8654 221.198 86.8049 222.258 85.4973 222.258Z" fill="#CDDDF1"/>
<path d="M165.367 300.336H6.28125V540.555H165.367V300.336Z" fill="#E9EEF8"/>
<path d="M37.5659 465.713C41.0803 459.81 44.1546 449.873 37.2644 441.956C30.3743 434.039 38.2245 430.766 39.2409 420.655C40.2574 410.545 27.0242 409.682 27.773 396.655C28.0774 391.354 24.3678 382.687 18.266 382.105C10.6579 381.38 6.25177 390.375 6.61333 396.654C7.36211 409.682 -5.87105 410.545 -4.85531 420.655C-3.83958 430.766 4.01119 434.039 -2.87897 441.956C-9.76913 449.874 -6.69469 459.81 -3.18031 465.713C0.334075 471.616 -7.35322 481.719 -3.83957 490.504C-0.344253 499.241 7.27854 512.104 17.1925 511.812C27.1064 512.104 34.7299 499.241 38.2245 490.504C41.7389 481.719 34.0515 471.615 37.5659 465.713Z" fill="#CDDDF1"/>
<path d="M17.6863 403.419V545.194H17.0264V403.419C17.0264 403.179 17.1723 402.984 17.3564 402.984C17.5375 402.983 17.6863 403.179 17.6863 403.419Z" fill="#92B2DD"/>
<path d="M17.3538 434.494C17.257 434.494 17.1616 434.451 17.0963 434.37L6.35446 420.952C6.24079 420.809 6.26357 420.603 6.40585 420.489C6.54813 420.375 6.75484 420.398 6.86851 420.54L17.6106 433.958C17.7242 434.1 17.7015 434.307 17.5592 434.421C17.499 434.47 17.4257 434.494 17.3538 434.494Z" fill="#92B2DD"/>
<path d="M17.3562 503.572C17.266 503.572 17.1765 503.535 17.1112 503.464C16.9895 503.329 16.9997 503.12 17.1354 502.998L29.8245 491.555C29.9594 491.433 30.1684 491.444 30.2894 491.579C30.4112 491.714 30.4002 491.923 30.2653 492.045L17.5762 503.488C17.5139 503.543 17.4347 503.572 17.3562 503.572Z" fill="#92B2DD"/>
<path d="M17.3548 412.765C17.2668 412.765 17.1788 412.73 17.1135 412.66L12.5336 407.752C12.4096 407.619 12.417 407.41 12.5497 407.286C12.6832 407.162 12.8915 407.169 13.0154 407.303L17.5953 412.21C17.7193 412.344 17.7119 412.552 17.5792 412.676C17.5161 412.735 17.4348 412.765 17.3548 412.765Z" fill="#92B2DD"/>
<path d="M17.3566 448.847C17.2642 448.847 17.1724 448.809 17.1072 448.733C16.9876 448.595 17.0024 448.388 17.1403 448.268L28.9932 437.983C29.1303 437.864 29.3386 437.878 29.4582 438.016C29.5777 438.153 29.5631 438.362 29.4252 438.481L17.5729 448.766C17.5098 448.82 17.4329 448.847 17.3566 448.847Z" fill="#92B2DD"/>
<path d="M17.3533 468C17.2675 468 17.1817 467.967 17.1165 467.901L2.37318 452.704C2.2463 452.574 2.24998 452.365 2.38052 452.239C2.51106 452.112 2.71935 452.115 2.84623 452.245L17.5895 467.442C17.7164 467.572 17.7127 467.781 17.5822 467.907C17.5184 467.97 17.4362 468 17.3533 468Z" fill="#92B2DD"/>
<path d="M546.182 465.713C549.697 459.81 552.771 449.873 545.881 441.956C538.991 434.039 546.841 430.766 547.857 420.655C548.874 410.545 535.641 409.682 536.389 396.655C536.693 391.354 532.984 382.687 526.882 382.105C519.274 381.38 514.868 390.375 515.229 396.654C515.978 409.682 502.745 410.545 503.76 420.655C504.777 430.766 512.627 434.039 505.737 441.956C498.847 449.873 501.922 459.81 505.435 465.713C508.95 471.616 501.263 481.719 504.777 490.504C508.272 499.241 515.895 512.104 525.809 511.812C535.723 512.104 543.346 499.241 546.841 490.504C550.356 481.719 542.669 471.615 546.182 465.713Z" fill="#CDDDF1"/>
<path d="M526.3 403.419V545.195H525.64V403.419C525.64 403.179 525.786 402.984 525.97 402.984C526.15 402.983 526.3 403.179 526.3 403.419Z" fill="#92B2DD"/>
<path d="M525.971 434.494C525.875 434.494 525.779 434.451 525.714 434.37L514.972 420.952C514.858 420.81 514.881 420.603 515.023 420.489C515.166 420.375 515.372 420.398 515.486 420.54L526.228 433.958C526.342 434.101 526.319 434.307 526.177 434.421C526.116 434.47 526.043 434.494 525.971 434.494Z" fill="#92B2DD"/>
<path d="M525.969 503.572C525.879 503.572 525.789 503.535 525.725 503.464C525.603 503.329 525.613 503.12 525.749 502.998L538.437 491.555C538.572 491.433 538.781 491.444 538.903 491.579C539.025 491.714 539.014 491.923 538.879 492.045L526.19 503.488C526.126 503.543 526.047 503.572 525.969 503.572Z" fill="#92B2DD"/>
<path d="M525.971 412.765C525.883 412.765 525.795 412.73 525.73 412.66L521.151 407.752C521.027 407.619 521.034 407.411 521.167 407.287C521.3 407.163 521.509 407.169 521.633 407.303L526.213 412.211C526.337 412.344 526.329 412.552 526.197 412.676C526.133 412.736 526.051 412.765 525.971 412.765Z" fill="#92B2DD"/>
<path d="M525.969 448.847C525.878 448.847 525.786 448.809 525.721 448.733C525.601 448.595 525.616 448.388 525.754 448.268L537.607 437.983C537.744 437.864 537.952 437.878 538.072 438.016C538.191 438.153 538.177 438.362 538.039 438.481L526.186 448.766C526.123 448.82 526.046 448.847 525.969 448.847Z" fill="#92B2DD"/>
<path d="M525.972 468.001C525.886 468.001 525.8 467.967 525.735 467.901L510.991 452.704C510.865 452.574 510.868 452.365 510.999 452.239C511.129 452.112 511.338 452.116 511.465 452.245L526.208 467.442C526.335 467.572 526.331 467.781 526.2 467.908C526.137 467.97 526.054 468.001 525.972 468.001Z" fill="#92B2DD"/>
<path d="M384.247 540.555H155.024C140.848 540.555 129.355 529.063 129.355 514.887V25.6685C129.355 11.4922 140.848 0 155.024 0H384.247C398.423 0 409.916 11.4922 409.916 25.6685V514.887C409.916 529.063 398.424 540.555 384.247 540.555Z" fill="#CDDDF1"/>
<path d="M382.116 17.0696H321.435V28.0095C321.435 29.0934 320.534 29.972 319.422 29.972H226.772C225.66 29.972 224.758 29.0934 224.758 28.0095V17.0696H157.157C149.371 17.0696 143.058 23.219 143.058 30.8052V513.319C143.058 520.905 149.371 527.054 157.157 527.054H382.116C389.903 527.054 396.215 520.905 396.215 513.319V30.8052C396.214 23.219 389.902 17.0696 382.116 17.0696Z" fill="white"/>
<path d="M194.913 79.1553H190.885V304.094H194.913V79.1553Z" fill="#CDDDF1"/>
<path d="M206.63 92.9106C214.22 85.3204 214.22 73.0142 206.63 65.424C199.04 57.8337 186.734 57.8337 179.144 65.4239C171.553 73.0142 171.553 85.3203 179.144 92.9106C186.734 100.501 199.04 100.501 206.63 92.9106Z" fill="#E9EEF8"/>
<path d="M192.683 86.7765C191.592 86.7765 190.564 86.3174 189.83 85.4938L184.195 79.1639C183.529 78.4159 183.596 77.2703 184.344 76.6052C185.092 75.94 186.238 76.006 186.904 76.7533L192.538 83.0831C192.554 83.1015 192.606 83.1587 192.702 83.1499C192.8 83.1433 192.842 83.0824 192.855 83.0619L209.227 59.0127C209.79 58.1847 210.918 57.9713 211.746 58.5345C212.574 59.0978 212.788 60.2257 212.224 61.053L195.852 85.1029C195.183 86.0842 194.121 86.6914 192.936 86.7684C192.853 86.7736 192.768 86.7765 192.683 86.7765Z" fill="#28A4A4"/>
<path d="M206.63 166.772C214.22 159.182 214.22 146.876 206.63 139.286C199.04 131.696 186.734 131.696 179.144 139.286C171.553 146.876 171.553 159.182 179.144 166.772C186.734 174.363 199.04 174.363 206.63 166.772Z" fill="#E9EEF8"/>
<path d="M192.683 160.639C191.592 160.639 190.564 160.179 189.83 159.356L184.195 153.026C183.529 152.278 183.596 151.132 184.344 150.466C185.092 149.801 186.238 149.867 186.904 150.615L192.538 156.944C192.554 156.963 192.606 157.02 192.702 157.012C192.8 157.005 192.842 156.944 192.855 156.924L209.227 132.875C209.79 132.047 210.918 131.833 211.746 132.397C212.574 132.96 212.788 134.088 212.224 134.915L195.852 158.965C195.183 159.946 194.121 160.553 192.936 160.63C192.853 160.636 192.768 160.639 192.683 160.639Z" fill="#28A4A4"/>
<path d="M206.63 240.634C214.22 233.044 214.22 220.738 206.63 213.148C199.04 205.557 186.734 205.557 179.144 213.148C171.553 220.738 171.553 233.044 179.144 240.634C186.734 248.224 199.04 248.224 206.63 240.634Z" fill="#E9EEF8"/>
<path d="M206.63 313.512C214.22 305.922 214.22 293.616 206.63 286.026C199.04 278.435 186.734 278.435 179.144 286.025C171.553 293.616 171.553 305.922 179.144 313.512C186.734 321.102 199.04 321.102 206.63 313.512Z" fill="#E9EEF8"/>
<path d="M340.322 72.499H240.701C239.891 72.499 239.234 71.8426 239.234 71.0322V67.4775C239.234 66.6671 239.891 66.0107 240.701 66.0107H340.321C341.132 66.0107 341.788 66.6671 341.788 67.4775V71.0322C341.789 71.8419 341.132 72.499 340.322 72.499Z" fill="#CDDDF1"/>
<path d="M292.04 90.021H240.701C239.891 90.021 239.234 89.3646 239.234 88.5542V84.9995C239.234 84.1891 239.891 83.5327 240.701 83.5327H292.04C292.85 83.5327 293.507 84.1891 293.507 84.9995V88.5542C293.507 89.3639 292.85 90.021 292.04 90.021Z" fill="#CDDDF1"/>
<path d="M340.322 146.751H240.701C239.891 146.751 239.234 146.095 239.234 145.285V141.73C239.234 140.92 239.891 140.263 240.701 140.263H340.321C341.132 140.263 341.788 140.92 341.788 141.73V145.285C341.789 146.095 341.132 146.751 340.322 146.751Z" fill="#CDDDF1"/>
<path d="M292.04 164.273H240.701C239.891 164.273 239.234 163.616 239.234 162.807V159.252C239.234 158.442 239.891 157.785 240.701 157.785H292.04C292.85 157.785 293.507 158.442 293.507 159.252V162.807C293.507 163.617 292.85 164.273 292.04 164.273Z" fill="#CDDDF1"/>
<path d="M340.322 221.005H240.701C239.891 221.005 239.234 220.348 239.234 219.538V215.983C239.234 215.173 239.891 214.516 240.701 214.516H340.321C341.132 214.516 341.788 215.173 341.788 215.983V219.538C341.789 220.347 341.132 221.005 340.322 221.005Z" fill="#CDDDF1"/>
<path d="M292.04 238.527H240.701C239.891 238.527 239.234 237.87 239.234 237.06V233.505C239.234 232.695 239.891 232.038 240.701 232.038H292.04C292.85 232.038 293.507 232.695 293.507 233.505V237.06C293.507 237.869 292.85 238.527 292.04 238.527Z" fill="#CDDDF1"/>
<path d="M345.385 492.191H198.219C194.168 492.191 190.885 488.907 190.885 484.857V450.163C190.885 446.113 194.168 442.829 198.219 442.829H345.385C349.435 442.829 352.719 446.113 352.719 450.163V484.857C352.719 488.907 349.435 492.191 345.385 492.191Z" fill="#CDDDF1"/>
<path d="M214.515 472.158L138.059 504.238L138.371 504.981L214.826 472.901L214.515 472.158Z" fill="#92B2DD"/>
<path d="M138.288 472.477L137.982 473.223L214.72 504.631L215.025 503.885L138.288 472.477Z" fill="#92B2DD"/>
<path d="M191.912 450.105L160.247 526.734L160.991 527.042L192.656 450.412L191.912 450.105Z" fill="#92B2DD"/>
<path d="M161.033 450.1L160.289 450.408L192.062 526.996L192.806 526.688L161.033 450.1Z" fill="#92B2DD"/>
<path d="M176.485 436.627C147.786 436.627 124.521 459.892 124.521 488.591C124.521 517.29 147.786 540.555 176.485 540.555C205.183 540.555 228.449 517.29 228.449 488.591C228.449 459.892 205.183 436.627 176.485 436.627ZM176.485 530.049C153.588 530.049 135.028 511.487 135.028 488.592C135.028 465.695 153.589 447.135 176.485 447.135C199.38 447.135 217.941 465.696 217.941 488.592C217.941 511.487 199.38 530.049 176.485 530.049Z" fill="#294A71"/>
<path d="M177.293 447.134H175.682V530.048H177.293V447.134Z" fill="#92B2DD"/>
<path d="M217.945 487.786H135.031V489.397H217.945V487.786Z" fill="#92B2DD"/>
<path d="M147.724 458.716L146.585 459.856L205.214 518.484L206.353 517.345L147.724 458.716Z" fill="#92B2DD"/>
<path d="M205.214 458.717L146.585 517.345L147.724 518.485L206.353 459.856L205.214 458.717Z" fill="#92B2DD"/>
<path d="M181.79 489.45C182.473 486.554 180.68 483.652 177.785 482.969C174.889 482.285 171.987 484.078 171.303 486.974C170.62 489.869 172.413 492.771 175.309 493.455C178.204 494.139 181.106 492.345 181.79 489.45Z" fill="#294A71"/>
<path d="M410.865 415.653C411.383 417.205 419.758 437.236 419.758 437.236L394.517 454.054L386.28 424.194L410.865 415.653Z" fill="#294A71"/>
<path d="M106.196 396.855H63.631C62.8851 396.855 62.2001 396.442 61.8511 395.783L55.3254 383.457C54.7064 382.289 55.3622 380.851 56.65 380.553C57.5404 380.346 58.4577 380.765 58.8853 381.572L64.2757 391.755C64.6248 392.414 65.3098 392.826 66.0557 392.826H106.195C107.308 392.826 108.209 393.728 108.209 394.84C108.21 395.953 107.309 396.855 106.196 396.855Z" fill="#35A090"/>
<path d="M113.581 382.649H38.1188C36.9321 382.649 35.9707 381.687 35.9707 380.501C35.9707 379.314 36.9329 378.353 38.1188 378.353H113.581C114.768 378.353 115.729 379.314 115.729 380.501C115.729 381.687 114.768 382.649 113.581 382.649Z" fill="#45BC9A"/>
<path d="M304.184 211.468C306.336 206.733 307.771 193.963 295.708 189.515C283.645 185.067 264.008 182.915 256.834 204.007C249.66 225.099 262.43 237.869 263.147 238.587C263.864 239.304 262.86 240.165 261.999 243.035C261.138 245.904 258.269 246.825 258.269 246.825L274.108 255.805C274.108 255.805 282.661 243.465 283.665 242.461C284.669 241.456 290.265 243.609 291.844 243.465C293.081 243.353 298.375 233.715 300.189 228.036C300.189 228.036 302.606 225.565 303.251 224.919C303.896 224.273 303.036 222.875 302.174 222.014C301.321 221.161 302.157 216.278 302.174 216.182C302.773 214.622 303.477 213.022 304.184 211.468Z" fill="#F79E86"/>
<path d="M334.424 285.661C334.424 285.661 342.556 284.669 346.909 280.834C351.262 276.998 363.959 280.238 366.167 283.247C368.375 286.256 363.683 293.398 361.475 292.869C359.267 292.34 361.888 290.885 362.578 289.563C363.269 288.24 363.406 286.917 362.303 285.991C361.198 285.066 360.647 288.372 357.886 289.695C355.126 291.017 349.191 292.472 346.293 291.282C343.395 290.091 336.908 291.678 336.908 291.678L334.424 285.661Z" fill="#C43F52"/>
<path d="M254.299 262.79C252.897 266.079 253.072 269.834 253.164 273.446C253.415 283.305 257.305 293.498 267.901 296.836C288.051 303.184 317.586 299.216 323.935 297.894C330.283 296.571 338.84 295.513 338.288 291.81C337.736 288.107 338.564 281.821 334.148 281.525C329.731 281.231 289.709 289.959 280.047 276.205C276.002 270.448 273.596 261.929 268.07 257.3C264.191 254.053 258.911 256.631 256.096 259.898C255.315 260.806 254.732 261.776 254.299 262.79Z" fill="#45BC9A"/>
<path d="M253.104 248.702C253.104 248.702 257.193 243.537 261.497 244.828C265.801 246.12 275.917 253.438 275.917 255.16C275.917 256.882 274.066 262.477 274.066 262.477L253.104 248.702Z" fill="#B0D9AC"/>
<path d="M251.239 246.908C251.239 246.908 237.751 244.613 225.986 264.126C214.22 283.64 203.97 311.762 202.638 319.798C201.306 327.833 201.881 336.729 205.037 338.738C208.194 340.746 251.239 346.773 258.7 345.051C266.161 343.329 266.161 335.952 266.161 335.952C266.161 335.952 280.631 277.326 277.27 266.996C273.909 256.665 259.561 248.056 251.239 246.908Z" fill="#28A4A4"/>
<path d="M228.565 339.421C228.565 339.421 245.571 262.045 253.104 265.812C260.636 269.579 273.14 274.987 274.066 278.202C274.992 281.416 260.59 336.43 260.59 336.43L258.878 336.593C258.878 336.593 273.406 278.044 272.474 277.327C271.541 276.61 253.211 266.889 252.027 267.964C250.843 269.04 242.773 290.24 238.253 306.382C233.733 322.524 230.935 339.421 230.935 339.421H228.565Z" fill="#45BC9A"/>
<path d="M240.652 265.812C240.652 265.812 235.17 283.927 245.787 304.876C256.405 325.824 266.708 333.704 266.708 333.704L274.067 299.758L240.652 265.812Z" fill="#45BC9A"/>
<path d="M241.691 261.624C240.233 265.192 240.415 269.266 240.512 273.185C240.773 283.882 244.816 294.941 255.832 298.563C276.78 305.45 307.487 301.146 314.086 299.711C320.687 298.276 329.583 297.128 329.008 293.11C328.435 289.093 329.295 282.272 324.704 281.952C320.113 281.631 278.504 291.101 268.459 276.18C264.253 269.934 261.753 260.69 256.007 255.669C251.974 252.145 246.486 254.942 243.56 258.487C242.746 259.472 242.14 260.524 241.691 261.624Z" fill="#28A4A4"/>
<path d="M283.668 242.46L272.188 240.308L277.503 250.945L283.668 242.46Z" fill="#C43F52"/>
<path d="M306.911 199.127C306.765 200.048 306.184 200.241 305.211 200.091C302.388 199.652 296.258 196.321 287.829 199.416C280.146 202.235 277.67 213.883 276.022 222.217C275.238 226.181 274.644 229.392 273.767 230.55C271.041 234.14 260.241 234.98 254.654 231.987C249.068 228.992 248.37 199.988 256.549 187.935C264.727 175.883 282.806 179.756 282.806 179.756C298.815 178.994 307.484 195.541 306.911 199.127Z" fill="#45BC9A"/>
<path d="M294.375 234.323C293.863 234.323 293.258 234.302 292.594 234.239C290.417 234.031 289.612 232.012 289.579 231.927C289.493 231.705 289.603 231.456 289.825 231.37C290.046 231.285 290.295 231.394 290.381 231.615C290.407 231.681 291.035 233.225 292.675 233.382C294.534 233.561 295.937 233.385 295.951 233.384C296.186 233.352 296.402 233.52 296.432 233.756C296.463 233.992 296.297 234.207 296.061 234.237C296.022 234.242 295.376 234.323 294.375 234.323Z" fill="#C43F52"/>
<path d="M298.966 214.553C298.966 215.662 298.4 216.561 297.701 216.561C297.002 216.561 296.436 215.662 296.436 214.553C296.436 213.443 297.002 212.544 297.701 212.544C298.4 212.544 298.966 213.443 298.966 214.553Z" fill="#23375C"/>
<path d="M294.581 210.952C295.495 209.855 296.909 208.553 298.404 209.453C299.118 209.883 299.768 208.767 299.056 208.338C297.042 207.124 294.982 208.461 293.668 210.039C293.14 210.674 294.049 211.592 294.581 210.952Z" fill="#23375C"/>
<g opacity="0.65">
<path d="M307.524 213.951C306.663 221.699 306.276 225.861 305.105 227.006C303.995 228.1 283.608 227.833 275.916 221.686C277.565 213.352 280.04 201.704 287.724 198.885C296.152 195.79 302.281 199.121 305.106 199.561C305.106 199.561 308.385 206.202 307.524 213.951Z" fill="white"/>
</g>
<path d="M355.608 435.48C355.608 435.48 359.372 439.353 359.934 440.304C360.496 441.255 363.126 444.751 364.552 444.582C365.978 444.413 375.35 440.261 376.795 438.727C378.24 437.194 387.342 434.165 389.894 432.569C392.446 430.973 392.083 426.732 390.329 425.782C388.576 424.831 383.133 427.9 380.854 428.676C378.574 429.452 373.266 429.681 370.322 430.345C367.379 431.008 364.98 431.135 363.806 430.527C362.632 429.919 361.661 429.27 361.661 429.27L355.608 435.48Z" fill="#92B2DD"/>
<path d="M260.591 336.328C260.591 336.328 288.401 332.168 294.427 336.328C300.453 340.488 361.793 427.198 361.793 428.83C361.793 430.462 356.628 435.563 355.767 435.563C354.906 435.563 324.559 418.425 306.695 392.106C288.831 365.787 290.338 364.767 285.818 365.379C281.298 365.992 238.765 367.42 240.446 358.238C242.127 349.057 260.591 336.328 260.591 336.328Z" fill="#23375C"/>
<path d="M328.325 443.163C328.325 443.163 331.5 447.499 331.715 448.569C331.93 449.64 333.256 453.746 334.665 454.014C336.073 454.282 346.35 453.16 348.234 452.14C350.117 451.12 359.763 450.982 362.716 450.235C365.669 449.488 366.743 445.357 365.398 443.929C364.053 442.501 357.865 443.775 355.444 443.827C353.022 443.878 347.911 442.501 344.897 442.245C341.884 441.99 339.566 441.39 338.656 440.46C337.745 439.531 337.041 438.624 337.041 438.624L328.325 443.163Z" fill="#92B2DD"/>
<path d="M205.038 338.516C205.038 338.516 193.559 378.233 220.821 378.233C248.083 378.233 283.38 372.276 284.24 375.662C285.101 379.048 288.832 392.922 298.302 409.516C307.772 426.109 324.703 444.608 327.859 444.608C331.016 444.608 338.764 440.255 337.903 438.623C337.042 436.991 301.745 346.133 294.284 341.236C286.823 336.339 274.197 334.163 250.952 337.428C227.708 340.692 205.038 338.516 205.038 338.516Z" fill="#2D4D9D"/>
<path d="M473.996 472.158L397.541 504.237L397.853 504.98L474.308 472.9L473.996 472.158Z" fill="#92B2DD"/>
<path d="M397.779 472.472L397.474 473.218L474.211 504.626L474.516 503.879L397.779 472.472Z" fill="#92B2DD"/>
<path d="M451.397 450.104L419.732 526.733L420.477 527.041L452.142 450.411L451.397 450.104Z" fill="#92B2DD"/>
<path d="M420.531 450.094L419.786 450.403L451.559 526.991L452.303 526.682L420.531 450.094Z" fill="#92B2DD"/>
<path d="M435.976 436.627C407.277 436.627 384.012 459.892 384.012 488.591C384.012 517.29 407.277 540.555 435.976 540.555C464.675 540.555 487.94 517.29 487.94 488.591C487.94 459.892 464.675 436.627 435.976 436.627ZM435.976 530.049C413.079 530.049 394.518 511.487 394.518 488.592C394.518 465.695 413.079 447.135 435.976 447.135C458.872 447.135 477.433 465.696 477.433 488.592C477.433 511.487 458.872 530.049 435.976 530.049Z" fill="#294A71"/>
<path d="M436.78 447.134H435.169V530.049H436.78V447.134Z" fill="#92B2DD"/>
<path d="M477.43 487.786H394.516V489.397H477.43V487.786Z" fill="#92B2DD"/>
<path d="M407.209 458.718L406.069 459.858L464.698 518.486L465.838 517.347L407.209 458.718Z" fill="#92B2DD"/>
<path d="M464.698 458.718L406.069 517.347L407.209 518.486L465.838 459.857L464.698 458.718Z" fill="#92B2DD"/>
<path d="M406.088 451.666L435.301 489.263L438.255 487.382L424.291 445.758L406.088 451.666Z" fill="#92B2DD"/>
<path d="M441.288 489.462C441.971 486.567 440.178 483.665 437.283 482.981C434.387 482.297 431.485 484.091 430.802 486.986C430.118 489.882 431.911 492.784 434.807 493.467C437.702 494.151 440.604 492.358 441.288 489.462Z" fill="#294A71"/>
<path d="M247.789 390.839H105.189C101.741 390.839 98.9453 388.044 98.9453 384.595C98.9453 381.147 101.741 378.352 105.189 378.352H247.789C251.237 378.352 254.033 381.148 254.033 384.595C254.032 388.044 251.237 390.839 247.789 390.839Z" fill="#B0D9AC"/>
<path d="M431.277 415.678C425.369 422.394 402.271 418.9 394.751 431.525C387.232 444.145 378.641 470.732 368.971 471.808C359.305 472.88 103.021 471.808 103.021 471.808V390.838H249.201C249.201 390.838 262.897 442.402 272.159 450.054C281.425 457.709 345.07 453.275 355.543 446.832C364.126 441.552 371.987 426.172 372.919 407.492C373.125 403.374 372.993 399.096 372.461 394.732C369.507 370.563 353.129 308.262 354.2 301.55C355.275 294.834 360.376 283.285 368.703 280.603C377.026 277.916 385.353 280.331 385.621 280.603C385.888 280.87 386.964 297.253 385.621 299.399C384.277 301.55 379.176 304.232 379.176 308.798C379.176 313.363 409.254 361.434 419.46 378.355C429.662 395.271 437.181 408.967 431.277 415.678Z" fill="#45BC9A"/>
<path d="M385.623 299.801C389.275 299.801 392.236 295.503 392.236 290.201C392.236 284.898 389.275 280.6 385.623 280.6C381.971 280.6 379.01 284.898 379.01 290.201C379.01 295.503 381.971 299.801 385.623 299.801Z" fill="#B0D9AC"/>
<path d="M397.707 386.945C397.707 386.945 413.282 396.613 409.254 402.521C405.226 408.429 392.068 402.252 389.382 394.733C386.695 387.214 393.286 383.808 397.707 386.945Z" fill="#B0D9AC"/>
<path d="M378.48 483.694C375.503 479.747 373.834 471.013 375.602 466.436C379.626 456.02 389.686 441.066 406.44 430.182C430.667 414.443 463.593 425.348 470.53 432.062C475.042 436.43 478.736 444.215 476.995 450.477C476.861 450.96 476.67 451.467 476.246 451.752C475.851 452.018 475.338 452.035 474.857 452.037C456.848 452.109 439.735 449.056 422.532 456.5C398.949 466.705 384.522 491.68 381.47 487.652C380.545 486.433 379.495 485.041 378.48 483.694Z" fill="#B0D9AC"/>
<path d="M168.938 242.198H74.8738C72.0385 242.198 69.7401 239.899 69.7401 237.064V233.17C69.7401 230.334 72.0385 228.036 74.8738 228.036H168.938C171.773 228.036 174.072 230.334 174.072 233.17V237.064C174.072 239.899 171.773 242.198 168.938 242.198Z" fill="#FFD38E"/>
<path d="M165.37 242.198H76.3867V272.007H165.37V242.198Z" fill="#FB5D3A"/>
<path d="M129.822 253.548H112.174C110.318 253.548 108.812 252.043 108.812 250.186C108.812 248.329 110.317 246.824 112.174 246.824H129.822C131.678 246.824 133.183 248.329 133.183 250.186C133.183 252.043 131.678 253.548 129.822 253.548Z" fill="#FB5D3A"/>
<path d="M120.292 273.752C117.771 273.752 115.727 271.708 115.727 269.187V228.099C115.727 225.578 117.771 223.534 120.292 223.534C122.813 223.534 124.857 225.578 124.857 228.099V269.187C124.857 271.708 122.813 273.752 120.292 273.752Z" fill="#FB5D3A"/>
<path d="M190.778 378.352H55.0478C50.5925 378.352 46.9806 374.74 46.9806 370.285V280.074C46.9806 275.619 50.5925 272.007 55.0478 272.007H190.778C195.233 272.007 198.845 275.619 198.845 280.074V370.285C198.845 374.74 195.233 378.352 190.778 378.352Z" fill="#FFD38E"/>
<path d="M85.9397 306.112H60.9238C59.3038 306.112 57.9903 304.799 57.9903 303.179V292.933C57.9903 291.313 59.3038 289.999 60.9238 289.999H85.9397C87.5598 289.999 88.8733 291.313 88.8733 292.933V303.179C88.8733 304.799 87.5598 306.112 85.9397 306.112Z" fill="#FB5D3A"/>
<path d="M184.228 368.953H138.533C136.913 368.953 135.6 367.64 135.6 366.02V341.433C135.6 339.813 136.913 338.499 138.533 338.499H184.228C185.848 338.499 187.161 339.813 187.161 341.433V366.02C187.161 367.64 185.848 368.953 184.228 368.953Z" fill="#FB5D3A"/>
<path d="M181.005 365.89H141.756C140.136 365.89 138.822 364.577 138.822 362.957V344.494C138.822 342.874 140.136 341.56 141.756 341.56H181.005C182.625 341.56 183.939 342.874 183.939 344.494V362.957C183.939 364.577 182.625 365.89 181.005 365.89Z" fill="white"/>
<path d="M83.9852 339.421H60.4612C59.0963 339.421 57.9903 338.315 57.9903 336.95C57.9903 335.585 59.0971 334.479 60.4612 334.479H83.9852C85.35 334.479 86.4559 335.585 86.4559 336.95C86.4559 338.315 85.35 339.421 83.9852 339.421Z" fill="#FB5D3A"/>
<path d="M70.961 351.497H60.4612C59.0963 351.497 57.9903 350.391 57.9903 349.026C57.9903 347.661 59.0971 346.555 60.4612 346.555H70.961C72.3258 346.555 73.4317 347.661 73.4317 349.026C73.4317 350.391 72.3258 351.497 70.961 351.497Z" fill="#FB5D3A"/>
<path d="M183.08 294.489H143.913C142.548 294.489 141.442 293.382 141.442 292.018C141.442 290.653 142.549 289.547 143.913 289.547H183.08C184.445 289.547 185.551 290.654 185.551 292.018C185.551 293.383 184.445 294.489 183.08 294.489Z" fill="#FB5D3A"/>
<path d="M162.898 306.565H143.913C142.548 306.565 141.442 305.459 141.442 304.094C141.442 302.729 142.549 301.623 143.913 301.623H162.898C164.263 301.623 165.369 302.729 165.369 304.094C165.369 305.459 164.263 306.565 162.898 306.565Z" fill="#FB5D3A"/>
<path d="M120.292 393.659C117.771 393.659 115.727 391.615 115.727 389.094V274.693C115.727 272.171 117.771 270.127 120.292 270.127C122.813 270.127 124.857 272.171 124.857 274.693V389.094C124.857 391.615 122.813 393.659 120.292 393.659Z" fill="#FB5D3A"/>
<path d="M353.73 290.172L368.269 289.761C368.854 289.744 369.337 290.214 369.337 290.798V291.21C369.337 291.783 368.872 292.248 368.299 292.248H353.759C353.186 292.248 352.721 291.783 352.721 291.21C352.721 290.648 353.168 290.188 353.73 290.172Z" fill="#35A090"/>
<path d="M103.018 399.587H216.114C219.214 399.587 221.896 401.745 222.56 404.774L237.339 472.194H109.709L103.018 399.587Z" fill="#35A090"/>
<path d="M235.096 482.7H105.269C100.813 482.7 97.2014 479.088 97.2014 474.633V456.914C97.2014 452.459 100.813 448.847 105.269 448.847H235.096C239.552 448.847 243.163 452.459 243.163 456.914V474.632C243.163 479.088 239.552 482.7 235.096 482.7Z" fill="#B0D9AC"/>
<path d="M215.362 416.157V486.308C215.362 492.536 210.311 497.587 204.083 497.587H78.805C72.5779 497.587 67.5264 492.535 67.5264 486.308V416.157C67.5264 409.929 72.5779 404.878 78.805 404.878H204.083C210.311 404.878 215.362 409.929 215.362 416.157Z" fill="#FB5D3A"/>
<path d="M215.362 418.901V429.455C215.362 443.094 204.361 454.15 190.79 454.15H92.0985C78.5272 454.15 67.5264 443.094 67.5264 429.455V418.901C67.5264 412.642 72.5779 407.566 78.805 407.566H204.083C210.311 407.566 215.362 412.642 215.362 418.901Z" fill="#FB5D3A"/>
<path d="M88.1365 488.546H77.2179C76.1413 488.546 75.2693 487.673 75.2693 486.598C75.2693 485.521 76.1421 484.648 77.2179 484.648H88.1365C89.2132 484.648 90.0851 485.521 90.0851 486.598C90.0851 487.673 89.2132 488.546 88.1365 488.546Z" fill="#FB5D3A"/>
<path d="M107.761 488.546H96.8429C95.7663 488.546 94.8943 487.673 94.8943 486.598C94.8943 485.521 95.767 484.648 96.8429 484.648H107.761C108.838 484.648 109.71 485.521 109.71 486.598C109.71 487.673 108.838 488.546 107.761 488.546Z" fill="#FB5D3A"/>
<path d="M127.385 488.546H116.467C115.39 488.546 114.518 487.673 114.518 486.598C114.518 485.521 115.391 484.648 116.467 484.648H127.385C128.462 484.648 129.334 485.521 129.334 486.598C129.334 487.673 128.462 488.546 127.385 488.546Z" fill="#FB5D3A"/>
<path d="M147.012 488.546H136.093C135.017 488.546 134.145 487.673 134.145 486.598C134.145 485.521 135.017 484.648 136.093 484.648H147.012C148.088 484.648 148.96 485.521 148.96 486.598C148.961 487.673 148.088 488.546 147.012 488.546Z" fill="#FB5D3A"/>
<path d="M166.637 488.546H155.719C154.642 488.546 153.77 487.673 153.77 486.598C153.77 485.521 154.643 484.648 155.719 484.648H166.637C167.714 484.648 168.586 485.521 168.586 486.598C168.587 487.673 167.714 488.546 166.637 488.546Z" fill="#FB5D3A"/>
<path d="M186.263 488.546H175.344C174.267 488.546 173.395 487.673 173.395 486.598C173.395 485.521 174.268 484.648 175.344 484.648H186.263C187.339 484.648 188.212 485.521 188.212 486.598C188.212 487.673 187.339 488.546 186.263 488.546Z" fill="#FB5D3A"/>
<path d="M205.889 488.546H194.971C193.894 488.546 193.022 487.673 193.022 486.598C193.022 485.521 193.895 484.648 194.971 484.648H205.889C206.966 484.648 207.838 485.521 207.838 486.598C207.838 487.673 206.965 488.546 205.889 488.546Z" fill="#FB5D3A"/>
<path d="M215.362 416.157V426.658C215.362 440.229 204.361 451.23 190.79 451.23H92.0985C78.5272 451.23 67.5264 440.229 67.5264 426.658V416.157C67.5264 409.929 72.5779 404.878 78.805 404.878H204.083C210.311 404.878 215.362 409.929 215.362 416.157Z" fill="#FFD38E"/>
<path d="M211.139 427.427C210.126 427.427 209.306 426.606 209.306 425.593V418.259C209.306 417.246 210.126 416.426 211.139 416.426C212.152 416.426 212.972 417.246 212.972 418.259V425.593C212.972 426.606 212.152 427.427 211.139 427.427Z" fill="#FB5D3A"/>
<path d="M178.706 448.967H163.806C162.793 448.967 161.972 448.147 161.972 447.134C161.972 446.121 162.793 445.301 163.806 445.301H178.706C179.719 445.301 180.539 446.121 180.539 447.134C180.539 448.147 179.718 448.967 178.706 448.967ZM148.906 448.967H134.005C132.992 448.967 132.172 448.147 132.172 447.134C132.172 446.121 132.992 445.301 134.005 445.301H148.906C149.918 445.301 150.739 446.121 150.739 447.134C150.739 448.147 149.918 448.967 148.906 448.967ZM119.104 448.967H104.205C103.192 448.967 102.372 448.147 102.372 447.134C102.372 446.121 103.192 445.301 104.205 445.301H119.104C120.117 445.301 120.938 446.121 120.938 447.134C120.938 448.147 120.117 448.967 119.104 448.967ZM89.3495 448.379C89.2211 448.379 89.0905 448.366 88.9615 448.338C83.5593 447.174 78.6854 444.396 75.237 440.518C74.5637 439.761 74.632 438.603 75.3888 437.93C76.1464 437.257 77.3043 437.325 77.9768 438.082C80.9118 441.382 85.087 443.752 89.733 444.753C90.7231 444.966 91.3523 445.942 91.1396 446.932C90.9541 447.791 90.1943 448.379 89.3495 448.379ZM193.561 448.373C192.717 448.373 191.957 447.787 191.772 446.927C191.558 445.938 192.186 444.962 193.176 444.748C197.82 443.742 201.992 441.369 204.924 438.065C205.596 437.307 206.753 437.238 207.512 437.91C208.269 438.582 208.338 439.742 207.667 440.498C204.223 444.381 199.351 447.163 193.952 448.332C193.821 448.36 193.69 448.373 193.561 448.373Z" fill="#FB5D3A"/>
<path d="M71.7505 427.427C70.7377 427.427 69.917 426.606 69.917 425.593V418.259C69.917 417.246 70.7377 416.426 71.7505 416.426C72.7633 416.426 73.5839 417.246 73.5839 418.259V425.593C73.5839 426.606 72.7633 427.427 71.7505 427.427Z" fill="#FB5D3A"/>
<path d="M145.782 455.895H137.323C135.043 455.895 133.194 454.046 133.194 451.766C133.194 449.486 135.043 447.637 137.323 447.637H145.782C148.062 447.637 149.911 449.486 149.911 451.766C149.911 454.047 148.062 455.895 145.782 455.895Z" fill="white"/>
<g opacity="0.39">
<path d="M379.009 316.145C382.139 320.186 420.992 381.829 417.87 382.055C414.748 382.282 401.369 377.291 396.218 372.621C391.068 367.952 379.009 316.145 379.009 316.145Z" fill="#B0D9AC"/>
</g>
<path d="M373.669 407.593C373.669 407.593 372.046 441.921 364.826 448.847C357.601 455.772 279.655 460.555 271.503 458.707C263.351 456.86 243.164 395.33 243.164 395.33H103.021V390.839H249.201C249.201 390.839 262.897 442.403 272.159 450.055C281.425 457.71 345.07 453.276 355.543 446.833C364.126 441.553 371.987 426.173 372.919 407.493L373.669 407.593Z" fill="#35A090"/>
<path d="M507.059 133.558V254.528C507.059 257.473 504.745 259.857 501.888 259.857H337.788C336.332 259.857 335.013 259.235 334.074 258.236C333.169 257.272 332.617 255.967 332.617 254.528V133.558C332.617 132.115 333.169 130.81 334.074 129.85C335.013 128.851 336.332 128.229 337.788 128.229H501.888C504.746 128.229 507.059 130.614 507.059 133.558Z" fill="#45BC9A"/>
<path d="M501.364 139.478V249.211C501.364 251.882 499.202 254.045 496.531 254.045H343.147C341.785 254.045 340.553 253.481 339.675 252.574C338.828 251.7 338.313 250.516 338.313 249.211V139.478C338.313 138.169 338.829 136.985 339.675 136.115C340.553 135.208 341.785 134.644 343.147 134.644H496.531C499.201 134.644 501.364 136.807 501.364 139.478Z" fill="#E9EEF8"/>
<path d="M445.101 167.599L424.327 186.024L424.339 186.032L396.87 210.197L455.227 254.045H445.306L392.298 214.217L347.025 254.045H343.146C341.784 254.045 340.552 253.481 339.674 252.574L415.078 186.242L350.8 134.644H360.323L419.614 182.242L473.282 134.644H482.261L449.701 163.523L501.363 198.657V205.868L445.101 167.599Z" fill="white"/>
<path d="M418.538 207.572L444.565 184.075C445.272 183.437 446.327 183.376 447.102 183.929L488.127 213.157C489.15 213.887 489.271 215.362 488.38 216.248L461.565 242.93C460.831 243.659 459.666 243.72 458.86 243.071L418.624 210.658C417.653 209.876 417.611 208.408 418.538 207.572Z" fill="#CDDDF1"/>
<path d="M368.075 250.469L393.245 229.085C393.967 228.472 395.019 228.44 395.777 229.009L424.259 250.392C425.818 251.563 424.99 254.045 423.041 254.045H369.39C367.5 254.045 366.635 251.691 368.075 250.469Z" fill="#28A4A4"/>
<path d="M375.836 173.021L341.536 197.961C340.195 198.937 338.313 197.978 338.313 196.32V139.478C338.313 139.465 338.313 139.452 338.313 139.439C338.327 137.698 340.449 136.834 341.725 138.02L376.025 169.893C376.96 170.762 376.87 172.269 375.836 173.021Z" fill="#CDDDF1"/>
<path d="M387.9 199.486L375.43 185.761C374.709 184.967 373.495 184.871 372.659 185.542L359.988 195.698C359.07 196.433 358.968 197.793 359.766 198.658L372.642 212.608C373.38 213.406 374.615 213.483 375.445 212.78L387.709 202.4C388.586 201.657 388.673 200.336 387.9 199.486Z" fill="#28A4A4"/>
<path d="M392.485 198.359L401.445 190.776C402.403 189.965 402.403 188.489 401.446 187.678L387.431 175.806C386.69 175.179 385.607 175.164 384.85 175.771L377.486 181.673C376.571 182.407 376.466 183.759 377.257 184.625C381.255 188.997 385.739 193.896 389.683 198.185C390.418 198.986 391.654 199.062 392.485 198.359Z" fill="#28A4A4"/>
<path d="M352.876 201.398L339.071 212.465C338.591 212.85 338.311 213.432 338.311 214.048L338.31 239.835C338.31 241.563 340.332 242.5 341.651 241.384L368.76 218.439C369.652 217.683 369.724 216.332 368.915 215.487L355.612 201.579C354.884 200.819 353.697 200.741 352.876 201.398Z" fill="#28A4A4"/>
<path d="M458.217 138.228C444.242 149.943 426.05 165.261 421.117 169.416C420.372 170.043 419.289 170.051 418.533 169.438L380.125 138.249C378.642 137.044 379.494 134.644 381.404 134.644H456.911C458.807 134.644 459.67 137.01 458.217 138.228Z" fill="#CDDDF1"/>
<path d="M501.364 136.674V184.649C501.364 186.275 499.549 187.242 498.201 186.333C487.647 179.209 469.135 167.001 462.842 162.857C461.742 162.132 461.613 160.569 462.581 159.674C467.492 155.138 480.808 142.859 489.354 135.164C489.726 134.829 490.209 134.644 490.71 134.644H499.334C500.455 134.644 501.364 135.553 501.364 136.674Z" fill="#28A4A4"/>
<path d="M420.184 103.889C391.355 103.889 410.943 139.829 417.963 151.349C418.966 152.995 421.362 152.972 422.331 151.305C429.054 139.737 447.673 103.889 420.184 103.889ZM419.839 126.647C416.269 126.647 413.375 123.753 413.375 120.183C413.375 116.613 416.269 113.719 419.839 113.719C423.408 113.719 426.302 116.613 426.302 120.183C426.302 123.753 423.408 126.647 419.839 126.647Z" fill="#45BC9A"/>
<path d="M543.545 549.955H-4.06646C-5.68651 549.955 -7 548.642 -7 547.021V543.489C-7 541.869 -5.68651 540.556 -4.06646 540.556H543.545C545.165 540.556 546.479 541.869 546.479 543.489V547.021C546.479 548.642 545.165 549.955 543.545 549.955Z" fill="#92B2DD"/>
<path d="M309.896 575.595H44.6884C43.0684 575.595 41.7549 574.281 41.7549 572.661V569.129C41.7549 567.509 43.0684 566.196 44.6884 566.196H309.896C311.516 566.196 312.83 567.509 312.83 569.129V572.661C312.83 574.281 311.516 575.595 309.896 575.595Z" fill="#E9EEF8"/>
<path d="M491.003 575.595H344.825C343.205 575.595 341.891 574.281 341.891 572.661V569.129C341.891 567.509 343.205 566.196 344.825 566.196H491.003C492.623 566.196 493.937 567.509 493.937 569.129V572.661C493.937 574.281 492.623 575.595 491.003 575.595Z" fill="#E9EEF8"/>
<path d="M359.892 601.235H213.714C212.094 601.235 210.78 599.921 210.78 598.301V594.769C210.78 593.149 212.094 591.836 213.714 591.836H359.892C361.512 591.836 362.826 593.149 362.826 594.769V598.301C362.826 599.921 361.512 601.235 359.892 601.235Z" fill="#E9EEF8"/>
<path d="M328.382 286.276C328.382 286.276 332.924 286.011 337.449 281.85C341.974 277.689 355.175 281.205 357.471 284.469C359.766 287.733 354.888 295.481 352.592 294.907C350.297 294.333 353.023 292.754 353.74 291.32C354.457 289.885 354.601 288.449 353.453 287.445C352.305 286.441 351.731 290.029 348.862 291.464C345.992 292.898 339.823 294.477 336.81 293.186C333.796 291.894 329.005 293.111 329.005 293.111L328.382 286.276Z" fill="#F79E86"/>
<path d="M358.043 291.304C358.043 293.595 356.186 295.453 353.895 295.453C351.604 295.453 349.747 293.595 349.747 291.304C349.747 289.013 351.604 287.156 353.895 287.156C356.186 287.156 358.043 289.013 358.043 291.304Z" fill="#B0D9AC"/>
</svg>
