<svg width="16" height="16" viewBox="0 0 16 16" fill="none" xmlns="http://www.w3.org/2000/svg">
<path d="M8.00004 1.3335C5.42004 1.3335 3.33337 3.42016 3.33337 6.00016C3.33337 8.78016 6.28004 12.6135 7.49337 14.0735C7.76004 14.3935 8.24671 14.3935 8.51337 14.0735C9.72004 12.6135 12.6667 8.78016 12.6667 6.00016C12.6667 3.42016 10.58 1.3335 8.00004 1.3335ZM8.00004 7.66683C7.08004 7.66683 6.33337 6.92016 6.33337 6.00016C6.33337 5.08016 7.08004 4.3335 8.00004 4.3335C8.92004 4.3335 9.66671 5.08016 9.66671 6.00016C9.66671 6.92016 8.92004 7.66683 8.00004 7.66683Z" fill="white"/>
</svg>
