<svg width="16" height="16" viewBox="0 0 16 16" fill="none" xmlns="http://www.w3.org/2000/svg">
<path d="M13.3334 2.6665H2.66671C1.93337 2.6665 1.34004 3.2665 1.34004 3.99984L1.33337 11.9998C1.33337 12.7332 1.93337 13.3332 2.66671 13.3332H13.3334C14.0667 13.3332 14.6667 12.7332 14.6667 11.9998V3.99984C14.6667 3.2665 14.0667 2.6665 13.3334 2.6665ZM13.0667 5.49984L8.35337 8.4465C8.14004 8.57984 7.86004 8.57984 7.64671 8.4465L2.93337 5.49984C2.76671 5.39317 2.66671 5.21317 2.66671 5.01984C2.66671 4.57317 3.15337 4.3065 3.53337 4.53984L8.00004 7.33317L12.4667 4.53984C12.8467 4.3065 13.3334 4.57317 13.3334 5.01984C13.3334 5.21317 13.2334 5.39317 13.0667 5.49984Z" fill="white"/>
</svg>
