<svg width="48" height="48" viewBox="0 0 48 48" fill="none" xmlns="http://www.w3.org/2000/svg">
<g filter="url(#filter0_d_21_229)">
<rect x="4" width="40" height="40" rx="8" fill="#28A4A4" shape-rendering="crispEdges"/>
<rect x="4.5" y="0.5" width="39" height="39" rx="7.5" stroke="#28A4A4" shape-rendering="crispEdges"/>
<path d="M26 20L22.5 22V18L26 20Z" fill="white" stroke="white" stroke-width="1.5" stroke-linecap="round" stroke-linejoin="round"/>
<path d="M14 20.7069V19.2919C14 16.3969 14 14.9489 14.905 14.0179C15.811 13.0859 17.237 13.0459 20.088 12.9649C21.438 12.9269 22.818 12.8999 24 12.8999C25.181 12.8999 26.561 12.9269 27.912 12.9649C30.763 13.0459 32.189 13.0859 33.094 14.0179C34 14.9489 34 16.3979 34 19.2919V20.7069C34 23.6029 34 25.0499 33.095 25.9819C32.189 26.9129 30.764 26.9539 27.912 27.0339C26.562 27.0729 25.182 27.0999 24 27.0999C22.6958 27.096 21.3916 27.074 20.088 27.0339C17.237 26.9539 15.811 26.9139 14.905 25.9819C14 25.0499 14 23.6019 14 20.7079V20.7069Z" stroke="white" stroke-width="1.5"/>
</g>
<defs>
<filter id="filter0_d_21_229" x="0" y="0" width="48" height="48" filterUnits="userSpaceOnUse" color-interpolation-filters="sRGB">
<feFlood flood-opacity="0" result="BackgroundImageFix"/>
<feColorMatrix in="SourceAlpha" type="matrix" values="0 0 0 0 0 0 0 0 0 0 0 0 0 0 0 0 0 0 127 0" result="hardAlpha"/>
<feOffset dy="4"/>
<feGaussianBlur stdDeviation="2"/>
<feComposite in2="hardAlpha" operator="out"/>
<feColorMatrix type="matrix" values="0 0 0 0 0 0 0 0 0 0 0 0 0 0 0 0 0 0 0.25 0"/>
<feBlend mode="normal" in2="BackgroundImageFix" result="effect1_dropShadow_21_229"/>
<feBlend mode="normal" in="SourceGraphic" in2="effect1_dropShadow_21_229" result="shape"/>
</filter>
</defs>
</svg>
