<svg width="40" height="40" viewBox="0 0 40 40" fill="none" xmlns="http://www.w3.org/2000/svg">
<path d="M20 3.33398C10.8 3.33398 3.33337 10.8007 3.33337 20.0007C3.33337 29.2007 10.8 36.6673 20 36.6673C29.2 36.6673 36.6667 29.2007 36.6667 20.0007C36.6667 10.8007 29.2 3.33398 20 3.33398ZM20 33.334C12.65 33.334 6.66671 27.3507 6.66671 20.0007C6.66671 12.6507 12.65 6.66732 20 6.66732C27.35 6.66732 33.3334 12.6507 33.3334 20.0007C33.3334 27.3507 27.35 33.334 20 33.334ZM18.3334 26.6673H21.6667V30.0007H18.3334V26.6673ZM21.0167 10.0673C17.5834 9.56732 14.55 11.684 13.6334 14.7173C13.3334 15.684 14.0667 16.6673 15.0834 16.6673H15.4167C16.1 16.6673 16.65 16.184 16.8834 15.5507C17.4167 14.0673 19 13.0507 20.7167 13.4173C22.3 13.7507 23.4667 15.3006 23.3334 16.9173C23.1667 19.1507 20.6334 19.634 19.25 21.7173C19.25 21.734 19.2334 21.734 19.2334 21.7507C19.2167 21.784 19.2 21.8007 19.1834 21.834C19.0334 22.084 18.8834 22.3673 18.7667 22.6673C18.75 22.7173 18.7167 22.7507 18.7 22.8007C18.6834 22.834 18.6834 22.8673 18.6667 22.9173C18.4667 23.484 18.3334 24.1673 18.3334 25.0007H21.6667C21.6667 24.3006 21.85 23.7173 22.1334 23.2173C22.1667 23.1673 22.1834 23.1173 22.2167 23.0673C22.35 22.834 22.5167 22.6173 22.6834 22.4173C22.7 22.4007 22.7167 22.3673 22.7334 22.3507C22.9 22.1507 23.0834 21.9673 23.2834 21.784C24.8834 20.2673 27.05 19.034 26.6 15.8507C26.2 12.9507 23.9167 10.5007 21.0167 10.0673Z" fill="#0155A5"/>
</svg>
